#N canvas 814 170 463 383 10;
#X obj 122 67 inlet;
#X obj 42 177 line~;
#X text 29 47 audio;
#X obj 29 67 inlet~;
#X obj 29 196 *~;
#X obj 122 149 pack 0 500;
#X obj 29 272 outlet~;
#X text 29 286 audio;
#X obj 122 112 dbtorms;
#X obj 207 67 inlet;
#X text 207 51 interpol-time;
#X obj 207 89 init \$1;
#X obj 207 113 split 20;
#X text 58 196 1.arg: <float> interpolation-time in ms;
#X text 122 51 slider-128;
#X obj 88 274 outlet;
#X obj 88 254 - 100;
#X text 24 14 gain~;
#X connect 0 0 8 0;
#X connect 0 0 16 0;
#X connect 1 0 4 1;
#X connect 3 0 4 0;
#X connect 4 0 6 0;
#X connect 5 0 1 0;
#X connect 8 0 5 0;
#X connect 9 0 11 0;
#X connect 11 0 12 0;
#X connect 12 1 5 1;
#X connect 16 0 15 0;
