#N canvas 427 172 265 234 10;
#X obj 100 31 inlet;
#X text 23 11 audio;
#X obj 23 31 inlet~;
#X obj 23 160 *~;
#X obj 23 186 outlet~;
#X text 23 200 audio;
#X text 102 11 MUTE;
#X obj 100 125 line~;
#X obj 100 80 invert;
#X obj 100 57 tgl 15 0 empty empty empty 17 7 0 10 -262144 -1 -1 0
1;
#X floatatom 66 104 5 0 0 0 - - -;
#X msg 127 103 20;
#X text 153 104 interpol-time ms;
#X obj 150 40 init 0;
#X connect 0 0 9 0;
#X connect 2 0 3 0;
#X connect 3 0 4 0;
#X connect 7 0 3 1;
#X connect 8 0 7 0;
#X connect 8 0 10 0;
#X connect 9 0 8 0;
#X connect 9 0 11 0;
#X connect 11 0 7 1;
#X connect 13 0 9 0;
