#N canvas 406 213 714 387 10;
#X obj 67 117 t f f;
#X obj 67 211 s;
#X msg 115 182 symbol channel_1_send_1_\$1;
#X msg 67 181 CH\$1;
#X obj 67 89 for++ 1 4;
#X obj 67 68 bng 15 250 50 0 empty empty empty 17 7 0 10 -262144 -1
-1;
#X obj 114 14 r page_number;
#X obj 141 140 * 4;
#X obj 67 157 + 0;
#X obj 114 40 t b f;
#X msg 249 13 0;
#X msg 281 13 1;
#X obj 249 39 s page_number;
#X obj 156 67 nbx 5 14 -1e+037 1e+037 0 1 empty empty empty 0 -8 0
10 -262144 -1 -1 4 256;
#X obj -60 334 state_read;
#X msg -230 271 /\$1/fader;
#X msg -160 271 /\$1/pan;
#X msg -100 271 /\$1/send1;
#X obj -60 206 symbol;
#X msg -30 271 /\$1/fase;
#X msg 30 271 /\$1/mute;
#X msg 90 271 /\$1/solo;
#X connect 0 0 8 0;
#X connect 0 1 2 0;
#X connect 2 0 1 1;
#X connect 3 0 1 0;
#X connect 3 0 18 0;
#X connect 4 0 0 0;
#X connect 5 0 4 0;
#X connect 6 0 9 0;
#X connect 7 0 8 1;
#X connect 8 0 3 0;
#X connect 9 0 5 0;
#X connect 9 1 7 0;
#X connect 10 0 12 0;
#X connect 11 0 12 0;
#X connect 13 0 4 1;
#X connect 13 0 7 1;
#X connect 15 0 14 0;
#X connect 16 0 14 0;
#X connect 17 0 14 0;
#X connect 18 0 15 0;
#X connect 18 0 16 0;
#X connect 18 0 17 0;
#X connect 18 0 19 0;
#X connect 18 0 20 0;
#X connect 18 0 21 0;
#X connect 19 0 14 0;
#X connect 20 0 14 0;
#X connect 21 0 14 0;
