#N canvas 0 0 1149 601 10;
#X obj 20 199 cnv 15 1000 150 empty empty Pagina0(1-8) 20 12 0 14 -204800
-66577 0;
#X obj 25 302 s channel_1_send_1_1;
#X obj 151 302 s channel_1_send_1_2;
#X obj 277 302 s channel_1_send_1_3;
#X obj 403 302 s channel_1_send_1_4;
#X obj 529 302 s channel_1_send_1_5;
#X obj 655 302 s channel_1_send_1_6;
#X obj 782 302 s channel_1_send_1_7;
#X obj 908 302 s channel_1_send_1_8;
#X msg 151 275 CH2;
#X msg 25 278 CH1;
#X msg 277 278 CH3;
#X msg 403 275 CH4;
#X msg 529 278 CH5;
#X msg 655 275 CH6;
#X msg 782 278 CH7;
#X msg 908 275 CH8;
#X obj 25 238 r page0;
#X obj 151 238 r page0;
#X obj 277 238 r page0;
#X obj 403 238 r page0;
#X obj 529 238 r page0;
#X obj 655 238 r page0;
#X obj 782 238 r page0;
#X obj 908 238 r page0;
#X obj 20 359 cnv 15 1000 150 empty empty Pagina1(9-16) 20 12 0 14
-204800 -66577 0;
#X msg 25 438 CH9;
#X msg 151 435 CH10;
#X obj 25 462 s channel_1_send_1_1;
#X obj 151 462 s channel_1_send_1_2;
#X obj 277 462 s channel_1_send_1_3;
#X obj 403 462 s channel_1_send_1_4;
#X obj 529 462 s channel_1_send_1_5;
#X obj 655 462 s channel_1_send_1_6;
#X obj 782 462 s channel_1_send_1_7;
#X obj 908 462 s channel_1_send_1_8;
#X msg 277 438 CH11;
#X msg 403 435 CH12;
#X msg 529 438 CH13;
#X msg 655 435 CH14;
#X msg 782 438 CH15;
#X msg 908 435 CH16;
#X obj 25 405 r page1;
#X obj 151 405 r page1;
#X obj 277 405 r page1;
#X obj 403 405 r page1;
#X obj 529 405 r page1;
#X obj 655 405 r page1;
#X obj 782 405 r page1;
#X obj 908 405 r page1;
#X obj 59 265 bng 15 250 50 0 empty empty empty 17 7 0 10 -262144 -1
-1;
#X obj 81 433 bng 15 250 50 0 empty empty empty 17 7 0 10 -262144 -1
-1;
#X obj 21 10 cnv 15 200 180 empty empty selector-paginas 20 12 0 14
-262130 -66577 0;
#X obj 46 54 r page_number;
#X msg 135 55 0;
#X msg 167 55 1;
#X obj 135 89 select 0 1;
#X obj 172 115 bng 15 250 50 0 empty empty empty 17 7 0 10 -262144
-1 -1;
#X obj 141 140 bng 15 250 50 0 empty empty empty 17 7 0 10 -262144
-1 -1;
#X obj 135 159 s page0;
#X obj 163 135 s page1;
#X obj 243 14 cnv 15 300 150 empty empty Prueba 20 12 0 14 -233017
-66577 0;
#X obj 347 78 s canal_S_E1_1;
#X msg 347 56 CH3;
#X msg 439 54 CH4;
#X obj 439 77 s canal_S_E1_2;
#X obj 265 79 s /CH1/fader;
#X obj 265 60 nbx 5 14 -1e+037 1e+037 0 0 empty empty empty 0 -8 0
10 -262144 -1 -1 0 256;
#X obj 265 100 nbx 5 14 -1e+037 1e+037 0 0 empty empty empty 0 -8 0
10 -262144 -1 -1 0 256;
#X obj 265 118 s /CH3/fader;
#X obj 348 119 s canal_S_E1_1;
#X msg 348 99 CH1;
#X connect 9 0 2 0;
#X connect 10 0 1 0;
#X connect 11 0 3 0;
#X connect 12 0 4 0;
#X connect 13 0 5 0;
#X connect 14 0 6 0;
#X connect 15 0 7 0;
#X connect 16 0 8 0;
#X connect 17 0 10 0;
#X connect 17 0 50 0;
#X connect 18 0 9 0;
#X connect 19 0 11 0;
#X connect 20 0 12 0;
#X connect 21 0 13 0;
#X connect 22 0 14 0;
#X connect 23 0 15 0;
#X connect 24 0 16 0;
#X connect 26 0 28 0;
#X connect 27 0 29 0;
#X connect 36 0 30 0;
#X connect 37 0 31 0;
#X connect 38 0 32 0;
#X connect 39 0 33 0;
#X connect 40 0 34 0;
#X connect 41 0 35 0;
#X connect 42 0 26 0;
#X connect 42 0 51 0;
#X connect 43 0 27 0;
#X connect 44 0 36 0;
#X connect 45 0 37 0;
#X connect 46 0 38 0;
#X connect 47 0 39 0;
#X connect 48 0 40 0;
#X connect 49 0 41 0;
#X connect 53 0 56 0;
#X connect 54 0 56 0;
#X connect 55 0 56 0;
#X connect 56 0 58 0;
#X connect 56 0 59 0;
#X connect 56 1 57 0;
#X connect 56 1 60 0;
#X connect 63 0 62 0;
#X connect 64 0 65 0;
#X connect 67 0 66 0;
#X connect 68 0 69 0;
#X connect 71 0 70 0;
