#N canvas 613 167 477 370 10;
#X obj 86 100 counter;
#X msg 86 60 inc;
#X msg 131 60 dec;
#X floatatom 86 126 10 0 100 0 - - -;
#X obj 86 -2 select 1;
#X obj 131 27 bng 15 250 50 0 empty empty empty 17 7 0 10 -262144 -1
-1;
#X obj 86 27 bng 15 250 50 0 empty empty empty 17 7 0 10 -262144 -1
-1;
#X obj 86 161 sel 0;
#X msg 86 199 0;
#X msg 130 198 1;
#X obj 62 223 tgl 15 0 empty empty empty 17 7 0 10 -262144 -1 -1 0
1;
#X obj 86 248 s mute_all;
#X obj 15 -25 nbx 5 14 -1e+037 1e+037 0 0 empty empty empty 0 -8 0
10 -262144 -1 -1 0 256;
#X msg 185 66 min 0;
#X obj 185 41 loadbang;
#X obj 185 18 bng 15 250 50 0 empty empty empty 17 7 0 10 -262144 -1
-1;
#X obj 86 -31 r solo_toggle;
#X connect 0 0 3 0;
#X connect 1 0 0 0;
#X connect 2 0 0 0;
#X connect 3 0 7 0;
#X connect 4 0 6 0;
#X connect 4 1 5 0;
#X connect 5 0 2 0;
#X connect 6 0 1 0;
#X connect 7 0 8 0;
#X connect 7 1 9 0;
#X connect 8 0 11 0;
#X connect 9 0 11 0;
#X connect 10 0 11 0;
#X connect 12 0 4 0;
#X connect 14 0 13 0;
#X connect 15 0 14 0;
#X connect 16 0 4 0;
