#N canvas 658 244 666 300 10;
#X declare -lib pdcontainer;
#X obj 100 100 tgl 17 0 empty empty fase 20 9 0 12 -262144 -1 -4160
23 23;
#X obj -119 92 s \$0_label;
#X obj 19 42 r \$0_label;
#X obj -119 39 inlet;
#X obj -47 64 state_io_set /\$1/fase;
#X msg -119 65 /\$1/fase;
#X obj 100 67 init 0;
#X connect 0 0 4 0;
#X connect 2 0 4 1;
#X connect 3 0 5 0;
#X connect 4 0 0 0;
#X connect 5 0 1 0;
#X connect 6 0 0 0;
#X coords 0 -1 1 1 17 17 2 100 100;
