#N canvas 470 167 439 300 10;
#X declare -lib pdcontainer;
#X obj 104 101 hsl 80 15 0 127 0 0 empty empty Send_1 5 8 0 10 -262144
-1 -1 0 1;
#X obj 186 101 tgl 15 0 empty empty empty 17 7 0 10 -262144 -1 -1 0
1;
#X obj 161 73 init 0;
#X obj 73 36 r \$0_label;
#X obj -1 56 state_io_set /\$1/send1;
#X obj -90 86 s \$0_label;
#X obj -90 33 inlet;
#X msg -90 59 /\$1/send1;
#X connect 0 0 4 0;
#X connect 2 0 0 0;
#X connect 3 0 4 1;
#X connect 4 0 0 0;
#X connect 6 0 7 0;
#X connect 7 0 5 0;
#X coords 0 -1 1 1 102 17 1 100 100;
