#N canvas 83 650 1019 352 10;
#X declare -lib multicatch;
#X obj 92 43 s~ one;
#X obj 19 81 r~ one;
#X obj 600 14 import multicatch;
#X obj 92 18 sig~ 1;
#X obj 18 107 unsig~ 100;
#X obj 18 130 nbx 5 14 -1e+37 1e+37 0 0 empty empty empty 0 -8 0 10
-262144 -1 -1 1 256;
#X obj 99 81 r~ one;
#X obj 98 107 unsig~ 100;
#X obj 98 130 nbx 5 14 -1e+37 1e+37 0 0 empty empty empty 0 -8 0 10
-262144 -1 -1 1 256;
#X obj 179 81 r~ one;
#X obj 178 107 unsig~ 100;
#X obj 178 130 nbx 5 14 -1e+37 1e+37 0 0 empty empty empty 0 -8 0 10
-262144 -1 -1 1 256;
#X obj 354 130 unsig~ 100;
#X obj 354 153 nbx 5 14 -1e+37 1e+37 0 0 empty empty empty 0 -8 0 10
-262144 -1 -1 2 256;
#X obj 270 55 throw~ two;
#X obj 355 56 throw~ two;
#X obj 434 55 throw~ two;
#X obj 354 105 catch~ two;
#X obj 270 29 sig~ 0.666;
#X obj 356 30 sig~ 0.667;
#X obj 435 28 sig~ 0.667;
#X obj 601 148 mcatch~ three;
#X obj 700 148 mcatch~ three;
#X obj 800 147 mcatch~ three;
#X obj 601 177 unsig~ 100;
#X obj 601 200 nbx 5 14 -1e+37 1e+37 0 0 empty empty empty 0 -8 0 10
-262144 -1 -1 3 256;
#X obj 699 179 unsig~ 100;
#X obj 699 202 nbx 5 14 -1e+37 1e+37 0 0 empty empty empty 0 -8 0 10
-262144 -1 -1 3 256;
#X obj 800 180 unsig~ 100;
#X obj 800 203 nbx 5 14 -1e+37 1e+37 0 0 empty empty empty 0 -8 0 10
-262144 -1 -1 3 256;
#X obj 701 89 mthrow~ three;
#X obj 799 89 mthrow~ three;
#X obj 700 58 sig~ 1;
#X obj 798 59 sig~ 1;
#X obj 602 90 mthrow~ three;
#X obj 601 59 sig~ 1;
#X text 600 253 These objects are in beta \, erasing the first mcatch~
created may crash pd.;
#X connect 1 0 4 0;
#X connect 3 0 0 0;
#X connect 4 0 5 0;
#X connect 6 0 7 0;
#X connect 7 0 8 0;
#X connect 9 0 10 0;
#X connect 10 0 11 0;
#X connect 12 0 13 0;
#X connect 17 0 12 0;
#X connect 18 0 14 0;
#X connect 19 0 15 0;
#X connect 20 0 16 0;
#X connect 21 0 24 0;
#X connect 22 0 26 0;
#X connect 23 0 28 0;
#X connect 24 0 25 0;
#X connect 26 0 27 0;
#X connect 28 0 29 0;
#X connect 32 0 30 0;
#X connect 33 0 31 0;
#X connect 35 0 34 0;
