#N canvas 287 318 794 298 10;
#X declare -lib multicatch;
#X obj 36 20 import multicatch;
#X obj 35 144 -~;
#X obj 34 174 snaps~;
#X obj 392 4 loadbang;
#X msg 392 26 \; pd dsp 1;
#X obj 84 144 snaps~;
#X obj 230 144 -~;
#X obj 279 144 snaps~;
#X obj 229 174 snaps~;
#X obj 229 61 noise~;
#X obj 248 92 mthrow~ no;
#X obj 247 116 mcatch~ no;
#X obj 52 116 mcatch~ si;
#X obj 53 92 mthrow~ si;
#X obj 34 61 noise~;
#X obj 444 155 -~;
#X obj 493 155 snaps~;
#X obj 443 185 snaps~;
#X obj 461 127 mcatch~ hola;
#X obj 462 103 mthrow~ hola;
#X obj 443 72 noise~;
#X connect 1 0 2 0;
#X connect 3 0 4 0;
#X connect 6 0 8 0;
#X connect 9 0 6 0;
#X connect 9 0 10 0;
#X connect 11 0 6 1;
#X connect 11 0 7 0;
#X connect 12 0 1 1;
#X connect 12 0 5 0;
#X connect 14 0 1 0;
#X connect 14 0 13 0;
#X connect 15 0 17 0;
#X connect 18 0 15 1;
#X connect 18 0 16 0;
#X connect 20 0 15 0;
#X connect 20 0 19 0;
