#N canvas 939 249 450 300 10;
#X obj 123 47 inlet;
#X msg 123 124 get \$1;
#X obj 123 225 s;
#X obj 123 172 h_map ol_state;
#X obj 123 100 t a a;
#X msg 51 112 print;
#X obj 170 209 nbx 5 14 -1e+37 1e+37 0 0 empty empty empty 0 -8 0 10
-262144 -1 -1 25.8305 256;
#X obj 123 74 symbol;
#X connect 0 0 7 0;
#X connect 1 0 3 0;
#X connect 3 0 2 0;
#X connect 3 0 6 0;
#X connect 4 0 1 0;
#X connect 4 1 2 1;
#X connect 5 0 3 0;
#X connect 7 0 4 0;
