#N canvas 269 89 773 446 10;
#X declare -lib pdcontainer;
#X floatatom 95 330 5 0 0 0 - - -;
#X obj 368 300 outlet;
#X obj 55 191 inlet;
#X obj 368 211 iem_receive;
#X msg 55 270 add \$1;
#X obj 2 71 import pdcontainer;
#X obj 447 211 s \$0_set_value;
#X obj 55 217 t b a;
#X obj -42 217 r \$0_set_value;
#X obj 297 211 iem_send;
#X obj 55 305 h_map ol_state;
#X obj 55 244 symbol \$1;
#X msg 368 183 set \$1;
#X obj 368 157 symbol \$1;
#X obj 309 41 inlet label;
#X obj 368 131 initbang;
#X obj 309 97 s \$0_label;
#X obj 291 158 r \$0_label;
#X obj 148 244 r \$0_label;
#X msg 368 272 set \$1;
#X obj 309 69 symbol;
#X msg 161 278 print;
#X connect 2 0 7 0;
#X connect 2 0 9 0;
#X connect 3 0 6 0;
#X connect 3 0 19 0;
#X connect 4 0 10 0;
#X connect 7 0 11 0;
#X connect 7 1 10 1;
#X connect 8 0 7 0;
#X connect 10 1 0 0;
#X connect 11 0 4 0;
#X connect 12 0 3 0;
#X connect 12 0 9 1;
#X connect 13 0 12 0;
#X connect 14 0 20 0;
#X connect 15 0 13 0;
#X connect 17 0 13 0;
#X connect 18 0 11 1;
#X connect 19 0 1 0;
#X connect 20 0 16 0;
#X connect 21 0 10 0;
