#N canvas 717 721 431 262 10;
#X obj 26 105 h_map \$1;
#X obj 26 51 symbol \$2;
#X obj 26 23 inlet dump;
#X msg 26 79 get \$1;
#X obj 26 133 outlet;
#X connect 0 0 4 0;
#X connect 1 0 3 0;
#X connect 2 0 1 0;
#X connect 3 0 0 0;
