#N canvas 88 231 614 353 10;
#X declare -lib mrpeach;
#X obj 48 32 import mrpeach;
#X obj 201 101 nbx 5 14 -1e+37 1e+37 0 1 empty empty empty 0 -8 0 10
-262144 -1 -1 8000 256;
#X msg 201 142 port \$1;
#X obj 201 243 s unpacked_osc;
#X obj 201 189 unpackOSC;
#X obj 256 100 tgl 15 1 empty empty empty 17 7 0 10 -262144 -1 -1 1
1;
#X obj 100 100 cnv 15 100 15 empty \$0_cnv_text OSC.RECEIVE 1 7 0 14
-233017 -66577 0;
#X obj 272 101 cnv 13 155 13 empty \$0_ip_text empty 0 8 0 14 -233017
-66577 0;
#X obj 289 213 route received total from multicast;
#X obj 392 235 l2s;
#X obj 392 279 s \$0_ip_text;
#X msg 392 256 label \$1;
#X obj 289 190 spigot;
#X msg 516 262 label;
#X obj 516 241 loadbang;
#X msg 557 262 0;
#X obj 409 149 sel 0;
#X obj 201 167 udpreceive 8000;
#X connect 1 0 2 0;
#X connect 2 0 17 0;
#X connect 4 0 3 0;
#X connect 5 0 12 1;
#X connect 5 0 16 0;
#X connect 8 2 9 0;
#X connect 9 0 11 0;
#X connect 11 0 10 0;
#X connect 12 0 8 0;
#X connect 13 0 10 0;
#X connect 14 0 13 0;
#X connect 14 0 15 0;
#X connect 15 0 5 0;
#X connect 16 0 13 0;
#X connect 17 0 4 0;
#X connect 17 1 12 0;
#X coords 0 -1 1 1 330 15 2 100 100;
