#N canvas 453 416 408 296 10;
#X obj 101 102 vsl 30 80 0 127 0 0 empty empty empty 0 -9 0 10 -262144
-1 -1 1500 1;
#N canvas 770 204 503 384 forsaver 1;
#X msg 126 101 getsize;
#X floatatom 193 292 5 0 0 0 - - -;
#X msg 115 77 getall;
#X msg 102 52 print;
#X msg 186 73 namespace \$1;
#X obj 153 266 h_vector;
#X obj 153 316 print objeto;
#X msg 79 249 set 0;
#X msg 238 166 resize \$1;
#X msg 238 139 1;
#X obj 79 208 t b f;
#X obj 356 317 outlet;
#X obj 79 182 inlet;
#X obj 356 62 inlet parameter_name;
#X msg 239 249 \$2 \$1;
#X obj 239 225 pack f s;
#X obj 356 93 symbol value;
#X obj 356 289 iem_receive;
#X msg 356 261 set \$2.\$1;
#X obj 287 14 inlet namespace;
#X obj 186 49 symbol name;
#X msg 83 28 getnamespace;
#X obj 356 230 hotpack s s;
#X obj 282 46 t b a;
#X connect 0 0 5 0;
#X connect 2 0 5 0;
#X connect 3 0 5 0;
#X connect 4 0 5 0;
#X connect 5 0 6 0;
#X connect 5 1 1 0;
#X connect 7 0 5 0;
#X connect 8 0 5 0;
#X connect 9 0 8 0;
#X connect 10 0 7 0;
#X connect 10 1 15 0;
#X connect 12 0 10 0;
#X connect 13 0 16 0;
#X connect 14 0 5 1;
#X connect 15 0 14 0;
#X connect 16 0 15 1;
#X connect 16 0 22 0;
#X connect 17 0 11 0;
#X connect 18 0 17 0;
#X connect 19 0 23 0;
#X connect 20 0 4 0;
#X connect 20 0 22 1;
#X connect 21 0 5 0;
#X connect 22 0 18 0;
#X connect 23 0 9 0;
#X connect 23 1 20 0;
#X restore 184 146 pd forsaver;
#X msg 259 101 valor;
#X obj 101 203 outlet;
#X obj 101 67 inlet;
#X obj 229 69 loadbang;
#X obj 194 101 symbol \$1;
#X obj 229 49 bng 15 250 50 0 empty empty empty 17 7 0 10 -262144 -1
-1;
#X connect 0 0 1 0;
#X connect 0 0 3 0;
#X connect 1 0 0 0;
#X connect 2 0 1 2;
#X connect 4 0 0 0;
#X connect 5 0 6 0;
#X connect 5 0 2 0;
#X connect 6 0 1 1;
#X connect 7 0 5 0;
#X coords 0 -1 1 1 32 85 2 100 100;
