#N canvas 139 620 922 324 10;
#X declare -lib pdcontainer;
#N canvas 0 0 450 300 (subpatch) 0;
#X array array 9 float 2;
#X coords 0 1 9 -1 200 140 2 0 0;
#X restore 100 100 graph;
#X obj 325 180 state_io /\$1/data;
#X obj 325 216 s array;
#X obj 325 96 bng 15 250 50 0 empty empty empty 17 7 0 10 -262144 -1
-1;
#X obj 325 119 tabdump array;
#X obj 325 149 list prepend 0;
#X obj 350 95 r state_dump;
#X obj 628 91 loadbang;
#X obj 524 125 symbol;
#X obj 628 136 symbol2list;
#X obj 628 113 symbol \$2;
#X obj 628 160 length;
#X obj 304 63 inlet set;
#X obj 481 63 inlet label;
#X obj 524 92 r objeto3_\$1;
#X obj 424 155 r \$0_label;
#X msg 524 154 /\$1/data;
#X obj 524 177 s \$0_label;
#X msg 628 233 /\$1/data;
#X obj 628 256 s \$0_label;
#X obj 628 183 sel 1;
#X obj 628 209 symbol \$2;
#X connect 1 0 2 0;
#X connect 3 0 4 0;
#X connect 4 0 5 0;
#X connect 5 0 1 0;
#X connect 6 0 4 0;
#X connect 7 0 10 0;
#X connect 8 0 16 0;
#X connect 9 0 11 0;
#X connect 10 0 9 0;
#X connect 11 0 20 0;
#X connect 12 0 2 0;
#X connect 13 0 8 0;
#X connect 14 0 8 0;
#X connect 15 0 1 1;
#X connect 16 0 17 0;
#X connect 18 0 19 0;
#X connect 20 0 21 0;
#X connect 21 0 18 0;
#X coords 0 -1 1 1 200 140 2 100 100;
