#N canvas 1049 415 676 375 10;
#X declare -lib pdcontainer;
#X floatatom 203 302 5 0 0 0 - - -;
#X obj 365 239 outlet;
#X obj 45 156 inlet;
#X obj 365 164 iem_receive;
#X msg 45 260 add \$1;
#X obj 3 8 import pdcontainer;
#X obj 45 207 t b a;
#X obj 267 188 iem_send;
#X obj 163 277 h_map global_state;
#X obj 45 234 symbol \$1;
#X msg 365 136 set \$1;
#X obj 365 110 symbol \$1;
#X obj 273 55 inlet label;
#X obj 365 84 initbang;
#X obj -17 124 r \$0_save_value;
#X obj 426 188 s \$0_save_value;
#X obj 273 84 route label;
#X msg 365 205 set \$1;
#X connect 2 0 7 0;
#X connect 2 0 6 0;
#X connect 3 0 15 0;
#X connect 3 0 17 0;
#X connect 4 0 8 0;
#X connect 6 0 9 0;
#X connect 6 1 8 1;
#X connect 8 1 0 0;
#X connect 9 0 4 0;
#X connect 10 0 3 0;
#X connect 10 0 7 1;
#X connect 11 0 10 0;
#X connect 11 0 9 1;
#X connect 12 0 16 0;
#X connect 13 0 11 0;
#X connect 14 0 6 0;
#X connect 16 0 11 0;
#X connect 17 0 1 0;
