#N canvas 1 87 1345 661 10;
#X declare -lib pdcontainer -lib tof;
#X msg 968 332 print;
#X obj 246 775 s;
#X msg 421 553 clear;
#X obj 968 359 s \$0_multimap_1;
#X msg 375 357 saveXML \$1;
#X msg 423 672 readXML \$1;
#X obj 375 333 symbol;
#X obj 408 309 r \$0_filename;
#X obj 423 647 symbol;
#X obj 456 622 r \$0_filename;
#X obj 423 697 s \$0_multimap_1;
#X obj 421 574 s \$0_multimap_1;
#X text 381 201 Saves the state;
#X text 380 444 Loads the state;
#X text 966 308 Print current state;
#X msg 246 569 keys;
#X msg 246 645 get \$1;
#X obj 246 618 t a a;
#X obj 743 74 r \$0_multimap_1;
#X obj 375 381 s \$0_multimap_1;
#X obj 375 257 t b b;
#X obj 402 280 s state_dump;
#X obj 63 255 bng 15 250 50 0 empty empty empty 17 7 0 10 -262144 -1
-1;
#X obj -46 515 s \$0_filename;
#X text 43 515 Filename for saving;
#X msg 63 366 states;
#X obj 63 311 t b a;
#X obj -46 468 pack s s;
#X msg 90 339 set \$1;
#X obj -46 444 symbol;
#X obj -76 377 t b a;
#X obj 744 38 import pdcontainer tof;
#X text 889 37 tof -> folderpanel;
#X obj 63 282 folderpanel;
#X text 87 253 Select working folder;
#X obj 209 38 bng 20 250 50 0 empty empty Folder -4 -7 0 8 -262144
-1 -1;
#X obj 63 402 l2s;
#X obj -46 492 makesymbol %s/%s;
#X obj 115 367 outlet;
#X obj 699 170 inlet;
#X obj 149 882 print;
#X obj 149 860 pack f s;
#X obj 149 832 spigot;
#X obj 182 809 tgl 15 0 empty empty empty 17 7 0 10 -262144 -1 -1 0
1;
#X text 202 808 verbos load;
#X obj 794 265 s \$0_state_save;
#X obj 741 300 s \$0_state_load;
#X obj 374 472 r \$0_state_load;
#X obj 375 228 r \$0_state_save;
#X obj 97 167 s \$0_state_save;
#X obj 123 144 s \$0_state_load;
#X obj -76 345 makefilename %s.xml;
#X obj -76 311 r \$0_name;
#X symbolatom 7 28 13 0 0 0 - #0_name_symbol -;
#X obj -41 101 s \$0_name;
#X obj -77 222 symbol name;
#X obj -77 197 loadbang;
#X obj -145 345 symbol;
#X obj -145 375 t b s;
#X obj 659 447 s \$0_name_symbol;
#X obj 683 406 symbol;
#X obj 659 383 ftos;
#X obj 659 300 route float;
#X obj 154 41 nbx 4 14 0 1e+37 0 0 empty \$0-time Line.Time 0 -8 0
9 -262144 -1 -1 0 256;
#X obj 7 50 hradio 10 1 0 8 \$0-num empty empty 0 -8 0 10 -262144 -1
-1 0;
#X obj 674 329 r \$0-num;
#X msg 1026 332 clear;
#X obj 654 242 s \$0_dir;
#X obj -145 314 r \$0_dir;
#X obj -77 250 s \$0_name_symbol;
#X obj -77 173 bng 15 250 50 0 empty empty empty 17 7 0 10 -262144
-1 -1;
#X msg 154 -32 set \$1;
#X msg 698 609 getsize;
#X obj 720 664 nbx 5 14 -1e+37 1e+37 0 0 empty empty empty 0 -8 0 10
-262144 -1 -1 0 256;
#X obj 368 834 cup;
#X obj 368 857 ==;
#X obj 368 802 b;
#X obj 368 881 sel 1;
#X obj 403 802 1;
#X obj 771 620 s state_save_toggle;
#X obj 771 594 0;
#X obj 368 925 s state_save_toggle;
#X obj 368 903 1;
#X obj 374 520 t b b b b;
#X obj 679 560 t b b b;
#X obj 7 5 cnv 15 100 20 empty \$0_label_namespace global_space 0 10
0 14 -262144 -66577 0;
#X obj 97 38 bng 20 250 50 0 empty empty Save 0 -7 0 8 -262144 -1 -1
;
#X obj 123 38 bng 20 250 50 0 empty empty Load 0 -7 0 8 -262144 -1
-1;
#X obj 246 672 h_map \$1;
#X obj 698 636 h_map \$1;
#X obj 743 102 h_map \$1;
#X obj 451 -4 loadbang;
#X obj 699 195 route dir name load save time print clear namespace
;
#X obj 578 609 r \$0_map_namespace;
#X obj 187 514 r \$0_map_namespace;
#X obj 624 74 r \$0_map_namespace;
#X obj 995 224 symbol;
#X obj 925 99 purepd/symbol_argument \$1 global_space;
#X obj 925 74 loadbang;
#X obj 451 28 r \$0_namespace;
#X msg 451 60 label \$1;
#X obj 451 138 s \$0_map_namespace;
#X msg 451 117 namespace \$1;
#X obj 451 83 s \$0_label_namespace;
#X obj 925 124 s \$0_namespace;
#X obj 995 248 s \$0_namespace;
#X obj 246 593 h_map \$1;
#X obj 283 714 pack s s;
#X obj 328 690 r \$0_namespace;
#X obj 265 124 r \$0_namespace;
#X obj 250 182 s;
#X obj 209 72 s \$0_folder_select;
#X obj 63 227 r \$0_folder_select;
#X obj 154 -56 iem_receive;
#X obj 154 -109 r \$0_namespace;
#X obj 888 409 r \$0_namespace;
#X obj 873 467 s;
#X msg 261 748 symbol /\$2\$1;
#X msg 265 152 symbol /\$1/line_time;
#X msg 154 -81 set /\$1/line_time;
#X msg 888 437 symbol /\$1/line_time;
#X connect 0 0 3 0;
#X connect 2 0 11 0;
#X connect 4 0 19 0;
#X connect 5 0 10 0;
#X connect 6 0 4 0;
#X connect 7 0 6 1;
#X connect 8 0 5 0;
#X connect 9 0 8 1;
#X connect 15 0 106 0;
#X connect 16 0 88 0;
#X connect 17 0 16 0;
#X connect 17 1 107 0;
#X connect 18 0 90 0;
#X connect 20 0 6 0;
#X connect 20 1 21 0;
#X connect 22 0 33 0;
#X connect 25 0 36 0;
#X connect 26 0 25 0;
#X connect 26 1 28 0;
#X connect 27 0 37 0;
#X connect 28 0 25 0;
#X connect 28 0 38 0;
#X connect 29 0 27 0;
#X connect 30 0 29 0;
#X connect 30 1 27 1;
#X connect 33 0 26 0;
#X connect 35 0 111 0;
#X connect 36 0 29 1;
#X connect 37 0 23 0;
#X connect 39 0 92 0;
#X connect 41 0 40 0;
#X connect 42 0 41 0;
#X connect 43 0 42 1;
#X connect 47 0 83 0;
#X connect 48 0 20 0;
#X connect 51 0 30 0;
#X connect 52 0 51 0;
#X connect 53 0 54 0;
#X connect 55 0 69 0;
#X connect 56 0 55 0;
#X connect 57 0 58 0;
#X connect 58 0 29 0;
#X connect 58 1 29 1;
#X connect 60 0 59 0;
#X connect 61 0 59 0;
#X connect 62 0 61 0;
#X connect 62 1 60 0;
#X connect 63 0 110 0;
#X connect 65 0 61 0;
#X connect 66 0 3 0;
#X connect 68 0 57 0;
#X connect 70 0 56 0;
#X connect 71 0 63 0;
#X connect 72 0 89 0;
#X connect 73 0 75 1;
#X connect 74 0 75 0;
#X connect 75 0 77 0;
#X connect 76 0 74 0;
#X connect 77 0 82 0;
#X connect 78 0 74 0;
#X connect 80 0 79 0;
#X connect 82 0 81 0;
#X connect 83 0 15 0;
#X connect 83 1 8 0;
#X connect 83 2 2 0;
#X connect 83 3 84 0;
#X connect 84 0 78 0;
#X connect 84 1 72 0;
#X connect 84 2 80 0;
#X connect 86 0 49 0;
#X connect 87 0 50 0;
#X connect 88 0 1 0;
#X connect 88 0 42 0;
#X connect 88 0 76 0;
#X connect 89 1 73 0;
#X connect 92 0 67 0;
#X connect 92 1 62 0;
#X connect 92 2 46 0;
#X connect 92 3 45 0;
#X connect 92 4 116 0;
#X connect 92 5 0 0;
#X connect 92 6 66 0;
#X connect 92 7 96 0;
#X connect 93 0 89 0;
#X connect 94 0 88 0;
#X connect 94 0 106 0;
#X connect 95 0 90 0;
#X connect 96 0 105 0;
#X connect 97 0 104 0;
#X connect 98 0 97 0;
#X connect 99 0 100 0;
#X connect 99 0 102 0;
#X connect 100 0 103 0;
#X connect 102 0 101 0;
#X connect 106 0 17 0;
#X connect 107 0 117 0;
#X connect 108 0 107 1;
#X connect 109 0 118 0;
#X connect 112 0 22 0;
#X connect 113 0 71 0;
#X connect 114 0 119 0;
#X connect 115 0 120 0;
#X connect 117 0 1 1;
#X connect 117 0 41 1;
#X connect 118 0 110 1;
#X connect 119 0 113 0;
#X connect 120 0 116 1;
#X coords 0 -1 1 1 240 65 2 0 0;
