#N canvas 788 395 695 301 10;
#X declare -lib pdcontainer;
#X obj 133 37 inlet;
#X msg 133 134 get \$1;
#X obj 133 193 s;
#X obj 133 110 t a a;
#X obj 133 64 symbol;
#X obj 133 162 h_map global_space;
#X obj 134 10 import pdcontainer;
#X obj 333 123 s \$0_namespace;
#X obj 333 97 symbol;
#X msg 18 152 namespace \$1;
#X obj 18 128 r \$0_namespace;
#X obj 333 48 initbang;
#X obj 348 173 pack s s;
#X obj 305 172 t b a;
#X msg 348 204 set \$1\$2;
#X obj 180 255 iem_send;
#X obj 348 242 PRINT;
#X obj 333 73 purepd/symbol_argument \$1 global_space;
#X obj 133 86 t a a;
#X connect 0 0 4 0;
#X connect 1 0 5 0;
#X connect 3 0 1 0;
#X connect 3 1 2 1;
#X connect 4 0 18 0;
#X connect 5 0 2 0;
#X connect 5 0 15 0;
#X connect 8 0 7 0;
#X connect 8 0 12 0;
#X connect 9 0 5 0;
#X connect 10 0 9 0;
#X connect 11 0 17 0;
#X connect 12 0 14 0;
#X connect 13 0 12 0;
#X connect 13 1 12 1;
#X connect 14 0 15 1;
#X connect 14 0 16 0;
#X connect 17 0 8 0;
#X connect 18 0 3 0;
#X connect 18 1 13 0;
