#N canvas 1 87 450 300 10;
#X declare -lib pdcontainer;
#X obj 133 57 inlet;
#X msg 133 134 get \$1;
#X obj 133 193 s;
#X obj 133 110 t a a;
#X obj 133 84 symbol;
#X obj 133 162 h_map global_state;
#X obj 131 18 import pdcontainer;
#X connect 0 0 4 0;
#X connect 1 0 5 0;
#X connect 3 0 1 0;
#X connect 3 1 2 1;
#X connect 4 0 3 0;
#X connect 5 0 2 0;
