#N canvas 1041 435 676 375 10;
#X declare -lib pdcontainer;
#X obj 365 286 outlet;
#X obj 45 156 inlet;
#X obj 365 164 iem_receive;
#X msg 45 260 add \$1;
#X obj 3 8 import pdcontainer;
#X obj 45 207 t b a;
#X obj 267 188 iem_send;
#X obj 45 289 h_map global_space;
#X obj 45 234 symbol \$1;
#X msg 365 136 set \$1;
#X obj 365 110 symbol \$1;
#X obj 273 55 inlet label;
#X obj 365 84 initbang;
#X obj -17 124 r \$0_save_value;
#X obj 273 84 route label;
#X obj 272 225 v \$1;
#X msg 365 226 set \$1;
#X obj 465 235 s \$0_save_value;
#X obj 465 206 spigot;
#X obj 515 185 loadbang;
#X obj 515 205 1;
#X obj 498 159 r state_save_toggle;
#X connect 1 0 5 0;
#X connect 1 0 6 0;
#X connect 1 0 15 0;
#X connect 2 0 16 0;
#X connect 2 0 18 0;
#X connect 3 0 7 0;
#X connect 5 0 8 0;
#X connect 5 1 7 1;
#X connect 8 0 3 0;
#X connect 9 0 2 0;
#X connect 9 0 6 1;
#X connect 10 0 9 0;
#X connect 10 0 8 1;
#X connect 11 0 14 0;
#X connect 12 0 10 0;
#X connect 13 0 5 0;
#X connect 14 0 10 0;
#X connect 16 0 0 0;
#X connect 18 0 17 0;
#X connect 19 0 20 0;
#X connect 20 0 18 1;
#X connect 21 0 18 1;
