#N canvas 820 615 375 392 10;
#X declare -lib pdcontainer;
#X floatatom 94 321 5 0 0 0 - - -;
#X obj 179 357 outlet;
#X obj 55 161 inlet;
#X obj 13 18 import pdcontainer;
#X obj 54 296 h_map global_state;
#X obj 55 244 symbol \$1;
#X msg 182 192 set \$1;
#X obj 182 166 symbol \$1;
#X obj 128 108 inlet label;
#X obj 182 140 initbang;
#X obj 55 210 route bang;
#X msg 55 270 get \$1;
#X msg 12 206 print;
#X obj 182 223 iem_receive;
#X connect 2 0 10 0;
#X connect 4 0 1 0;
#X connect 4 1 0 0;
#X connect 5 0 11 0;
#X connect 6 0 13 0;
#X connect 7 0 6 0;
#X connect 7 0 5 1;
#X connect 8 0 7 0;
#X connect 9 0 7 0;
#X connect 10 0 5 0;
#X connect 11 0 4 0;
#X connect 12 0 4 0;
#X connect 13 0 1 0;
