#N canvas 660 260 513 302 10;
#X obj 114 140 line;
#X obj 114 115 pack f f;
#X obj 114 165 outlet;
#X obj 20 -37 symbol \$1;
#X obj 114 -64 purepd/symbol_argument \$2 global_space;
#X obj 114 48 iem_receive;
#X obj 114 -40 symbol;
#X obj 114 -7 pack s s;
#X obj 71 -8 t b a;
#X obj 20 -100 initbang;
#X obj 215 54 iem_receive;
#X obj 34 48 iem_receive;
#X msg 34 24 set \$2;
#X msg 114 24 set /\$1\$2;
#X msg 215 29 set /\$1/line_time;
#X connect 0 0 2 0;
#X connect 1 0 0 0;
#X connect 3 0 8 0;
#X connect 4 0 6 0;
#X connect 4 0 14 0;
#X connect 5 0 1 0;
#X connect 6 0 7 0;
#X connect 7 0 13 0;
#X connect 7 0 12 0;
#X connect 8 0 7 0;
#X connect 8 1 7 1;
#X connect 9 0 3 0;
#X connect 9 0 4 0;
#X connect 10 0 1 1;
#X connect 11 0 1 0;
#X connect 12 0 11 0;
#X connect 13 0 5 0;
#X connect 14 0 10 0;
