#N canvas 166 498 631 342 10;
#X declare -lib pdcontainer;
#X msg 149 118 getsize;
#X floatatom 203 302 5 0 0 0 - - -;
#X msg 121 61 print;
#X obj 365 268 outlet;
#X obj 45 151 inlet;
#X obj 365 164 iem_receive;
#X msg 102 37 getnamespace;
#X msg 45 260 add \$1;
#X msg 140 84 keys;
#X obj 3 8 import pdcontainer;
#X obj 45 207 t b a;
#X obj 273 173 iem_send;
#X obj 163 277 h_map global_state;
#X obj 45 234 symbol \$1;
#X msg 365 136 set \$1;
#X obj 365 110 symbol \$1;
#X obj 273 55 inlet label;
#X obj 365 84 initbang;
#X obj 365 198 route bang;
#X obj -12 176 route bang;
#X obj -17 124 r \$0_save_value;
#X obj 450 240 s \$0_save_value;
#X connect 0 0 12 0;
#X connect 2 0 12 0;
#X connect 4 0 11 0;
#X connect 4 0 19 0;
#X connect 5 0 18 0;
#X connect 6 0 12 0;
#X connect 7 0 12 0;
#X connect 8 0 12 0;
#X connect 10 0 13 0;
#X connect 10 1 12 1;
#X connect 12 1 1 0;
#X connect 13 0 7 0;
#X connect 14 0 5 0;
#X connect 14 0 11 1;
#X connect 15 0 14 0;
#X connect 15 0 13 1;
#X connect 16 0 15 0;
#X connect 17 0 15 0;
#X connect 18 0 3 0;
#X connect 18 1 21 0;
#X connect 18 1 3 0;
#X connect 19 0 3 0;
#X connect 19 1 10 0;
#X connect 20 0 10 0;
