#N canvas 257 445 576 530 10;
#X declare -lib pdcontainer;
#X obj 182 351 outlet;
#X obj 55 161 inlet;
#X obj 13 18 import pdcontainer;
#X obj 55 244 symbol \$1;
#X obj 55 210 route bang;
#X msg 55 270 get \$1;
#X obj 271 234 iem_receive;
#X msg 271 210 set \$1;
#X obj 271 149 symbol \$1;
#X obj 271 103 initbang;
#X obj 365 122 purepd/symbol_argument \$2 global_space;
#X obj 365 234 iem_receive;
#X obj 365 146 symbol;
#X obj 365 179 pack s s;
#X obj 322 178 t b a;
#X msg 365 210 set \$1\$2;
#X obj 185 30 inlet label;
#X obj 185 59 route label namespace;
#X msg -50 272 namespace \$1;
#X obj -50 248 r \$0_namespace;
#X obj 55 297 h_map global_space;
#X obj 431 175 s \$0_namespace;
#X connect 1 0 4 0;
#X connect 3 0 5 0;
#X connect 4 0 3 0;
#X connect 5 0 20 0;
#X connect 6 0 0 0;
#X connect 7 0 6 0;
#X connect 8 0 7 0;
#X connect 8 0 14 0;
#X connect 8 0 3 1;
#X connect 9 0 8 0;
#X connect 9 0 10 0;
#X connect 10 0 12 0;
#X connect 11 0 0 0;
#X connect 12 0 13 0;
#X connect 12 0 21 0;
#X connect 13 0 15 0;
#X connect 14 0 13 0;
#X connect 14 1 13 1;
#X connect 15 0 11 0;
#X connect 16 0 17 0;
#X connect 17 0 8 0;
#X connect 17 1 12 0;
#X connect 18 0 20 0;
#X connect 19 0 18 0;
#X connect 20 0 0 0;
