#N canvas 548 295 809 424 10;
#X declare -lib pdcontainer;
#X obj 395 287 line;
#X obj 395 263 pack f f;
#X obj 457 264 r state_line_time;
#X obj 395 345 outlet;
#X obj 211 154 inlet;
#X obj 395 174 iem_receive;
#X msg 211 233 add \$1;
#X obj 154 40 import pdcontainer;
#X obj 211 180 t b a;
#X obj 159 127 r \$0_set_value;
#X obj 211 262 h_map global_space;
#X obj 211 207 symbol \$1;
#X msg 395 151 set \$1;
#X obj 395 90 symbol \$1;
#X obj 360 -24 inlet label;
#X obj 395 44 initbang;
#X obj 610 278 s \$0_save_value;
#X obj 610 249 spigot;
#X obj 660 228 loadbang;
#X obj 660 248 1;
#X obj 643 202 r state_save_toggle;
#X msg 18 192 namespace \$1;
#X obj 360 5 route label namespace;
#X obj 489 63 purepd/symbol_argument \$2 global_space;
#X obj 578 116 s \$0_namespace;
#X obj 18 168 r \$0_namespace;
#X obj 489 175 iem_receive;
#X obj 489 87 symbol;
#X obj 489 120 pack s s;
#X obj 446 119 t b a;
#X obj 395 224 t a;
#X msg 395 320 set \$1;
#X obj 321 202 iem_send;
#X obj 319 163 iem_send;
#X msg 489 151 set /\$1\$2;
#X connect 0 0 31 0;
#X connect 1 0 0 0;
#X connect 2 0 1 1;
#X connect 4 0 8 0;
#X connect 4 0 32 0;
#X connect 4 0 33 0;
#X connect 5 0 30 0;
#X connect 6 0 10 0;
#X connect 8 0 11 0;
#X connect 8 1 10 1;
#X connect 9 0 8 0;
#X connect 11 0 6 0;
#X connect 12 0 5 0;
#X connect 12 0 33 1;
#X connect 13 0 11 1;
#X connect 13 0 12 0;
#X connect 13 0 29 0;
#X connect 14 0 22 0;
#X connect 15 0 13 0;
#X connect 15 0 23 0;
#X connect 17 0 16 0;
#X connect 18 0 19 0;
#X connect 19 0 17 1;
#X connect 20 0 17 1;
#X connect 21 0 10 0;
#X connect 22 0 13 0;
#X connect 22 1 27 0;
#X connect 23 0 27 0;
#X connect 25 0 21 0;
#X connect 26 0 30 0;
#X connect 27 0 24 0;
#X connect 27 0 28 0;
#X connect 28 0 34 0;
#X connect 29 0 28 0;
#X connect 29 1 28 1;
#X connect 30 0 17 0;
#X connect 30 0 1 0;
#X connect 31 0 3 0;
#X connect 34 0 26 0;
#X connect 34 0 32 1;
