#N canvas 943 318 326 251 10;
#X obj 96 -4 r unpacked_osc;
#X obj 96 56 unpack s f;
#X obj 96 125 f;
#X obj 96 84 t b a;
#X obj 96 158 s;
#X obj 169 59 route s;
#X obj 96 26 t a a;
#X connect 0 0 6 0;
#X connect 1 0 3 0;
#X connect 2 0 4 0;
#X connect 3 0 2 0;
#X connect 3 1 4 1;
#X connect 5 0 2 1;
#X connect 6 0 1 0;
#X connect 6 1 5 0;
