#N canvas 1093 142 554 514 10;
#X declare -lib pdcontainer -lib tof;
#X declare -lib pdcontainer;
#X declare -lib pdcontainer;
#X declare -lib pdcontainer;
#X declare -lib pdcontainer;
#X declare -lib pdcontainer;
#X declare -lib pdcontainer;
#X declare -lib pdcontainer;
#X declare -lib pdcontainer -lib tof;
#X declare -lib pdcontainer;
#X declare -lib pdcontainer -lib tof;
#X declare -lib pdcontainer;
#X declare -lib pdcontainer;
#X declare -lib pdcontainer;
#X declare -lib pdcontainer;
#X declare -lib pdcontainer;
#X declare -lib pdcontainer -lib tof;
#X declare -lib pdcontainer;
#X declare -lib pdcontainer;
#X declare -lib pdcontainer;
#X declare -lib pdcontainer;
#X declare -lib pdcontainer -lib tof;
#X declare -lib pdcontainer;
#X declare -lib pdcontainer;
#X declare -lib pdcontainer;
#X declare -lib pdcontainer;
#X declare -lib pdcontainer -lib tof;
#X declare -lib pdcontainer;
#X declare -lib pdcontainer;
#X declare -lib pdcontainer -lib tof;
#X declare -path ../osclearn;
#X declare -lib mrpeach;
#X declare -lib pdcontainer;
#X declare -lib pdcontainer;
#X declare -lib pdcontainer;
#X declare -lib pdcontainer;
#X declare -lib pdcontainer;
#X obj 0 -80 cnv 15 552 40 empty \$0-pddp.cnv.header State_Manager
3 12 0 18 -204280 -1 0;
#X text 11 -57 save and load parameters states in xml files;
#N canvas 473 107 537 661 simple 1;
#X obj 9 53 nbx 5 14 -1e+37 1e+37 0 0 empty empty empty 0 -8 0 10 -262144
-1 -1 0 256;
#X obj 11 85 loadbang;
#X text 232 51 1 change it;
#X text 267 152 2 save it;
#X text 340 152 4 load it;
#X text 319 51 3 change it again;
#X text 13 15 You can save floats \, symbols and list;
#X symbolatom 163 362 10 0 0 0 - - -;
#X text 14 269 5 Press the list message and enter a text in the symbol
obj \, then save it and load it again;
#X symbolatom 163 313 10 0 0 0 - - -;
#X obj 13 388 s list;
#X obj 13 365 prepend 0;
#X msg 13 312 1 2 6 4 5 3;
#X msg 11 113 dir xmls \, name 0;
#N canvas 1 82 450 300 (subpatch) 0;
#X array list 6 float 2;
#X coords 0 10 6 0 200 140 1 0 0;
#X restore 14 443 graph;
#X obj 11 144 state_manager;
#X obj 13 338 state_io_noset /list;
#X obj 163 336 state_io_noset /sym;
#X obj 76 51 state_io_set /value;
#X connect 0 0 18 0;
#X connect 1 0 13 0;
#X connect 9 0 17 0;
#X connect 11 0 10 0;
#X connect 12 0 16 0;
#X connect 13 0 15 0;
#X connect 16 0 11 0;
#X connect 17 0 7 0;
#X connect 18 0 0 0;
#X restore 15 34 pd simple example;
#N canvas 1014 371 609 351 no 0;
#X obj 34 105 hsl 128 15 0 127 0 0 empty empty empty -2 -8 0 10 -262144
-1 -1 0 1;
#X obj 28 -74 s /value;
#X obj 31 -101 hsl 128 15 0 127 0 0 empty empty empty -2 -8 0 10 -262144
-1 -1 0 1;
#X msg 27 0 62;
#X msg 177 0 65;
#X text 23 -154 The state_io_noset object does not use the set label
in its first outlet.;
#X text 21 34 To prevent a ininite loop this object does not send to
the parameter label;
#X text 216 78 Changing this not sends the values over the others;
#X obj 177 -30 state_io_noset /value;
#X obj 70 79 state_io_noset /value;
#X obj 27 -30 state_io_set /value;
#X connect 0 0 9 0;
#X connect 2 0 1 0;
#X connect 8 0 4 0;
#X connect 9 0 0 0;
#X connect 10 0 3 0;
#X restore 16 97 pd no set;
#N canvas 817 606 548 351 changing 0;
#X obj 24 -15 nbx 5 14 -1e+37 1e+37 0 0 empty empty empty 0 -8 0 10
-262144 -1 -1 0 256;
#X obj 26 -80 hsl 128 15 0 127 0 0 empty empty empty -2 -8 0 10 -262144
-1 -1 0 1;
#X obj 233 -14 nbx 5 14 -1e+37 1e+37 0 0 empty empty empty 0 -8 0 10
-262144 -1 -1 0 256;
#X obj 24 -46 r /foo;
#X msg 190 -105 label /bar;
#X obj 233 -45 r /bar;
#X msg 190 -84 label /foo;
#X text 19 -174 The state_io_set parameter label can be changed.;
#X text 24 -132 1 move the slider;
#X text 270 -108 2 change the label;
#X text 145 -133 3 move it again;
#X text 270 -85 4 change the label back;
#X obj 57 -105 state_io_set /foo;
#X connect 1 0 12 0;
#X connect 3 0 0 0;
#X connect 4 0 12 1;
#X connect 5 0 2 0;
#X connect 6 0 12 1;
#X connect 12 0 1 0;
#X restore 16 128 pd changing labels;
#N canvas 445 434 574 303 state 0;
#X text 129 -149 set directory to store files;
#X msg 34 -122 name 0;
#X text 131 -114 state name;
#X msg 44 -99 name state1;
#X msg 62 -42 load;
#X msg 78 -17 save;
#X msg 91 15 print;
#X msg 101 43 clear;
#X text 138 11 prints all data in the state;
#X text 149 43 clears all data in the state;
#X msg 21 -147 dir xmls;
#X msg 55 -75 time 200;
#X text 127 -73 set the interpolation time;
#X obj 21 74 state_manager;
#X connect 1 0 13 0;
#X connect 3 0 13 0;
#X connect 4 0 13 0;
#X connect 5 0 13 0;
#X connect 6 0 13 0;
#X connect 7 0 13 0;
#X connect 10 0 13 0;
#X connect 11 0 13 0;
#X restore 16 294 pd state manager options;
#N canvas 742 267 540 430 line 0;
#X obj 24 -244 nbx 5 14 -1e+37 1e+37 0 0 empty empty empty 0 -8 0 10
-262144 -1 -1 0 256;
#X obj 23 -209 loadbang;
#X obj 24 -74 r /value;
#X obj 24 -50 nbx 5 14 -1e+37 1e+37 0 0 empty empty empty 0 -8 0 10
-262144 -1 -1 0 256;
#X obj 23 -1 nbx 5 14 -1e+37 1e+37 0 0 empty empty empty 0 -8 0 10
-262144 -1 -1 0 256;
#X text 19 -300 States could be interlpolated between one an another
with line objects. First set the time in the state_manage and then
press load.;
#X text 97 -54 this receives inmidiatly;
#X obj 23 60 s /value;
#X obj 26 38 hsl 128 15 0 127 0 0 empty empty empty -2 -8 0 10 -262144
-1 -1 0 1;
#X text 176 35 2 the line keeps working until it is set back to 0;
#X text 150 -25 this object outputs the interpolated data;
#X msg 23 -181 dir xmls \, name 0;
#X text 275 -138 1 change the line time (ms) and press load;
#X obj 89 -243 state_io_set_line /value;
#X obj 23 -25 state_r_line /value;
#X obj 23 -150 state_manager;
#X connect 0 0 13 0;
#X connect 1 0 11 0;
#X connect 2 0 3 0;
#X connect 8 0 7 0;
#X connect 11 0 15 0;
#X connect 13 0 0 0;
#X connect 14 0 4 0;
#X restore 16 163 pd line interpolation;
#X text 15 -26 This colleaction of object allows to load and save states
and comunicate objects. It relays on the pdcontainer's h_map object.
;
#N canvas 435 512 762 177 transmit 0;
#X msg 36 103 /value;
#X obj 146 105 r /value;
#X obj 146 133 nbx 5 14 -1e+37 1e+37 0 0 empty empty empty 0 -8 0 10
-262144 -1 -1 0 256;
#X msg 98 102 0;
#X obj 36 71 t b b;
#X obj 36 51 bng 15 250 50 0 empty empty empty 17 7 0 10 -262144 -1
-1;
#X msg 494 99 /value;
#X obj 634 129 nbx 5 14 -1e+37 1e+37 0 0 empty empty empty 0 -8 0 10
-262144 -1 -1 0 256;
#X msg 556 98 0;
#X obj 494 67 t b b;
#X obj 494 47 bng 15 250 50 0 empty empty empty 17 7 0 10 -262144 -1
-1;
#X obj 580 20 nbx 5 14 -1e+37 1e+37 0 0 empty empty empty 0 -8 0 10
-262144 -1 -1 0 256;
#X obj 634 101 r TWO/value;
#X msg 237 100 /value;
#X obj 377 130 nbx 5 14 -1e+37 1e+37 0 0 empty empty empty 0 -8 0 10
-262144 -1 -1 0 256;
#X msg 299 99 0;
#X obj 237 68 t b b;
#X obj 237 48 bng 15 250 50 0 empty empty empty 17 7 0 10 -262144 -1
-1;
#X obj 323 21 nbx 5 14 -1e+37 1e+37 0 0 empty empty empty 0 -8 0 10
-262144 -1 -1 0 256;
#X obj 377 102 r ONE/value;
#X obj 237 130 state_transmit ONE;
#X obj 36 133 state_transmit;
#X obj 494 129 state_transmit TWO;
#X obj 580 39 state_io_set /value TWO;
#X obj 323 40 state_io_set /value ONE;
#X connect 0 0 21 0;
#X connect 1 0 2 0;
#X connect 3 0 2 0;
#X connect 4 0 0 0;
#X connect 4 1 3 0;
#X connect 5 0 4 0;
#X connect 6 0 22 0;
#X connect 8 0 7 0;
#X connect 9 0 6 0;
#X connect 9 1 8 0;
#X connect 10 0 9 0;
#X connect 11 0 23 0;
#X connect 12 0 7 0;
#X connect 13 0 20 0;
#X connect 15 0 14 0;
#X connect 16 0 13 0;
#X connect 16 1 15 0;
#X connect 17 0 16 0;
#X connect 18 0 24 0;
#X connect 19 0 14 0;
#X connect 23 0 11 0;
#X connect 24 0 18 0;
#X restore 16 230 pd transmit;
#N canvas 893 294 936 344 namespace 0;
#X obj 107 -41 .state_manager OSC1;
#X msg 37 64 dir xmls;
#X obj 339 235 nbx 5 14 -1e+37 1e+37 0 0 empty empty empty 0 -8 0 10
-262144 -1 -1 0 256;
#X obj 152 236 nbx 5 14 -1e+37 1e+37 0 0 empty empty empty 0 -8 0 10
-262144 -1 -1 0 256;
#X obj 37 39 loadbang;
#X obj 339 256 bng 15 250 50 0 empty empty empty 17 7 0 10 -262144
-1 -1;
#X obj 152 259 bng 15 250 50 0 empty empty empty 17 7 0 10 -262144
-1 -1;
#X obj 3 233 nbx 5 14 -1e+37 1e+37 0 0 empty empty empty 0 -8 0 10
-262144 -1 -1 0 256;
#X obj 3 255 bng 15 250 50 0 empty empty empty 17 7 0 10 -262144 -1
-1;
#X obj 486 43 nbx 5 14 -1e+37 1e+37 0 0 empty empty empty 0 -8 0 10
-262144 -1 -1 0 256;
#X obj 487 86 nbx 5 14 -1e+37 1e+37 0 0 empty empty empty 0 -8 0 10
-262144 -1 -1 0 256;
#X obj 487 107 s /value;
#X obj 485 1 nbx 5 14 -1e+37 1e+37 0 0 empty empty empty 0 -8 0 10
-262144 -1 -1 0 256;
#X text 242 -42 The state manager could be initialized with a Namespace
;
#X text 153 176 Second argument in state_io objects will assign the
namespace;
#X text 558 105 the label without the namespace acts globally;
#X text 296 15 Set namespace and load;
#X text 578 19 the labels have the namespace prepended to choose the
namespace to send;
#X obj 110 94 state_manager OSC1;
#X obj 485 21 s /ONE/value;
#X obj 486 64 s /TWO/value;
#X msg 110 17 namespace ONE \, name 0 \, load;
#X msg 110 42 namespace TWO \, name 0 \, load;
#X msg 37 92 print;
#X obj 3 212 state_io_noset /value;
#X obj 152 210 state_io_noset /value ONE;
#X obj 339 210 state_io_noset /value TWO;
#X obj 519 232 nbx 5 14 -1e+37 1e+37 0 0 empty empty empty 0 -8 0 10
-262144 -1 -1 0 256;
#X obj 519 210 state_io_set /value;
#X obj 519 191 nbx 5 14 -1e+37 1e+37 0 0 empty empty empty 0 -8 0 10
-262144 -1 -1 0 256;
#X connect 1 0 18 0;
#X connect 2 0 5 0;
#X connect 3 0 6 0;
#X connect 4 0 1 0;
#X connect 7 0 8 0;
#X connect 9 0 20 0;
#X connect 10 0 11 0;
#X connect 12 0 19 0;
#X connect 21 0 18 0;
#X connect 22 0 18 0;
#X connect 23 0 18 0;
#X connect 24 0 7 0;
#X connect 25 0 3 0;
#X connect 26 0 2 0;
#X connect 28 0 27 0;
#X connect 29 0 28 0;
#X restore 16 261 pd namespace;
#N canvas 878 441 850 518 auto 0;
#X obj 48 63 nbx 5 14 -1e+37 1e+37 0 0 empty empty empty 0 -8 0 10
-262144 -1 -1 0 256;
#X obj 22 95 vsl 15 128 0 127 0 0 empty empty empty 0 -9 0 10 -262144
-1 -1 0 1;
#X obj 260 138 hsl 128 15 0 127 0 0 empty empty empty -2 -8 0 10 -262144
-1 -1 0 1;
#X obj 261 179 hsl 128 15 0 127 0 0 empty empty empty -2 -8 0 10 -262144
-1 -1 0 1;
#X obj 18 329 loadbang;
#X text 11 -7 All the objects are comunicated. Chages are sent over
the parameter label used;
#X text 149 35 1 changing this affects the other state_io_set with
the same parameter label;
#X text 399 177 3 And you can send;
#X text 274 396 4 If you load a state \, the receive object will catch
it.;
#X msg 18 357 dir xmls \, name 0;
#X text 400 135 2 You can also receive with the namespace and the label
;
#X obj 262 279 hsl 128 15 0 127 0 0 empty empty empty -2 -8 0 10 -262144
-1 -1 0 1;
#X obj 262 310 hsl 128 15 0 127 0 0 empty empty empty -2 -8 0 10 -262144
-1 -1 0 1;
#X obj 259 253 r /value;
#X obj 259 331 s /value;
#X obj 18 388 state_manager;
#X obj 15 36 state_io_set /value;
#X obj 59 151 state_io_set /value;
#X obj 258 200 s /global_space/value;
#X obj 257 112 r /global_space/value;
#X connect 0 0 16 0;
#X connect 1 0 17 0;
#X connect 3 0 18 0;
#X connect 4 0 9 0;
#X connect 9 0 15 0;
#X connect 12 0 14 0;
#X connect 13 0 11 0;
#X connect 16 0 0 0;
#X connect 17 0 1 0;
#X connect 19 0 2 0;
#X restore 15 65 pd auto sends and receives;
#N canvas 406 442 416 401 single 0;
#N canvas 1056 566 592 300 knob 0;
#X obj 102 102 knob 60 60 0 127 0 0 empty empty empty 0 -8 0 8 -262144
-1 -1 1440 1;
#X obj 342 28 inlet;
#X obj 342 75 makesymbol %s/value;
#X obj 342 54 symbol;
#X obj 342 97 prepend label;
#X obj 231 36 t b a;
#X msg 194 96 set \$1;
#X obj 194 72 state_io_get;
#X obj 201 122 state_io_set /gain/value;
#X connect 0 0 8 0;
#X connect 1 0 3 0;
#X connect 2 0 4 0;
#X connect 3 0 2 0;
#X connect 4 0 5 0;
#X connect 4 0 8 1;
#X connect 5 0 7 0;
#X connect 5 1 7 1;
#X connect 6 0 0 0;
#X connect 7 0 6 0;
#X connect 8 0 0 0;
#X coords 0 -1 1 1 65 65 2 100 100;
#X restore 102 75 pd knob;
#X msg 19 28 /gain;
#X msg 166 28 /lfo/freq;
#N canvas 880 419 451 451 audio 0;
#X obj 151 54 phasor~;
#X obj 222 93 maxlib/scale 0 127 0 127;
#X obj 222 117 mtof;
#X obj 56 157 lp2~ 1000 0.7 100;
#X obj 151 1 maxlib/scale 0 127 0 127;
#X obj 151 25 mtof;
#X obj 57 68 osc~;
#X obj -18 6 mtof;
#X obj -18 29 nbx 5 14 -1e+37 1e+37 0 0 empty empty empty 0 -8 0 10
-262144 -1 -1 0 256;
#X obj 56 128 *~;
#X obj 57 96 +~ 1;
#X obj 203 279 line~;
#X obj 203 208 maxlib/scale 0 127 0 127;
#X obj 203 235 dbtorms;
#X msg 203 258 \$1 100;
#X obj 57 298 *~;
#X obj 57 326 dac~;
#X obj 209 42 nbx 5 14 -1e+37 1e+37 0 0 empty empty empty 0 -8 0 10
-262144 -1 -1 0 256;
#X obj -18 -17 maxlib/scale 0 127 -70 20;
#X obj 222 69 state_r_line /lowpass/freq/value;
#X obj 151 -23 state_r_line /osc/freq/value;
#X obj -18 -41 state_r_line /lfo/freq/value;
#X obj 203 184 state_r_line /gain/value;
#X connect 0 0 9 1;
#X connect 1 0 2 0;
#X connect 2 0 3 1;
#X connect 3 0 15 0;
#X connect 4 0 5 0;
#X connect 5 0 0 0;
#X connect 5 0 17 0;
#X connect 6 0 10 0;
#X connect 7 0 8 0;
#X connect 8 0 6 0;
#X connect 9 0 3 0;
#X connect 10 0 9 0;
#X connect 11 0 15 1;
#X connect 12 0 13 0;
#X connect 13 0 14 0;
#X connect 14 0 11 0;
#X connect 15 0 16 0;
#X connect 15 0 16 1;
#X connect 18 0 7 0;
#X connect 19 0 1 0;
#X connect 20 0 4 0;
#X connect 21 0 18 0;
#X connect 22 0 12 0;
#X restore 294 343 pd audio;
#X msg 69 28 /lowpass/freq;
#X msg 241 29 /osc/freq;
#X obj 15 170 loadbang;
#X msg 15 198 dir xmls \, name audio0;
#X msg 27 240 name audio1 \, save;
#X msg 26 218 name audio0 \, save;
#X msg 32 262 time 10000 \, name audio1 \, load \, time 0;
#X msg 32 282 time 5000 \, name audio0 \, load \, time 0;
#X obj 15 319 state_manager;
#X connect 1 0 0 0;
#X connect 2 0 0 0;
#X connect 4 0 0 0;
#X connect 5 0 0 0;
#X connect 6 0 7 0;
#X connect 7 0 12 0;
#X connect 8 0 12 0;
#X connect 9 0 12 0;
#X connect 10 0 12 0;
#X connect 11 0 12 0;
#X restore 16 328 pd single synth example;
#N canvas 415 163 502 498 double 0;
#X msg 98 29 /lowpass/freq;
#X msg 279 28 /osc/freq;
#X obj 15 170 loadbang;
#X msg 15 198 dir xmls \, name audio0;
#X obj 295 343 synthlfo ONE;
#X msg 48 29 /gain;
#X msg 195 29 /lfo/freq;
#X msg -12 0 namespace ONE;
#N canvas 611 444 644 280 knob 0;
#X obj 102 102 knob 60 60 0 127 0 0 empty empty empty 0 -8 0 8 -262144
-1 -1 1440 1;
#X obj 382 -2 inlet;
#X obj 382 75 makesymbol %s/value;
#X obj 382 52 symbol;
#X obj 382 97 prepend label;
#X obj 231 36 t b a;
#X msg 194 96 set \$1;
#X obj 476 98 prepend namespace;
#X obj 382 24 route namespace;
#X obj 194 72 state_io_get /gain/value;
#X obj 200 123 state_io_set /gain/value;
#X connect 0 0 10 0;
#X connect 1 0 8 0;
#X connect 2 0 4 0;
#X connect 3 0 2 0;
#X connect 4 0 5 0;
#X connect 4 0 10 1;
#X connect 5 0 9 0;
#X connect 5 1 9 1;
#X connect 6 0 0 0;
#X connect 7 0 9 1;
#X connect 7 0 10 1;
#X connect 8 0 7 0;
#X connect 8 1 3 0;
#X connect 9 0 6 0;
#X connect 10 0 0 0;
#X coords 0 -1 1 1 65 65 2 100 100;
#X restore 28 73 pd knob;
#X obj 295 371 synthlfo TWO;
#X msg -13 -25 namespace TWO;
#X msg 27 219 name audio0 \, save;
#X msg 27 240 name audio1 \, save;
#X msg 32 260 time 10000 \, namespace ONE \, name audio1 \, load \,
time 0;
#X msg 32 282 time 5000 \, namespace TWO \, name audio0 \, load \,
time 0;
#X obj 15 319 state_manager;
#X connect 0 0 8 0;
#X connect 1 0 8 0;
#X connect 2 0 3 0;
#X connect 3 0 15 0;
#X connect 5 0 8 0;
#X connect 6 0 8 0;
#X connect 7 0 8 0;
#X connect 10 0 8 0;
#X connect 11 0 15 0;
#X connect 12 0 15 0;
#X connect 13 0 15 0;
#X connect 14 0 15 0;
#X restore 16 361 pd double synth example;
#N canvas 732 433 765 335 osc 0;
#X obj 26 -53 path ../osclearn;
#X obj 24 134 osclearn_receiver;
#X obj 27 84 udpsend;
#X msg -124 51 connect 127.0.0.1 8000;
#X obj 27 -6 nbx 5 14 -1e+37 1e+37 0 0 empty empty empty 0 -8 0 10
-262144 -1 -1 31 256;
#X obj 27 50 packOSC;
#X msg 27 17 /gain/value \$1;
#X obj 27 251 nbx 5 14 -1e+37 1e+37 0 0 empty empty empty 0 -8 0 10
-262144 -1 -1 31 256;
#X obj 26 180 state_osc_receiver;
#X obj 211 250 nbx 5 14 -1e+37 1e+37 0 0 empty empty empty 0 -8 0 10
-262144 -1 -1 17 256;
#X obj 161 -7 nbx 5 14 -1e+37 1e+37 0 0 empty empty empty 0 -8 0 10
-262144 -1 -1 17 256;
#X msg 161 16 /ONE/gain/value \$1;
#X obj -124 26 loadbang;
#X obj 322 -5 nbx 5 14 -1e+37 1e+37 0 0 empty empty empty 0 -8 0 10
-262144 -1 -1 6 256;
#X msg 402 247 12 3 6;
#X msg 322 17 /list 12 3 \$1;
#X obj 211 220 state_io_set /gain/value ONE;
#X obj 27 221 state_io_set /gain/value;
#X obj 402 220 state_io_set /list;
#X connect 3 0 2 0;
#X connect 4 0 6 0;
#X connect 5 0 2 0;
#X connect 6 0 5 0;
#X connect 10 0 11 0;
#X connect 11 0 5 0;
#X connect 12 0 3 0;
#X connect 13 0 15 0;
#X connect 15 0 5 0;
#X connect 16 0 9 0;
#X connect 17 0 7 0;
#X connect 18 0 14 0;
#X restore 17 395 pd osc;
#N canvas 434 456 537 263 getting 0;
#X obj 28 163 nbx 5 14 -1e+37 1e+37 0 0 empty empty empty 0 -8 0 10
-262144 -1 -1 0 256;
#X obj 28 113 bng 15 250 50 0 empty empty empty 17 7 0 10 -262144 -1
-1;
#X text 27 17 With the state_io_get object you can request the value
with a bang (similar to the value object);
#X obj 28 136 state_io_get /value;
#X msg 167 119 label /foo;
#X msg 166 141 label /value;
#X obj 27 71 nbx 5 14 -1e+37 1e+37 0 0 empty empty empty 0 -8 0 10
-262144 -1 -1 0 256;
#X obj 94 69 state_io_set /foo;
#X connect 1 0 3 0;
#X connect 3 0 0 0;
#X connect 4 0 3 1;
#X connect 5 0 3 1;
#X connect 6 0 7 0;
#X connect 7 0 6 0;
#X restore 16 196 pd getting data;
