#N canvas 482 21 1170 1006 10;
#X declare -lib pdcontainer -lib tof;
#X msg 968 311 print;
#X obj 286 754 s;
#X msg 525 542 clear;
#X obj 968 338 s \$0_multimap_1;
#X msg 375 336 saveXML \$1;
#X msg 430 652 readXML \$1;
#X obj 375 312 symbol;
#X obj 408 288 r \$0_filename;
#X obj 430 627 symbol;
#X obj 463 602 r \$0_filename;
#X obj 430 677 s \$0_multimap_1;
#X obj 525 563 s \$0_multimap_1;
#X text 381 180 Saves the state;
#X text 380 423 Loads the state;
#X text 966 287 Print current state;
#X obj 926 488 h_map global_state;
#X obj 286 612 h_map global_state;
#X msg 286 588 keys;
#X msg 286 664 get \$1;
#X msg 301 727 symbol \$1;
#X obj 286 637 t a a;
#X obj 926 460 r \$0_multimap_1;
#X obj 375 360 s \$0_multimap_1;
#X obj 375 236 t b b;
#X obj 402 259 s state_dump;
#X obj 63 234 bng 15 250 50 0 empty empty empty 17 7 0 10 -262144 -1
-1;
#X obj -46 494 s \$0_filename;
#X text 43 494 Filename for saving;
#X msg 63 345 states;
#X obj 63 290 t b a;
#X obj -46 447 pack s s;
#X msg 90 318 set \$1;
#X obj -46 423 symbol;
#X obj -76 356 t b a;
#X obj 744 17 import pdcontainer tof;
#X text 889 16 tof -> folderpanel;
#X obj 63 261 folderpanel;
#X text 87 232 Select working folder;
#X obj 209 17 bng 20 250 50 0 empty empty Folder -4 -7 0 8 -262144
-1 -1;
#X obj 63 381 l2s;
#X obj -46 471 makesymbol %s/%s;
#X obj 115 346 outlet;
#X obj 699 159 inlet;
#X obj 45 753 print;
#X obj 45 731 pack f s;
#X obj 45 703 spigot;
#X obj 97 702 tgl 15 0 empty empty empty 17 7 0 10 -262144 -1 -1 0
1;
#X text 117 701 verbos load;
#X obj 97 17 bng 20 250 50 0 empty empty Save 0 -7 0 8 -262144 -1 -1
;
#X obj 123 17 bng 20 250 50 0 empty empty Load 0 -7 0 8 -262144 -1
-1;
#X obj 794 244 s \$0_state_save;
#X obj 741 279 s \$0_state_load;
#X obj 374 451 r \$0_state_load;
#X obj 375 207 r \$0_state_save;
#X obj 97 106 s \$0_state_save;
#X obj 123 83 s \$0_state_load;
#X obj -76 324 makefilename %s.xml;
#X obj -76 290 r \$0_name;
#X symbolatom 7 7 13 0 0 0 - #0_name_symbol -;
#X obj -76 49 s \$0_name;
#X obj -79 115 symbol name;
#X obj -79 86 loadbang;
#X obj -145 324 symbol;
#X obj -145 354 t b s;
#X obj 659 426 s \$0_name_symbol;
#X obj 683 385 symbol;
#X obj 659 362 ftos;
#X obj 659 279 route float;
#X obj 154 49 s state_line_time;
#X obj 154 20 nbx 4 14 0 1e+37 0 0 empty \$0-time Line.Time 0 -8 0
9 -262144 -1 -1 0 256;
#X obj 7 29 hradio 10 1 0 8 \$0-num empty empty 0 -8 0 10 -262144 -1
-1 0;
#X obj 674 308 r \$0-num;
#X obj 20 64 bng 15 250 50 0 empty empty empty 17 7 0 10 -262144 -1
-1;
#X obj 699 184 route dir name load save time print clear;
#X msg 1026 311 clear;
#X obj 654 221 s \$0_dir;
#X obj -145 293 r \$0_dir;
#X obj 63 206 r \$0_folder.select;
#X obj 258 30 s \$0_folder.select;
#X obj -79 153 s \$0_name_symbol;
#X obj -106 109 bng 15 250 50 0 empty empty empty 17 7 0 10 -262144
-1 -1;
#X obj 286 691 h_map global_state;
#X obj 154 -45 r state_line_time;
#X msg 154 -23 set \$1;
#X obj 846 340 s state_line_time;
#X obj 669 614 h_map global_state;
#X msg 669 588 getsize;
#X obj 721 638 nbx 5 14 -1e+37 1e+37 0 0 empty empty empty 0 -8 0 10
-262144 -1 -1 2 256;
#X obj 432 802 cup;
#X obj 432 825 ==;
#X obj 432 770 b;
#X obj 432 849 sel 1;
#X obj 467 770 1;
#X obj 792 576 s state_save_toggle;
#X obj 763 575 0;
#X obj 432 893 s state_save_toggle;
#X obj 432 871 1;
#X obj 374 499 t b b b b;
#X obj 679 539 t b b b;
#X connect 0 0 3 0;
#X connect 2 0 11 0;
#X connect 4 0 22 0;
#X connect 5 0 10 0;
#X connect 6 0 4 0;
#X connect 7 0 6 1;
#X connect 8 0 5 0;
#X connect 9 0 8 1;
#X connect 16 0 20 0;
#X connect 17 0 16 0;
#X connect 18 0 81 0;
#X connect 19 0 1 1;
#X connect 19 0 44 1;
#X connect 20 0 18 0;
#X connect 20 1 19 0;
#X connect 21 0 15 0;
#X connect 23 0 6 0;
#X connect 23 1 24 0;
#X connect 25 0 36 0;
#X connect 28 0 39 0;
#X connect 29 0 28 0;
#X connect 29 1 31 0;
#X connect 30 0 40 0;
#X connect 31 0 28 0;
#X connect 31 0 41 0;
#X connect 32 0 30 0;
#X connect 33 0 32 0;
#X connect 33 1 30 1;
#X connect 36 0 29 0;
#X connect 38 0 78 0;
#X connect 39 0 32 1;
#X connect 40 0 26 0;
#X connect 42 0 73 0;
#X connect 44 0 43 0;
#X connect 45 0 44 0;
#X connect 46 0 45 1;
#X connect 48 0 54 0;
#X connect 49 0 55 0;
#X connect 52 0 97 0;
#X connect 53 0 23 0;
#X connect 56 0 33 0;
#X connect 57 0 56 0;
#X connect 58 0 59 0;
#X connect 58 0 72 0;
#X connect 60 0 79 0;
#X connect 61 0 60 0;
#X connect 62 0 63 0;
#X connect 63 0 32 0;
#X connect 63 1 32 1;
#X connect 65 0 64 0;
#X connect 66 0 64 0;
#X connect 67 0 66 0;
#X connect 67 1 65 0;
#X connect 69 0 68 0;
#X connect 71 0 66 0;
#X connect 73 0 75 0;
#X connect 73 1 67 0;
#X connect 73 2 51 0;
#X connect 73 3 50 0;
#X connect 73 4 84 0;
#X connect 73 5 0 0;
#X connect 73 6 74 0;
#X connect 74 0 3 0;
#X connect 76 0 62 0;
#X connect 77 0 25 0;
#X connect 80 0 61 0;
#X connect 81 0 1 0;
#X connect 81 0 45 0;
#X connect 81 0 90 0;
#X connect 82 0 83 0;
#X connect 83 0 69 0;
#X connect 85 1 87 0;
#X connect 86 0 85 0;
#X connect 87 0 89 1;
#X connect 88 0 89 0;
#X connect 89 0 91 0;
#X connect 90 0 88 0;
#X connect 91 0 96 0;
#X connect 92 0 88 0;
#X connect 94 0 93 0;
#X connect 96 0 95 0;
#X connect 97 0 17 0;
#X connect 97 1 8 0;
#X connect 97 2 2 0;
#X connect 97 3 98 0;
#X connect 98 0 92 0;
#X connect 98 1 86 0;
#X connect 98 2 94 0;
#X coords 0 -1 1 1 240 45 2 0 0;
