#N canvas 891 212 751 378 10;
#X declare -lib pdcontainer;
#X msg 149 118 getsize;
#X floatatom 203 302 5 0 0 0 - - -;
#X msg 121 61 print;
#X obj 365 218 outlet;
#X obj 45 181 inlet;
#X obj 365 164 iem_receive;
#X msg 102 37 getnamespace;
#X msg 45 260 add \$1;
#X msg 140 84 keys;
#X obj 3 8 import pdcontainer;
#X obj 418 193 s \$0_set_value;
#X obj 45 207 t b a;
#X obj -7 154 r \$0_set_value;
#X obj 163 277 h_map ol_state;
#X obj 45 234 symbol \$1;
#X msg 365 136 set \$1;
#X obj 365 110 symbol \$1;
#X obj 273 55 inlet label;
#X obj 365 84 initbang;
#X connect 0 0 13 0;
#X connect 2 0 13 0;
#X connect 4 0 11 0;
#X connect 5 0 3 0;
#X connect 5 0 10 0;
#X connect 6 0 13 0;
#X connect 7 0 13 0;
#X connect 8 0 13 0;
#X connect 11 0 14 0;
#X connect 11 1 13 1;
#X connect 12 0 11 0;
#X connect 13 1 1 0;
#X connect 14 0 7 0;
#X connect 15 0 5 0;
#X connect 16 0 15 0;
#X connect 16 0 14 1;
#X connect 17 0 16 0;
#X connect 18 0 16 0;
