#N canvas 907 251 751 378 10;
#X declare -lib pdcontainer;
#X floatatom 203 302 5 0 0 0 - - -;
#X obj 365 268 outlet;
#X obj 45 181 inlet;
#X obj 365 164 iem_receive;
#X msg 45 260 add \$1;
#X obj 3 8 import pdcontainer;
#X obj 45 207 t b a;
#X obj -7 154 r \$0_set_value;
#X obj 163 277 h_map global_state;
#X obj 45 234 symbol \$1;
#X msg 365 136 set \$1;
#X obj 365 110 symbol \$1;
#X obj 273 55 inlet label;
#X obj 365 84 initbang;
#X obj 365 239 line;
#X obj 365 215 pack f f;
#X obj 427 216 r state_line_time;
#X obj 549 247 s \$0_save_value;
#X obj 549 218 spigot;
#X obj 599 197 loadbang;
#X obj 599 217 1;
#X obj 582 171 r state_save_toggle;
#X connect 2 0 6 0;
#X connect 3 0 15 0;
#X connect 3 0 18 0;
#X connect 4 0 8 0;
#X connect 6 0 9 0;
#X connect 6 1 8 1;
#X connect 7 0 6 0;
#X connect 8 1 0 0;
#X connect 9 0 4 0;
#X connect 10 0 3 0;
#X connect 11 0 10 0;
#X connect 11 0 9 1;
#X connect 12 0 11 0;
#X connect 13 0 11 0;
#X connect 14 0 1 0;
#X connect 15 0 14 0;
#X connect 16 0 15 1;
#X connect 18 0 17 0;
#X connect 19 0 20 0;
#X connect 20 0 18 1;
#X connect 21 0 18 1;
