#N canvas 553 308 412 530 10;
#X declare -lib pdcontainer;
#X obj 182 351 outlet;
#X obj 55 161 inlet;
#X obj 13 18 import pdcontainer;
#X obj 55 297 h_map global_state;
#X obj 55 244 symbol \$1;
#X msg 182 192 set \$1;
#X obj 182 166 symbol \$1;
#X obj 128 108 inlet label;
#X obj 182 140 initbang;
#X obj 55 210 route bang;
#X msg 55 270 get \$1;
#X obj 182 223 iem_receive;
#X connect 1 0 9 0;
#X connect 3 0 0 0;
#X connect 4 0 10 0;
#X connect 5 0 11 0;
#X connect 6 0 5 0;
#X connect 6 0 4 1;
#X connect 7 0 6 0;
#X connect 8 0 6 0;
#X connect 9 0 4 0;
#X connect 10 0 3 0;
#X connect 11 0 0 0;
