#N canvas 358 285 942 654 10;
#X declare -lib pdcontainer -lib tof;
#X msg 55 243 print;
#X obj 71 607 s;
#X obj -136 352 bng 15 250 50 0 empty empty empty 17 7 0 10 -262144
-1 -1;
#X obj 103 404 t b b b;
#X msg 168 421 clear;
#X obj 55 270 s \$0_multimap_1;
#X msg -104 499 saveXML \$1;
#X msg 190 515 readXML \$1;
#X obj -104 475 symbol;
#X obj -71 451 r \$0_filename;
#X obj 190 490 symbol;
#X obj 223 465 r \$0_filename;
#X obj 190 540 s \$0_multimap_1;
#X obj 168 442 s \$0_multimap_1;
#X text -83 347 Saves the state;
#X text 125 351 Loads the state;
#X text 53 219 Print current state;
#X obj -102 271 h_map ol_state;
#X obj 71 465 h_map ol_state;
#X msg 71 441 keys;
#X obj 71 544 h_map ol_state;
#X msg 71 517 get \$1;
#X msg 86 580 symbol \$1;
#X obj 71 490 t a a;
#X obj -102 243 r \$0_multimap_1;
#X obj -104 523 s \$0_multimap_1;
#X obj 29 6 hradio 15 1 0 8 empty empty Save -26 7 0 10 -262144 -1
-1 0;
#X obj 4 110 nbx 5 14 -1e+37 1e+37 0 0 empty empty empty 0 -8 0 10
-262144 -1 -1 0 256;
#X obj -104 370 r state_save;
#X obj 103 376 r state_load;
#X obj 4 131 t b f;
#X obj 4 155 s state_save;
#X obj 29 25 hradio 15 1 0 8 empty empty Load -26 7 0 10 -262144 -1
-1 0;
#X obj -84 109 nbx 5 14 -1e+37 1e+37 0 0 empty empty empty 0 -8 0 10
-262144 -1 -1 0 256;
#X obj -84 130 t b f;
#X obj -84 154 s state_load;
#X obj 103 356 bng 15 250 50 0 empty empty empty 17 7 0 10 -262144
-1 -1;
#X obj 43 133 s \$0_filename_number;
#X obj -104 399 t b b;
#X obj -77 422 s state_dump;
#X obj 527 137 bng 15 250 50 0 empty empty empty 17 7 0 10 -262144
-1 -1;
#X obj 388 417 s \$0_filename;
#X text 477 417 Filename for saving;
#X obj 388 177 r \$0_filename_number;
#X msg 527 298 /home/miles/Copy/Osciladores_no_lineales/ode_synth_v3/extras
;
#X obj 540 192 loadbang;
#X obj 527 243 t b a;
#X obj 388 224 makefilename %d.xml;
#X obj 388 370 pack s s;
#X msg 554 271 set \$1;
#X obj 388 346 symbol;
#X obj 388 249 t b a;
#X obj 388 201 nbx 5 14 -1e+37 1e+37 0 0 empty empty empty 0 -8 0 10
-262144 -1 -1 0 256;
#X obj 339 178 init 0;
#X obj 526 26 import pdcontainer tof;
#X text 671 25 tof -> folderpanel;
#X obj 527 164 folderpanel;
#N canvas 407 263 450 300 filename.old 0;
#X obj 71 185 s \$0_filename;
#X obj 71 74 loadbang;
#X obj 71 152 symbol;
#X text 160 186 Filename for saving;
#X msg 71 99 0;
#X msg 71 128 states/\$1.xml;
#X obj 108 100 r \$0_filename_number;
#X connect 1 0 4 0;
#X connect 4 0 5 0;
#X connect 5 0 2 0;
#X connect 6 0 5 0;
#X restore 394 505 pd filename.old;
#X text 551 135 Select working folder;
#X obj 156 20 bng 20 250 50 0 empty empty Folder -4 -7 0 8 -262144
-1 -1;
#X obj 155 62 s \$0-folder.select;
#X obj 527 109 r \$0-folder.select;
#X msg 540 214 symbol states;
#X obj 527 334 l2s;
#X obj 388 394 makesymbol %s/%s;
#X obj 623 278 outlet;
#X obj 682 224 inlet;
#X connect 0 0 5 0;
#X connect 2 0 38 0;
#X connect 3 0 19 0;
#X connect 3 1 10 0;
#X connect 3 2 4 0;
#X connect 4 0 13 0;
#X connect 6 0 25 0;
#X connect 7 0 12 0;
#X connect 8 0 6 0;
#X connect 9 0 8 1;
#X connect 10 0 7 0;
#X connect 11 0 10 1;
#X connect 18 0 23 0;
#X connect 19 0 18 0;
#X connect 20 0 1 0;
#X connect 21 0 20 0;
#X connect 22 0 1 1;
#X connect 23 0 21 0;
#X connect 23 1 22 0;
#X connect 24 0 17 0;
#X connect 26 0 27 0;
#X connect 27 0 30 0;
#X connect 28 0 38 0;
#X connect 29 0 3 0;
#X connect 30 0 31 0;
#X connect 30 1 37 0;
#X connect 32 0 33 0;
#X connect 33 0 34 0;
#X connect 34 0 35 0;
#X connect 34 1 37 0;
#X connect 36 0 3 0;
#X connect 38 0 8 0;
#X connect 38 1 39 0;
#X connect 40 0 56 0;
#X connect 43 0 52 0;
#X connect 44 0 63 0;
#X connect 45 0 62 0;
#X connect 46 0 44 0;
#X connect 46 1 49 0;
#X connect 47 0 51 0;
#X connect 48 0 64 0;
#X connect 49 0 44 0;
#X connect 49 0 65 0;
#X connect 50 0 48 0;
#X connect 51 0 50 0;
#X connect 51 1 48 1;
#X connect 52 0 47 0;
#X connect 53 0 47 0;
#X connect 56 0 46 0;
#X connect 59 0 60 0;
#X connect 61 0 40 0;
#X connect 62 0 46 0;
#X connect 63 0 50 1;
#X connect 64 0 41 0;
#X connect 66 0 63 0;
#X coords 0 -1 1 1 183 45 2 0 0;
