#N canvas 861 302 501 441 10;
#X obj 161 64 phasor~;
#X obj 232 103 maxlib/scale 0 127 0 127;
#X obj 232 127 mtof;
#X obj 66 167 lp2~ 1000 0.7 100;
#X obj 161 11 maxlib/scale 0 127 0 127;
#X obj 161 35 mtof;
#X obj 67 78 osc~;
#X obj -8 16 mtof;
#X obj -8 39 nbx 5 14 -1e+37 1e+37 0 0 empty empty empty 0 -8 0 10
-262144 -1 -1 2.86803 256;
#X obj 66 138 *~;
#X obj 67 106 +~ 1;
#X obj 213 289 line~;
#X obj 213 218 maxlib/scale 0 127 0 127;
#X obj 213 245 dbtorms;
#X msg 213 268 \$1 100;
#X obj 67 308 *~;
#X obj 67 336 dac~;
#X obj 219 52 nbx 5 14 -1e+37 1e+37 0 0 empty empty empty 0 -8 0 10
-262144 -1 -1 0 256;
#X obj -8 -7 maxlib/scale 0 127 -70 20;
#X obj 161 -12 state_r_line /osc/freq/value \$1;
#X obj 232 79 state_r_line /lowpass/freq/value \$1;
#X obj 213 194 state_r_line /gain/value \$1;
#X obj -8 -31 state_r_line /lfo/freq/value \$1;
#X connect 0 0 9 1;
#X connect 1 0 2 0;
#X connect 2 0 3 1;
#X connect 3 0 15 0;
#X connect 4 0 5 0;
#X connect 5 0 0 0;
#X connect 5 0 17 0;
#X connect 6 0 10 0;
#X connect 7 0 8 0;
#X connect 8 0 6 0;
#X connect 9 0 3 0;
#X connect 10 0 9 0;
#X connect 11 0 15 1;
#X connect 12 0 13 0;
#X connect 13 0 14 0;
#X connect 14 0 11 0;
#X connect 15 0 16 0;
#X connect 15 0 16 1;
#X connect 18 0 7 0;
#X connect 19 0 4 0;
#X connect 20 0 1 0;
#X connect 21 0 12 0;
#X connect 22 0 18 0;
