#N canvas 110 459 320 300 10;
#X obj 103 135 nbx 4 14 -10 200 0 0 empty \$0_mknob empty 0 -8 0 10
-262144 -33289 -262144 0 256;
#X msg 103 158 set \$1;
#X obj 109 102 mknob 30 100 -10 200 0 0 empty \$0_mknob empty -2 -6
0 8 -262144 -33289 -262144 0 1;
#X obj 99 78 0;
#X msg 35 223 set_current \$1 \$2;
#X obj 35 198 pack \$1 f;
#X obj 35 175 t b f;
#X obj 35 249 s tosnn;
#X obj 7 120 r current_\$1;
#X obj 99 29 initbang;
#X obj 99 55 del 1;
#N canvas 0 81 518 326 color 0;
#X obj 64 31 r \$0_value;
#N canvas 4 196 606 448 RGB_____________ 0;
#X obj 97 56 inlet;
#X obj 262 53 inlet;
#X obj 339 55 inlet;
#X obj 405 56 inlet;
#X obj 97 270 bang;
#X msg 77 295 0;
#X msg 104 295 1;
#X obj 146 268 bang;
#X msg 132 295 0;
#X msg 160 295 1;
#X obj 265 313 spigot;
#X obj 331 311 spigot;
#X obj 249 385 outlet;
#X text 93 33 select;
#X text 267 28 red;
#X text 337 30 green;
#X text 409 30 blue;
#X obj 405 102 t b f;
#X obj 339 160 +;
#X obj 339 185 t b f;
#X obj 339 216 +;
#X obj 315 383 outlet;
#X obj 28 180 loadbang;
#X obj 315 359 f;
#X obj 249 361 f;
#X obj 262 79 * -65536;
#X obj 339 80 * -256;
#X obj 405 80 * -1;
#X obj 339 247 - 1;
#X obj 97 135 route back label bang;
#X obj 235 168 t b b b;
#X connect 0 0 29 0;
#X connect 1 0 25 0;
#X connect 2 0 26 0;
#X connect 3 0 27 0;
#X connect 4 0 5 0;
#X connect 4 0 6 0;
#X connect 5 0 11 1;
#X connect 6 0 10 1;
#X connect 7 0 8 0;
#X connect 7 0 9 0;
#X connect 8 0 10 1;
#X connect 9 0 11 1;
#X connect 10 0 24 1;
#X connect 11 0 23 1;
#X connect 17 0 18 0;
#X connect 17 1 18 1;
#X connect 18 0 19 0;
#X connect 19 0 20 0;
#X connect 19 1 20 1;
#X connect 20 0 28 0;
#X connect 22 0 6 0;
#X connect 23 0 21 0;
#X connect 24 0 12 0;
#X connect 25 0 20 0;
#X connect 26 0 18 0;
#X connect 27 0 17 0;
#X connect 28 0 11 0;
#X connect 28 0 10 0;
#X connect 29 0 4 0;
#X connect 29 1 7 0;
#X connect 29 2 30 0;
#X connect 30 0 24 0;
#X connect 30 1 23 0;
#X connect 30 2 28 0;
#X restore 64 190 pd RGB_____________;
#X floatatom 144 163 4 0 255 0 - - -, f 4;
#X floatatom 187 163 4 0 255 0 - - -, f 4;
#X floatatom 230 164 3 0 255 0 - - -, f 3;
#X text 140 149 red;
#X text 176 148 green;
#X text 224 148 blue;
#X obj 64 270 s \$0_mknob;
#X obj 64 245 prepend color;
#X obj 64 109 nbx 5 14 -1e+37 1e+37 0 0 empty empty empty 0 -8 0 10
-262144 -1 -1 0 256;
#X obj 174 111 nbx 5 14 -1e+37 1e+37 0 0 empty empty empty 0 -8 0 10
-262144 -1 -1 0 256;
#X obj 285 110 nbx 5 14 -1e+37 1e+37 0 0 empty empty empty 0 -8 0 10
-262144 -1 -1 0 256;
#X obj 64 132 t b f;
#X msg 64 160 back \, bang;
#X obj 175 130 int;
#X obj 130 132 int;
#X obj 64 57 expr (1-($f1>0)*$f1/dcnorm)*255 \; (1-(($f1>0)*$f1/dcnorm-($f1<0)*$f1/dcnorm))*255
\; (1+($f1<0)*$f1/dcnorm)*255;
#X obj 422 57 v dcnorm;
#X connect 0 0 17 0;
#X connect 1 0 9 0;
#X connect 2 0 1 1;
#X connect 3 0 1 2;
#X connect 4 0 1 3;
#X connect 9 0 8 0;
#X connect 10 0 13 0;
#X connect 11 0 15 0;
#X connect 12 0 4 0;
#X connect 13 0 14 0;
#X connect 13 1 16 0;
#X connect 14 0 1 0;
#X connect 15 0 3 0;
#X connect 16 0 2 0;
#X connect 17 0 10 0;
#X connect 17 1 11 0;
#X connect 17 2 12 0;
#X restore 191 28 pd color;
#X connect 0 0 1 0;
#X connect 0 0 6 0;
#X connect 1 0 2 0;
#X connect 2 0 0 0;
#X connect 3 0 2 0;
#X connect 4 0 7 0;
#X connect 5 0 4 0;
#X connect 6 0 5 0;
#X connect 6 1 5 1;
#X connect 8 0 2 0;
#X connect 9 0 10 0;
#X connect 10 0 3 0;
#X coords 0 -1 1 1 50 50 2 100 100;
