#N canvas 974 81 468 176 10;
#N canvas 1004 385 657 300 core 1;
#X obj 25 154 spigot;
#X obj 83 156 tgl 15 1 empty empty empty 17 7 0 10 -262144 -1 -1 0
1;
#X obj 26 64 metro 100;
#X msg 374 192 toggle_fire_list \$1;
#X obj 374 169 tgl 15 0 empty empty empty 17 7 0 10 -262144 -1 -1 0
1;
#X msg 548 193 set_dts \$1;
#X obj 548 173 nbx 5 14 0 1e+37 0 1 empty empty empty 0 -8 0 10 -262144
-1 -1 0.02 256;
#X obj 548 151 / 1000;
#X obj 548 133 nbx 5 14 -1e+37 1e+37 0 1 empty empty empty 0 -8 0 10
-262144 -1 -1 20 256;
#X msg 155 97 clear \, add_neurons \$1 \, add_all_synapses;
#X msg 116 153 print_nn;
#X obj 25 212 s fired;
#X obj 114 213 s fire_list;
#X obj 223 213 s potential_list;
#X obj 25 181 snn, f 26;
#X obj 25 125 r tosnn;
#X obj 26 89 s tosnn;
#X obj 155 123 s tosnn;
#X obj 548 216 s tosnn;
#X obj 26 38 r snn_onoff;
#X obj 117 38 r snn_clock;
#X obj 155 73 r snn_neurons;
#X obj 374 215 s tosnn;
#X obj 548 111 bng 15 250 50 0 empty empty empty 17 7 0 10 -262144
-1 -1;
#X connect 0 0 14 0;
#X connect 1 0 0 1;
#X connect 2 0 16 0;
#X connect 3 0 22 0;
#X connect 4 0 3 0;
#X connect 5 0 18 0;
#X connect 6 0 5 0;
#X connect 7 0 6 0;
#X connect 8 0 7 0;
#X connect 9 0 17 0;
#X connect 10 0 14 0;
#X connect 14 0 11 0;
#X connect 14 1 12 0;
#X connect 14 2 13 0;
#X connect 15 0 0 0;
#X connect 19 0 2 0;
#X connect 20 0 2 1;
#X connect 21 0 9 0;
#X connect 23 0 8 0;
#X restore 14 149 pd core;
#X obj 13 68 tgl 50 0 snn_onoff empty On/off 0 -10 0 14 -262144 -1
-1 0 1;
#X obj 238 14 vsl 50 80 0 10 0 1 empty empty empty 0 -9 0 10 -262144
-1 -1 1200 1;
#X obj 238 104 nbx 5 14 0 10 0 0 snn_clock empty empty 0 -8 0 10 -262144
-1 -1 1.51899 256;
#X obj 76 77 nbx 2 40 0 100 0 1 snn_neurons empty Neurons 0 -18 0 32
-262144 -1 -1 10 256;
#N canvas 963 584 815 300 controls 1;
#N canvas 372 118 535 62 bangs 1;
#X obj 5 10 vbang 0 ;
#X obj 56 10 vbang 1 ;
#X obj 107 10 vbang 2 ;
#X obj 158 10 vbang 3 ;
#X obj 209 10 vbang 4 ;
#X obj 260 10 vbang 5 ;
#X obj 311 10 vbang 6 ;
#X obj 362 10 vbang 7 ;
#X obj 413 10 vbang 8 ;
#X obj 464 10 vbang 9 ;
#X restore 18 61 pd bangs;
#N canvas 294 405 78 525 dcknobs 1;
#X obj 5 10 dcknob 0 ;
#X obj 5 61 dcknob 1 ;
#X obj 5 112 dcknob 2 ;
#X obj 5 163 dcknob 3 ;
#X obj 5 214 dcknob 4 ;
#X obj 5 265 dcknob 5 ;
#X obj 5 316 dcknob 6 ;
#X obj 5 367 dcknob 7 ;
#X obj 5 418 dcknob 8 ;
#X obj 5 469 dcknob 9 ;
#X restore 18 85 pd dcknobs;
#N canvas 375 242 528 544 wknobs 1;
#X obj 5 10 wknob 0 0 ;
#X obj 464 10 wknob 0 9 ;
#X obj 56 10 wknob 0 1 ;
#X obj 107 10 wknob 0 2 ;
#X obj 158 10 wknob 0 3 ;
#X obj 209 10 wknob 0 4 ;
#X obj 260 10 wknob 0 5 ;
#X obj 311 10 wknob 0 6 ;
#X obj 362 10 wknob 0 7 ;
#X obj 413 10 wknob 0 8 ;
#X obj 5 61 wknob 1 0 ;
#X obj 56 61 wknob 1 1 ;
#X obj 107 61 wknob 1 2 ;
#X obj 158 61 wknob 1 3 ;
#X obj 209 61 wknob 1 4 ;
#X obj 260 61 wknob 1 5 ;
#X obj 311 61 wknob 1 6 ;
#X obj 362 61 wknob 1 7 ;
#X obj 413 61 wknob 1 8 ;
#X obj 464 61 wknob 1 9 ;
#X obj 5 112 wknob 2 0 ;
#X obj 56 112 wknob 2 1 ;
#X obj 107 112 wknob 2 2 ;
#X obj 158 112 wknob 2 3 ;
#X obj 209 112 wknob 2 4 ;
#X obj 260 112 wknob 2 5 ;
#X obj 311 112 wknob 2 6 ;
#X obj 362 112 wknob 2 7 ;
#X obj 413 112 wknob 2 8 ;
#X obj 464 112 wknob 2 9 ;
#X obj 5 163 wknob 3 0 ;
#X obj 56 163 wknob 3 1 ;
#X obj 107 163 wknob 3 2 ;
#X obj 158 163 wknob 3 3 ;
#X obj 209 163 wknob 3 4 ;
#X obj 260 163 wknob 3 5 ;
#X obj 311 163 wknob 3 6 ;
#X obj 362 163 wknob 3 7 ;
#X obj 413 163 wknob 3 8 ;
#X obj 464 163 wknob 3 9 ;
#X obj 5 214 wknob 4 0 ;
#X obj 56 214 wknob 4 1 ;
#X obj 107 214 wknob 4 2 ;
#X obj 158 214 wknob 4 3 ;
#X obj 209 214 wknob 4 4 ;
#X obj 260 214 wknob 4 5 ;
#X obj 311 214 wknob 4 6 ;
#X obj 362 214 wknob 4 7 ;
#X obj 413 214 wknob 4 8 ;
#X obj 464 214 wknob 4 9 ;
#X obj 5 265 wknob 5 0 ;
#X obj 56 265 wknob 5 1 ;
#X obj 107 265 wknob 5 2 ;
#X obj 158 265 wknob 5 3 ;
#X obj 209 265 wknob 5 4 ;
#X obj 260 265 wknob 5 5 ;
#X obj 311 265 wknob 5 6 ;
#X obj 362 265 wknob 5 7 ;
#X obj 413 265 wknob 5 8 ;
#X obj 464 265 wknob 5 9 ;
#X obj 5 316 wknob 6 0 ;
#X obj 56 316 wknob 6 1 ;
#X obj 107 316 wknob 6 2 ;
#X obj 158 316 wknob 6 3 ;
#X obj 209 316 wknob 6 4 ;
#X obj 260 316 wknob 6 5 ;
#X obj 311 316 wknob 6 6 ;
#X obj 362 316 wknob 6 7 ;
#X obj 413 316 wknob 6 8 ;
#X obj 464 316 wknob 6 9 ;
#X obj 5 367 wknob 7 0 ;
#X obj 56 367 wknob 7 1 ;
#X obj 107 367 wknob 7 2 ;
#X obj 158 367 wknob 7 3 ;
#X obj 209 367 wknob 7 4 ;
#X obj 260 367 wknob 7 5 ;
#X obj 311 367 wknob 7 6 ;
#X obj 362 367 wknob 7 7 ;
#X obj 413 367 wknob 7 8 ;
#X obj 464 367 wknob 7 9 ;
#X obj 5 418 wknob 8 0 ;
#X obj 56 418 wknob 8 1 ;
#X obj 107 418 wknob 8 2 ;
#X obj 158 418 wknob 8 3 ;
#X obj 209 418 wknob 8 4 ;
#X obj 260 418 wknob 8 5 ;
#X obj 311 418 wknob 8 6 ;
#X obj 362 418 wknob 8 7 ;
#X obj 413 418 wknob 8 8 ;
#X obj 464 418 wknob 8 9 ;
#X obj 5 469 wknob 9 0 ;
#X obj 56 469 wknob 9 1 ;
#X obj 107 469 wknob 9 2 ;
#X obj 158 469 wknob 9 3 ;
#X obj 209 469 wknob 9 4 ;
#X obj 260 469 wknob 9 5 ;
#X obj 311 469 wknob 9 6 ;
#X obj 362 469 wknob 9 7 ;
#X obj 413 469 wknob 9 8 ;
#X obj 464 469 wknob 9 9 ;
#X restore 18 108 pd wknobs;
#X obj 126 72 nbx 5 14 -1e+37 1e+37 0 1 empty empty empty 0 -8 0 10
-262144 -1 -1 10 256;
#X obj 126 51 bng 15 250 50 0 empty empty empty 17 7 0 10 -262144 -1
-1;
#X obj 17 158 v wnorm;
#X obj 17 141 nbx 5 14 -1e+37 1e+37 0 1 empty empty empty 0 -8 0 10
-262144 -1 -1 300 256;
#X msg 126 212 clear \, size \$1 \$1 \, step 51 51 \, bang;
#X msg 126 92 clear \, \$1 \, step 51 0 \, bang;
#X obj 126 233 ../automatrix/autoconstructor_mtx_ij 10 10 wknob wknobs
;
#X msg 127 141 clear \, \$1 \, step 0 51 \, bang;
#X obj 126 164 ../autoconstructor/autoconstructor 30 dcknob dcknobs
;
#X obj 126 114 ../autoconstructor/autoconstructor 30 vbang bangs;
#X obj 17 181 nbx 5 14 -1e+37 1e+37 0 1 empty empty empty 0 -8 0 10
-262144 -1 -1 200 256;
#X obj 17 198 v dcnorm;
#N canvas 1089 520 450 453 color 1;
#X obj 125 270 send;
#X msg 157 238 symbol wknob_\$1_0;
#X obj 130 169 t b f;
#X obj 66 210 f;
#X obj 82 45 nbx 5 14 -1e+37 1e+37 0 0 empty empty empty 0 -8 0 10
-262144 -1 -1 0.133858 256;
#X obj 128 121 bng 15 250 50 0 empty empty empty 17 7 0 10 -262144
-1 -1;
#X obj 202 112 tgl 15 0 empty empty empty 17 7 0 10 -262144 -1 -1 1
1;
#X msg 201 90 0;
#X msg 235 142 1;
#X obj 82 70 spigot;
#X obj 84 23 hsl 128 15 0 1 0 1 empty empty empty -2 -8 0 10 -262144
-1 -1 1700 1;
#X obj 139 142 for++ 0 9;
#X obj 82 98 t b b f;
#X msg 34 238 color \$1 1 1;
#X connect 1 0 0 1;
#X connect 2 0 3 0;
#X connect 2 1 1 0;
#X connect 3 0 13 0;
#X connect 4 0 9 0;
#X connect 5 0 11 0;
#X connect 6 0 9 1;
#X connect 7 0 6 0;
#X connect 8 0 6 0;
#X connect 9 0 12 0;
#X connect 10 0 4 0;
#X connect 11 0 2 0;
#X connect 11 1 8 0;
#X connect 12 0 7 0;
#X connect 12 1 5 0;
#X connect 12 2 3 1;
#X connect 13 0 0 0;
#X restore 497 43 pd color test;
#X connect 3 0 7 0;
#X connect 3 0 8 0;
#X connect 3 0 10 0;
#X connect 4 0 3 0;
#X connect 6 0 5 0;
#X connect 7 0 9 0;
#X connect 8 0 12 0;
#X connect 10 0 11 0;
#X connect 13 0 14 0;
#X restore 75 150 pd controls;
#X obj 167 149 synth_pool;
#X obj 250 149 event_score;
#X connect 2 0 3 0;
