#N canvas 502 233 386 365 10;
#X obj 93 2 r fired;
#X obj 93 27 sel \$1;
#X obj 93 183 ead~ 10 50;
#X obj 92 295 *~;
#X obj 107 269 osc~;
#X obj 180 149 f \$1;
#X obj 180 174 tabread freq_tab;
#X msg 180 226 \$1 50;
#X obj 180 246 line~;
#X obj 91 325 throw~ mix;
#X obj 153 102 r att;
#X obj 196 103 r dec;
#X obj 180 199 mtof;
#X obj 93 124 t b b;
#X obj 93 103 t b b b;
#X msg 261 47 0;
#X msg 273 85 1;
#X obj 223 150 del 0;
#X obj 159 53 tgl 15 1 empty empty empty 17 7 0 10 -262144 -1 -1 0
1;
#X obj 93 52 spigot 1;
#X connect 0 0 1 0;
#X connect 1 0 19 0;
#X connect 2 0 3 0;
#X connect 3 0 9 0;
#X connect 4 0 3 1;
#X connect 5 0 6 0;
#X connect 6 0 12 0;
#X connect 7 0 8 0;
#X connect 8 0 4 0;
#X connect 10 0 2 1;
#X connect 11 0 2 2;
#X connect 11 0 17 1;
#X connect 12 0 7 0;
#X connect 13 0 2 0;
#X connect 13 1 5 0;
#X connect 14 0 13 0;
#X connect 14 1 17 0;
#X connect 14 2 15 0;
#X connect 15 0 18 0;
#X connect 16 0 18 0;
#X connect 17 0 16 0;
#X connect 18 0 19 1;
#X connect 19 0 14 0;
