#N canvas 811 417 432 300 10;
#X msg 103 158 set \$1;
#X msg 35 223 set_syn_w \$1 \$2 \$3;
#X obj 35 249 s tosnn;
#X obj 35 198 pack \$1 \$2 f;
#X obj 35 168 t b f;
#X obj 98 73 0;
#X obj 98 24 initbang;
#X obj 98 50 del 1;
#N canvas 1194 174 669 298 color 1;
#N canvas 0 186 606 448 RGB_____________ 0;
#X obj 97 56 inlet;
#X obj 262 53 inlet;
#X obj 339 55 inlet;
#X obj 405 56 inlet;
#X obj 97 270 bang;
#X msg 77 295 0;
#X msg 104 295 1;
#X obj 146 268 bang;
#X msg 132 295 0;
#X msg 160 295 1;
#X obj 265 313 spigot;
#X obj 331 311 spigot;
#X obj 249 385 outlet;
#X text 93 33 select;
#X text 267 28 red;
#X text 337 30 green;
#X text 409 30 blue;
#X obj 405 102 t b f;
#X obj 339 160 +;
#X obj 339 185 t b f;
#X obj 339 216 +;
#X obj 315 383 outlet;
#X obj 28 180 loadbang;
#X obj 315 359 f;
#X obj 249 361 f;
#X obj 262 79 * -65536;
#X obj 339 80 * -256;
#X obj 405 80 * -1;
#X obj 339 247 - 1;
#X obj 97 135 route back label bang;
#X obj 235 168 t b b b;
#X connect 0 0 29 0;
#X connect 1 0 25 0;
#X connect 2 0 26 0;
#X connect 3 0 27 0;
#X connect 4 0 5 0;
#X connect 4 0 6 0;
#X connect 5 0 11 1;
#X connect 6 0 10 1;
#X connect 7 0 8 0;
#X connect 7 0 9 0;
#X connect 8 0 10 1;
#X connect 9 0 11 1;
#X connect 10 0 24 1;
#X connect 11 0 23 1;
#X connect 17 0 18 0;
#X connect 17 1 18 1;
#X connect 18 0 19 0;
#X connect 19 0 20 0;
#X connect 19 1 20 1;
#X connect 20 0 28 0;
#X connect 22 0 6 0;
#X connect 23 0 21 0;
#X connect 24 0 12 0;
#X connect 25 0 20 0;
#X connect 26 0 18 0;
#X connect 27 0 17 0;
#X connect 28 0 11 0;
#X connect 28 0 10 0;
#X connect 29 0 4 0;
#X connect 29 1 7 0;
#X connect 29 2 30 0;
#X connect 30 0 24 0;
#X connect 30 1 23 0;
#X connect 30 2 28 0;
#X restore 31 181 pd RGB_____________;
#X floatatom 111 154 4 0 255 0 - - -, f 4;
#X floatatom 154 154 4 0 255 0 - - -, f 4;
#X floatatom 197 155 3 0 255 0 - - -, f 3;
#X text 107 140 red;
#X text 143 139 green;
#X text 191 139 blue;
#X obj 31 232 s \$0_mknob;
#X obj 31 207 prepend color;
#X obj 31 100 nbx 5 14 -1e+37 1e+37 0 0 empty empty empty 0 -8 0 10
-262144 -1 -1 255 256;
#X obj 141 102 nbx 5 14 -1e+37 1e+37 0 0 empty empty empty 0 -8 0 10
-262144 -1 -1 252.424 256;
#X obj 252 101 nbx 5 14 -1e+37 1e+37 0 0 empty empty empty 0 -8 0 10
-262144 -1 -1 252.424 256;
#X obj 31 123 t b f;
#X msg 31 151 back \, bang;
#X obj 142 121 int;
#X obj 97 123 int;
#X obj 374 46 v wnorm;
#X obj 31 22 r \$0_value;
#X obj 31 48 expr (1-($f1>0)*$f1/wnorm)*255 \; (1-(($f1>0)*$f1/wnorm-($f1<0)*$f1/wnorm))*255
\; (1+($f1<0)*$f1/wnorm)*255;
#X obj 454 18 inlet;
#X obj 454 226 s \$0_background;
#N canvas 0 176 606 448 RGB_____________ 0;
#X obj 97 56 inlet;
#X obj 262 53 inlet;
#X obj 339 55 inlet;
#X obj 405 56 inlet;
#X obj 97 270 bang;
#X msg 77 295 0;
#X msg 104 295 1;
#X obj 146 268 bang;
#X msg 132 295 0;
#X msg 160 295 1;
#X obj 265 313 spigot;
#X obj 331 311 spigot;
#X obj 249 385 outlet;
#X text 93 33 select;
#X text 267 28 red;
#X text 337 30 green;
#X text 409 30 blue;
#X obj 405 102 t b f;
#X obj 339 160 +;
#X obj 339 185 t b f;
#X obj 339 216 +;
#X obj 315 383 outlet;
#X obj 28 180 loadbang;
#X obj 315 359 f;
#X obj 249 361 f;
#X obj 262 79 * -65536;
#X obj 339 80 * -256;
#X obj 405 80 * -1;
#X obj 339 247 - 1;
#X obj 97 135 route back label bang;
#X obj 235 168 t b b b;
#X connect 0 0 29 0;
#X connect 1 0 25 0;
#X connect 2 0 26 0;
#X connect 3 0 27 0;
#X connect 4 0 5 0;
#X connect 4 0 6 0;
#X connect 5 0 11 1;
#X connect 6 0 10 1;
#X connect 7 0 8 0;
#X connect 7 0 9 0;
#X connect 8 0 10 1;
#X connect 9 0 11 1;
#X connect 10 0 24 1;
#X connect 11 0 23 1;
#X connect 17 0 18 0;
#X connect 17 1 18 1;
#X connect 18 0 19 0;
#X connect 19 0 20 0;
#X connect 19 1 20 1;
#X connect 20 0 28 0;
#X connect 22 0 6 0;
#X connect 23 0 21 0;
#X connect 24 0 12 0;
#X connect 25 0 20 0;
#X connect 26 0 18 0;
#X connect 27 0 17 0;
#X connect 28 0 11 0;
#X connect 28 0 10 0;
#X connect 29 0 4 0;
#X connect 29 1 7 0;
#X connect 29 2 30 0;
#X connect 30 0 24 0;
#X connect 30 1 23 0;
#X connect 30 2 28 0;
#X restore 454 170 pd RGB_____________;
#X msg 454 140 back \, bang;
#X obj 454 84 t b a;
#X obj 490 106 unpack f f f;
#X obj 514 4 loadbang;
#X obj 454 196 prepend color;
#X obj 454 56 hsv2rgb;
#X msg 515 28 1 0 1;
#X obj 583 139 * 255;
#X obj 544 139 * 255;
#X obj 623 139 * 255;
#X connect 0 0 8 0;
#X connect 1 0 0 1;
#X connect 2 0 0 2;
#X connect 3 0 0 3;
#X connect 8 0 7 0;
#X connect 9 0 12 0;
#X connect 10 0 14 0;
#X connect 11 0 3 0;
#X connect 12 0 13 0;
#X connect 12 1 15 0;
#X connect 13 0 0 0;
#X connect 14 0 2 0;
#X connect 15 0 1 0;
#X connect 17 0 18 0;
#X connect 18 0 9 0;
#X connect 18 1 10 0;
#X connect 18 2 11 0;
#X connect 19 0 27 0;
#X connect 21 0 26 0;
#X connect 22 0 21 0;
#X connect 23 0 22 0;
#X connect 23 1 24 0;
#X connect 24 0 30 0;
#X connect 24 1 29 0;
#X connect 24 2 31 0;
#X connect 25 0 28 0;
#X connect 26 0 20 0;
#X connect 27 0 23 0;
#X connect 28 0 27 0;
#X connect 29 0 21 2;
#X connect 30 0 21 1;
#X connect 31 0 21 3;
#X restore 259 81 pd color;
#X obj 164 158 s \$0_value;
#X obj 259 25 r wknob_\$1_\$2;
#X obj 259 53 route color;
#X obj 100 100 cnv 15 50 50 empty \$0_background empty 20 12 0 14 -262144
-1 0;
#X obj 103 135 nbx 4 14 -300 300 0 0 empty \$0_mknob empty 0 -8 0 10
-262144 -33289 -262144 -3.0303 256;
#X obj 109 102 mknob 30 100 -300 300 0 0 empty \$0_mknob empty -2 -6
0 8 -262144 -33289 -262144 4900 1;
#X connect 0 0 14 0;
#X connect 1 0 2 0;
#X connect 3 0 1 0;
#X connect 4 0 3 0;
#X connect 4 1 3 2;
#X connect 5 0 14 0;
#X connect 6 0 7 0;
#X connect 7 0 5 0;
#X connect 10 0 11 0;
#X connect 11 0 8 0;
#X connect 13 0 0 0;
#X connect 13 0 4 0;
#X connect 13 0 9 0;
#X connect 14 0 13 0;
#X coords 0 -1 1 1 50 50 2 100 100;
