#N canvas 0 0 1366 686 10;
#X declare -lib pdcontainer;
#X declare -lib pdcontainer;
#X declare -lib pdcontainer;
#X declare -lib pdcontainer;
#X declare -lib pdcontainer;
#X declare -lib pdcontainer;
#X obj 136 276 vu 15 120 empty empty -1 -8 0 10 -66577 -1 0 0;
#X obj 147 461 tgl 17 0 empty empty M 5 9 0 12 -257985 -1 -4160 0 1
;
#X obj 147 481 tgl 17 0 empty empty S 5 9 0 12 -258113 -1 -262144 0
1;
#X obj 101 101 cnv 15 100 20 empty canvas_set_\$0 CH1 10 10 0 14 -233017
-66577 0;
#X obj 153 276 vu 15 120 empty empty -1 -8 0 10 -66577 -1 0 0;
#X obj 101 276 vsl 34 119 0 127 0 0 empty empty empty 0 -9 0 10 -99776
-16662 -1 0 1;
#X obj 102 438 knob 32 32 0 127 0 1 empty empty PAN 6 15 0 12 -262144
-258113 -258113 1562 1;
#X obj 171 534 knob 32 32 0 127 0 1 empty empty BUS 6 15 0 12 -4032
-260097 -260097 0 1;
#X obj 112 410 bng 17 250 50 0 empty empty C 20 10 0 12 -258113 -1
-258113;
#X obj 116 531 tgl 17 0 empty empty E 5 9 0 12 -4160 -1 -262144 0 1
;
#X obj 104 215 hsl 80 15 0 127 0 0 empty empty Send_2 5 8 0 10 -262144
-1 -1 0 1;
#X obj 228 557 grid grid1 50 0 199 50 0 199 1 1 1 10 10 -5 240;
#X obj 118 565 bng 15 250 50 0 empty empty empty 17 7 0 10 -262144
-1 -1;
#X obj 147 442 bng 17 250 50 0 empty empty EQ 20 10 0 12 -4160 -258113
-4160;
#X obj 104 195 hsl 80 15 0 127 0 0 empty empty Send_1 5 8 0 10 -262144
-1 -1 0 1;
#X obj 104 235 hsl 80 15 0 127 0 0 empty empty Send_3 5 8 0 10 -262144
-1 -1 0 1;
#X obj 104 255 hsl 80 15 0 127 0 0 empty empty Send_4 5 8 0 10 -262144
-1 -1 0 1;
#X obj 186 195 tgl 15 0 empty empty empty 17 7 0 10 -262144 -1 -1 0
1;
#X obj 186 215 tgl 15 0 empty empty empty 17 7 0 10 -262144 -1 -1 0
1;
#X obj 186 235 tgl 15 0 empty empty empty 17 7 0 10 -262144 -1 -1 0
1;
#X obj 186 255 tgl 15 0 empty empty empty 17 7 0 10 -262144 -1 -1 0
1;
#X obj 147 422 tgl 17 0 empty empty pre 20 9 0 12 -262144 -1 -4160
0 1;
#X obj 147 402 tgl 17 0 empty empty fase 20 9 0 12 -262144 -1 -4160
0 1;
#X text 129 13 CONTROL;
#X obj 672 3 cnv 15 170 120 empty empty Canvas 20 12 0 14 -233017 -66577
0;
#X obj 675 52 symbol \$1;
#X obj 675 31 initbang;
#X msg 675 79 label \$1;
#X obj 498 128 cnv 15 500 250 empty empty State 20 12 0 14 -233017
-66577 0;
#X obj 504 348 s \$0_label_1;
#X obj 586 347 s \$0_label_2;
#X msg 504 321 /\$1/fader;
#X msg 586 320 /\$1/pan;
#X obj 666 347 s \$0_label_3;
#X obj 859 7 cnv 15 25 40 empty empty empty 20 12 0 14 -4034 -66577
0;
#X obj 862 24 tgl 17 0 empty empty IN 1 -7 0 12 -262144 -1 -1 0 1;
#X obj 862 56 s in_\$1;
#X obj 498 3 cnv 15 160 120 empty empty Ventana_Emergente 20 12 0 14
-233017 -66577 0;
#X msg 516 54 vis \$1;
#N canvas 482 154 696 300 editor\$1 0;
#X obj 13 39 gui.eq7.mmb~;
#X obj 335 249 s /\$1/eq_params;
#X connect 0 1 1 0;
#X restore 516 97 pd editor\$1;
#X obj 516 75 s pd-editor\$1;
#X obj 504 181 nbx 5 14 -1e+037 1e+037 0 0 empty empty empty 0 -8 0
10 -262144 -1 -1 1 256;
#X obj 504 230 iem_receive;
#X obj 504 260 symbol;
#X obj 675 101 s canvas_set_\$0;
#X obj 582 260 s canvas_name_\$0;
#X msg 666 320 /\$1/send1;
#X msg 746 320 /\$1/send2;
#X msg 826 320 /\$1/send3;
#X msg 906 320 /\$1/send4;
#X obj 746 347 s \$0_label_4;
#X obj 826 347 s \$0_label_5;
#X obj 906 347 s \$0_label_6;
#X obj 516 32 r /\$1/editor;
#X obj 208 286 r /\$1/vuL_control;
#X obj 208 307 r /\$1/vuR_control;
#X msg 504 203 set channel_1_send_4_\$1;
#X obj 504 159 sfruit/instance channel_1_send_4;
#X msg -194 83 set \$1;
#X obj -79 62 r \$0_label_3;
#X obj -194 62 state_io /\$1/send1;
#X obj 45 140 init 0;
#X msg -193 131 set \$1;
#X obj -193 111 state_io /\$1/send2;
#X obj -75 110 r \$0_label_4;
#X msg -192 178 set \$1;
#X obj -192 158 state_io /\$1/send3;
#X obj -78 159 r \$0_label_5;
#X msg -192 228 set \$1;
#X obj -76 208 r \$0_label_6;
#X obj -192 208 state_io /\$1/send4;
#X msg -191 440 set \$1;
#X obj -191 420 state_io /\$1/pan;
#X obj -166 400 r \$0_label_2;
#X obj -191 463 s /\$1/pan_control;
#X obj 50 409 init 64;
#X obj -124 83 s /\$1/\$4/bus_control;
#X obj -123 130 s /\$1/\$5/bus_control;
#X obj -122 180 s /\$1/\$6/bus_control;
#X obj -122 229 s /\$1/\$7/bus_control;
#X obj 212 482 s solo_toggle;
#X obj 297 482 s /\$1/solo_signal;
#X obj 212 462 init 0;
#X obj 255 462 s /\$1/mute_signal;
#X obj 212 441 s /\$1/editor;
#X obj -193 279 r fader_value_\$1;
#X msg -193 338 set \$1;
#X obj -78 314 r \$0_label_1;
#X obj -193 314 state_io /\$1/fader;
#X obj -193 361 s /\$1/gain_signal;
#X obj 737 52 r canvas_name_\$0;
#X obj 257 400 s /\$1/fase_signal;
#X obj 212 400 init 0;
#X connect 1 0 83 0;
#X connect 2 0 80 0;
#X connect 2 0 81 0;
#X connect 5 0 88 0;
#X connect 5 0 89 0;
#X connect 6 0 72 0;
#X connect 6 0 74 0;
#X connect 8 0 75 0;
#X connect 10 0 63 0;
#X connect 10 0 77 0;
#X connect 13 0 84 0;
#X connect 14 0 60 0;
#X connect 14 0 76 0;
#X connect 15 0 66 0;
#X connect 15 0 78 0;
#X connect 16 0 70 0;
#X connect 16 0 79 0;
#X connect 22 0 91 0;
#X connect 25 0 27 0;
#X connect 26 0 25 0;
#X connect 27 0 44 0;
#X connect 31 0 29 0;
#X connect 32 0 30 0;
#X connect 35 0 36 0;
#X connect 38 0 40 0;
#X connect 41 0 56 0;
#X connect 42 0 43 0;
#X connect 43 0 31 0;
#X connect 43 0 32 0;
#X connect 43 0 46 0;
#X connect 43 0 45 0;
#X connect 43 0 47 0;
#X connect 43 0 48 0;
#X connect 43 0 49 0;
#X connect 46 0 33 0;
#X connect 47 0 50 0;
#X connect 48 0 51 0;
#X connect 49 0 52 0;
#X connect 53 0 38 0;
#X connect 54 0 0 0;
#X connect 55 0 4 0;
#X connect 56 0 42 0;
#X connect 57 0 41 0;
#X connect 58 0 14 0;
#X connect 59 0 60 1;
#X connect 60 0 58 0;
#X connect 61 0 14 0;
#X connect 61 0 10 0;
#X connect 61 0 15 0;
#X connect 61 0 16 0;
#X connect 61 0 5 0;
#X connect 62 0 10 0;
#X connect 63 0 62 0;
#X connect 64 0 63 1;
#X connect 65 0 15 0;
#X connect 66 0 65 0;
#X connect 67 0 66 1;
#X connect 68 0 16 0;
#X connect 69 0 70 1;
#X connect 70 0 68 0;
#X connect 71 0 6 0;
#X connect 72 0 71 0;
#X connect 73 0 72 1;
#X connect 75 0 6 0;
#X connect 82 0 1 0;
#X connect 85 0 5 0;
#X connect 86 0 5 0;
#X connect 87 0 88 1;
#X connect 88 0 86 0;
#X connect 90 0 27 0;
#X connect 92 0 22 0;
#X coords 0 -1 1 1 102 400 2 100 100;
