#N canvas 239 83 1039 533 10;
#X declare -lib pdcontainer;
#X declare -lib pdcontainer;
#X declare -lib pdcontainer;
#X declare -lib pdcontainer;
#X declare -lib pdcontainer;
#X declare -lib pdcontainer;
#X obj 142 276 vu 15 120 empty empty -1 -8 0 10 -66577 -1 0 0;
#X obj 159 276 vu 15 120 empty empty -1 -8 0 10 -66577 -1 0 0;
#X obj 153 422 tgl 17 0 empty empty pre 20 9 0 12 -262144 -1 -4160
0 1;
#X text 129 13 CONTROL;
#X obj 672 3 cnv 15 170 120 empty empty Canvas 20 12 0 14 -233017 -66577
0;
#X obj 675 52 symbol \$1;
#X obj 675 31 initbang;
#X msg 675 79 label \$1;
#X obj 498 128 cnv 15 500 250 empty empty State 20 12 0 14 -233017
-66577 0;
#X obj 498 3 cnv 15 160 120 empty empty Ventana_Emergente 20 12 0 14
-233017 -66577 0;
#X msg 516 54 vis \$1;
#X obj 516 75 s pd-editor\$1;
#X obj 514 181 nbx 5 14 -1e+037 1e+037 0 0 empty empty empty 0 -8 0
10 -262144 -1 -1 1 256;
#X obj 514 230 iem_receive;
#X obj 514 260 symbol;
#X obj 675 101 s canvas_set_\$0;
#X obj 514 290 s canvas_name_\$0;
#X obj 737 52 r canvas_name_\$0;
#X msg 514 203 set channel_1_send_1_\$1;
#X obj 514 159 sfruit/instance channel_1_send_1;
#X obj 516 32 r \$0_editor;
#X obj 212 443 s \$0_editor;
#N canvas 394 106 671 319 editor\$1 1;
#X obj 9 223 s /\$1/eq_params;
#X obj 9 -38 metrum 50 1;
#X obj 9 15 gui.eq7.mmb \$1;
#X obj 9 -9 tabdump /\$1/spectrum;
#X connect 1 0 3 0;
#X connect 2 0 0 0;
#X connect 3 0 2 0;
#X restore 516 98 pd editor\$1;
#X obj -4 257 r canvas_name_\$0;
#X obj 153 441 ui_editor;
#X obj 103 273 ui_fader \$1;
#X obj 102 403 ui_pan \$1;
#X obj 100 224 ui_send1 \$1;
#X obj 153 402 ui_fase \$1;
#X obj 152 480 ui_solo \$1;
#N canvas 1 82 450 300 (subpatch) 0;
#X array /\$1/eq_plot 556 float 0;
#X coords 0 1 554 -1 100 70 1 0 0;
#X restore 101 121 graph;
#N canvas 1 82 450 300 (subpatch) 0;
#X array /\$1/spectrum 256 float 0;
#X coords 0 1 256 0 100 70 1 0 0;
#X restore 101 121 graph;
#X obj 101 101 cnv 15 100 20 empty canvas_set_\$0 CH1 10 10 0 14 -233017
-66577 0;
#X obj 153 461 ui_mute \$1;
#X obj 239 292 iem_receive /\$1/vuL_control;
#X obj 235 349 iem_receive /\$1/vuR_control;
#X obj 219 182 r canvas_name_\$0;
#X obj 219 209 unsymbol;
#X obj 219 234 list;
#X msg 235 323 set /\$1/vuR_control;
#X msg 239 266 set /\$1/vuL_control;
#X connect 5 0 7 0;
#X connect 6 0 5 0;
#X connect 7 0 15 0;
#X connect 10 0 11 0;
#X connect 12 0 18 0;
#X connect 13 0 14 0;
#X connect 14 0 16 0;
#X connect 17 0 7 0;
#X connect 18 0 13 0;
#X connect 19 0 12 0;
#X connect 20 0 10 0;
#X connect 23 0 25 0;
#X connect 23 0 26 0;
#X connect 23 0 28 0;
#X connect 23 0 29 0;
#X connect 23 0 27 0;
#X connect 23 0 33 0;
#X connect 24 0 21 0;
#X connect 34 0 0 0;
#X connect 35 0 1 0;
#X connect 36 0 37 0;
#X connect 37 0 38 0;
#X connect 38 0 40 0;
#X connect 38 0 39 0;
#X connect 39 0 35 0;
#X connect 40 0 34 0;
#X coords 0 -1 1 1 102 400 2 100 100;
