#N canvas 289 112 504 475 10;
#X declare -lib cachorita;
#X declare -path libreria;
#X text 108 13 \$1 nombre del canal \$2 in (etiqueta) \$3 out (etiqueta)
\$4 envio 1 (etiqueta) \$5;
#N canvas 609 263 450 300 eq~ 0;
#X obj 10 48 inlet~;
#X obj 9 121 outlet~;
#X obj 54 48 r /\$1/eq_params;
#X msg 260 104 logfreq 1 \, dbrange -60 0;
#N canvas 581 92 518 416 plot 0;
#X msg 141 273 plot \$1;
#X obj 141 314 outlet;
#X obj 114 245 t f f;
#X obj 44 283 sel 0;
#X msg 40 309 const 0;
#X obj 39 337 s /\$1/spectrum;
#X obj 141 153 r \$1-analyze.active;
#X obj 141 212 == 1;
#X connect 0 0 1 0;
#X connect 2 0 3 0;
#X connect 2 1 0 0;
#X connect 3 0 4 0;
#X connect 4 0 5 0;
#X connect 6 0 7 0;
#X connect 7 0 2 0;
#X restore 192 81 pd plot;
#X obj 84 92 s \$1-coeff.list;
#X obj 260 78 loadbang;
#X obj 9 84 eq7.mmb~;
#X obj 75 119 spectrum.mmb~ /\$1/spectrum;
#X obj 175 23 loadbang;
#X obj 175 0 bng 15 250 50 0 empty empty empty 17 7 0 10 -262144 -1
-1;
#X msg 175 47 coefflist 1;
#X connect 0 0 7 0;
#X connect 2 0 7 1;
#X connect 3 0 8 1;
#X connect 4 0 8 1;
#X connect 6 0 3 0;
#X connect 7 0 1 0;
#X connect 7 0 8 0;
#X connect 7 1 5 0;
#X connect 9 0 11 0;
#X connect 10 0 9 0;
#X connect 11 0 7 1;
#X restore -26 171 pd eq~;
#N canvas 613 77 254 315 solo-mute-signal~ 0;
#X obj 75 185 r mute_all;
#X floatatom 72 69 5 0 0 0 - - -;
#X obj -11 18 inlet~;
#X obj -12 271 outlet~;
#X text -9 285 audio;
#X obj -12 69 solo-signal~;
#X obj -12 148 mute-signal~;
#X obj -12 215 muteall-signal~;
#X obj 58 42 r /\$1/solo;
#X obj 58 119 r /\$1/mute;
#X connect 0 0 7 1;
#X connect 2 0 5 0;
#X connect 5 0 6 0;
#X connect 5 1 3 0;
#X connect 6 0 7 0;
#X connect 7 0 3 0;
#X connect 8 0 5 1;
#X connect 8 0 1 0;
#X connect 9 0 6 1;
#X restore -26 225 pd solo-mute-signal~;
#N canvas 486 153 450 300 fader~ 0;
#X obj -811 -155 gain~ 50;
#X obj -811 -202 inlet~;
#X obj -811 -123 outlet~;
#X obj -766 -180 r /\$1/fader;
#X connect 0 0 2 0;
#X connect 1 0 0 0;
#X connect 3 0 0 1;
#X restore -25 256 pd fader~;
#N canvas 79 262 450 300 vuL-post~ 0;
#X obj 13 -1 vu~;
#X obj 14 -38 inlet~;
#X obj 13 53 outlet~;
#X obj 28 22 s /\$1/vuL_post;
#X connect 0 0 2 0;
#X connect 0 1 3 0;
#X connect 1 0 0 0;
#X restore -26 368 pd vuL-post~;
#N canvas 79 262 450 300 vuL-pre~ 0;
#X obj 13 -1 vu~;
#X obj 14 -38 inlet~;
#X obj 12 53 outlet~;
#X obj 28 22 s /\$1/vuL_pre;
#X connect 0 0 2 0;
#X connect 0 1 3 0;
#X connect 1 0 0 0;
#X restore -27 142 pd vuL-pre~;
#N canvas 454 229 535 300 vuR-post~ 0;
#X obj 14 -38 inlet~;
#X obj 13 53 outlet~;
#X obj 28 22 s /\$1/vuR_post;
#X obj 13 -1 vu~;
#X connect 0 0 3 0;
#X connect 3 0 1 0;
#X connect 3 1 2 0;
#X restore 113 368 pd vuR-post~;
#X obj -27 404 rita~ \$3_L;
#X obj 112 404 rita~ \$3_R;
#X obj -19 15 import cachorita;
#X obj -26 85 cacho~ \$2_L;
#N canvas 609 263 450 300 eq~ 0;
#X obj 20 18 inlet~;
#X obj 19 91 outlet~;
#X obj 19 54 eq7.mmb~;
#X obj 64 18 r /\$1/eq_params;
#X connect 0 0 2 0;
#X connect 2 0 1 0;
#X connect 3 0 2 1;
#X restore 114 171 pd eq~;
#N canvas 613 77 307 320 solo-mute-signal~ 0;
#X obj 75 185 r mute_all;
#X floatatom 72 69 5 0 0 0 - - -;
#X obj -11 18 inlet~;
#X obj -12 271 outlet~;
#X text -9 285 audio;
#X obj -12 69 solo-signal~;
#X obj -12 148 mute-signal~;
#X obj -12 215 muteall-signal~;
#X obj 58 43 r /\$1/solo_signal;
#X obj 57 119 r /\$1/mute;
#X connect 0 0 7 1;
#X connect 2 0 5 0;
#X connect 5 0 6 0;
#X connect 5 1 3 0;
#X connect 6 0 7 0;
#X connect 7 0 3 0;
#X connect 8 0 5 1;
#X connect 8 0 1 0;
#X connect 9 0 6 1;
#X restore 114 225 pd solo-mute-signal~;
#N canvas 486 153 450 300 fader~ 0;
#X obj -811 -155 gain~ 50;
#X obj -811 -202 inlet~;
#X obj -811 -123 outlet~;
#X obj -766 -180 r /\$1/fader;
#X connect 0 0 2 0;
#X connect 1 0 0 0;
#X connect 3 0 0 1;
#X restore 115 256 pd fader~;
#N canvas 79 262 450 300 vuL-pre~ 0;
#X obj 13 -1 vu~;
#X obj 14 -38 inlet~;
#X obj 12 53 outlet~;
#X obj 28 22 s /\$1/vuR_pre;
#X connect 0 0 2 0;
#X connect 0 1 3 0;
#X connect 1 0 0 0;
#X restore 113 142 pd vuL-pre~;
#X obj 114 85 cacho~ \$2_R;
#N canvas 667 174 450 300 vu_signal_S 0;
#X obj 13 119 multiplex 0 1;
#X obj 108 119 nbx 5 14 -1e+37 1e+37 0 0 empty empty empty 0 -8 0 10
-262144 -1 -1 0 256;
#X obj 205 117 multiplex 0 1;
#X obj 13 16 r /\$1/vuL_pre;
#X obj 50 37 r /\$1/vuL_post;
#X obj 242 37 r /\$1/vuR_post;
#X obj 13 156 s /\$1/vuL_control;
#X obj 205 155 s /\$1/vuR_control;
#X obj 205 16 r /\$1/vuR_pre;
#X obj 88 74 r vu_control;
#X connect 0 0 6 0;
#X connect 2 0 7 0;
#X connect 3 0 0 0;
#X connect 4 0 0 1;
#X connect 5 0 2 1;
#X connect 8 0 2 0;
#X connect 9 0 0 2;
#X connect 9 0 1 0;
#X connect 9 0 2 2;
#X restore 285 120 pd vu_signal_S;
#X obj -20 40 path libreria;
#N canvas 203 218 456 210 fase 0;
#X obj -5 13 inlet~;
#X obj -5 153 outlet~;
#X obj -5 111 *~;
#X obj 40 40 sel 0 1;
#X obj 72 75 -1;
#X obj 40 75 1;
#X obj 150 13 init 0;
#X obj 40 13 r /\$1/fase;
#X connect 0 0 2 0;
#X connect 2 0 1 0;
#X connect 3 0 5 0;
#X connect 3 1 4 0;
#X connect 4 0 2 1;
#X connect 5 0 2 1;
#X connect 6 0 3 0;
#X connect 7 0 3 0;
#X restore -26 115 pd fase;
#N canvas 203 218 456 210 fase 0;
#X obj -5 13 inlet~;
#X obj -5 153 outlet~;
#X obj -5 111 *~;
#X obj 40 40 sel 0 1;
#X obj 72 75 -1;
#X obj 40 75 1;
#X obj 150 13 init 0;
#X obj 40 13 r /\$1/fase;
#X connect 0 0 2 0;
#X connect 2 0 1 0;
#X connect 3 0 5 0;
#X connect 3 1 4 0;
#X connect 4 0 2 1;
#X connect 5 0 2 1;
#X connect 6 0 3 0;
#X connect 7 0 3 0;
#X restore 114 115 pd fase;
#N canvas 644 261 450 300 pan-stereo~ 0;
#X obj -77 18 inlet~;
#X obj -76 227 outlet~;
#X obj 18 227 outlet~;
#X obj 72 46 / 127;
#X obj 17 18 inlet~;
#X obj -76 175 *~ 0.5;
#X obj 18 175 *~ 0.5;
#X obj 72 -5 r /\$1/pan;
#X obj -43 133 -;
#X msg -43 108 1 \$1;
#X obj 72 21 clip 0 127;
#X connect 0 0 5 0;
#X connect 3 0 9 0;
#X connect 3 0 6 1;
#X connect 4 0 6 0;
#X connect 5 0 1 0;
#X connect 6 0 2 0;
#X connect 7 0 10 0;
#X connect 8 0 5 1;
#X connect 9 0 8 0;
#X connect 10 0 3 0;
#X restore 7 321 pd pan-stereo~;
#X connect 1 0 2 0;
#X connect 2 0 3 0;
#X connect 3 0 20 0;
#X connect 4 0 7 0;
#X connect 5 0 1 0;
#X connect 6 0 8 0;
#X connect 10 0 18 0;
#X connect 11 0 12 0;
#X connect 12 0 13 0;
#X connect 13 0 20 1;
#X connect 14 0 11 0;
#X connect 15 0 19 0;
#X connect 18 0 5 0;
#X connect 19 0 14 0;
#X connect 20 0 4 0;
#X connect 20 1 6 0;
