#N canvas 0 0 774 662 10;
#X declare -path /canales/lib;
#X declare -path /canales/lib;
#X declare -path /canales/lib;
#X declare -path /canales/lib;
#X declare -lib cachorita;
#X declare -path /canales/lib;
#X declare -path /canales/lib;
#X declare -path canales/lib;
#X declare -path lib;
#X text 108 13 \$1 nombre del canal \$2 in (etiqueta) \$3 out (etiqueta)
\$4 envio 1 (etiqueta) \$5;
#N canvas 18 266 413 300 eq~ 1;
#X obj 10 8 inlet~;
#X obj 9 81 outlet~;
#X obj 54 8 r /\$1/eq_params;
#X msg 244 54 logfreq 1 \, dbrange -60 0;
#N canvas 581 92 518 416 plot 0;
#X msg 141 273 plot \$1;
#X obj 141 314 outlet;
#X obj 114 245 t f f;
#X obj 44 283 sel 0;
#X msg 40 309 const 0;
#X obj 39 337 s /\$1/spectrum;
#X obj 141 153 r \$1-analyze.active;
#X obj 141 212 == 1;
#X connect 0 0 1 0;
#X connect 2 0 3 0;
#X connect 2 1 0 0;
#X connect 3 0 4 0;
#X connect 4 0 5 0;
#X connect 6 0 7 0;
#X connect 7 0 2 0;
#X restore 192 41 pd plot;
#X obj 84 52 s \$1-coeff.list;
#X obj 244 28 loadbang;
#X obj 9 44 eq7.mmb~;
#X obj 75 79 spectrum.mmb~ /\$1/spectrum;
#X connect 0 0 7 0;
#X connect 2 0 7 1;
#X connect 3 0 8 1;
#X connect 4 0 8 1;
#X connect 6 0 3 0;
#X connect 7 0 1 0;
#X connect 7 0 8 0;
#X connect 7 1 5 0;
#X restore -20 161 pd eq~;
#N canvas 58 353 450 300 busL-pre~ 0;
#X obj 12 10 inlet~;
#X obj 13 73 outlet~;
#X obj 77 43 s~ /\$1/busL_pre;
#X connect 0 0 1 0;
#X connect 0 0 2 0;
#X restore -21 187 pd busL-pre~;
#N canvas 178 226 356 289 solo-mute-signal~ 0;
#X obj 75 185 r mute_all;
#X floatatom 72 69 5 0 0 0 - - -;
#X obj -11 18 inlet~;
#X obj -13 271 outlet~;
#X text -10 285 audio;
#X obj -12 69 solo-signal~;
#X obj -13 148 mute-signal~;
#X obj -12 215 muteall-signal~;
#X obj 57 42 r /\$1/solo_signal;
#X obj 56 119 r /\$1/mute_signal;
#X obj 142 21 path /canales/lib;
#X connect 0 0 7 1;
#X connect 2 0 5 0;
#X connect 5 0 6 0;
#X connect 5 1 3 0;
#X connect 6 0 7 0;
#X connect 7 0 3 0;
#X connect 8 0 5 1;
#X connect 8 0 1 0;
#X connect 9 0 6 1;
#X restore -20 215 pd solo-mute-signal~;
#N canvas 650 246 450 300 pan-stereo~ 0;
#X obj -77 18 inlet~;
#X obj -76 227 outlet~;
#X obj 18 227 outlet~;
#X obj 116 48 nbx 5 14 -1e+037 1e+037 0 0 empty empty empty 0 -8 0
10 -262144 -1 -1 0 256;
#X obj 51 51 / 127;
#X obj 65 80 nbx 5 14 -1e+037 1e+037 0 0 empty empty empty 0 -8 0 10
-262144 -1 -1 0 256;
#X obj -43 155 nbx 5 14 -1e+037 1e+037 0 0 empty empty empty 0 -8 0
10 -262144 -1 -1 0 256;
#X obj 51 152 nbx 5 14 -1e+037 1e+037 0 0 empty empty empty 0 -8 0
10 -262144 -1 -1 0 256;
#X msg -43 110 1;
#X obj -43 133 -;
#X obj -43 90 bng 15 250 50 0 empty empty empty 17 7 0 10 -262144 -1
-1;
#X obj 17 18 inlet~;
#X obj -76 175 *~ 0.5;
#X obj 18 175 *~ 0.5;
#X obj 71 18 r /\$1/pan_control;
#X connect 0 0 12 0;
#X connect 4 0 5 0;
#X connect 4 0 9 1;
#X connect 4 0 10 0;
#X connect 4 0 7 0;
#X connect 6 0 12 1;
#X connect 7 0 13 1;
#X connect 8 0 9 0;
#X connect 9 0 6 0;
#X connect 10 0 8 0;
#X connect 11 0 13 0;
#X connect 12 0 1 0;
#X connect 13 0 2 0;
#X connect 14 0 4 0;
#X connect 14 0 3 0;
#X restore 9 322 pd pan-stereo~;
#N canvas 219 163 450 300 fader~ 0;
#X obj -811 -155 gain~ 50;
#X obj -811 -202 inlet~;
#X obj -811 -123 outlet~;
#X obj -789 -180 r /\$1/gain_signal;
#X obj -674 -202 path /canales/lib;
#X connect 0 0 2 0;
#X connect 1 0 0 0;
#X connect 3 0 0 1;
#X restore -19 246 pd fader~;
#N canvas 79 262 450 300 vuL-post~ 0;
#X obj 13 -1 vu~;
#X obj 14 -38 inlet~;
#X obj 12 53 outlet~;
#X obj 28 22 s /\$1/vuL_post;
#X obj 122 -33 path /canales/lib;
#X connect 0 0 2 0;
#X connect 0 1 3 0;
#X connect 1 0 0 0;
#X restore -20 358 pd vuL-post~;
#N canvas 79 262 449 300 vuL-pre~ 0;
#X obj 13 -1 vu~;
#X obj 14 -38 inlet~;
#X obj 12 53 outlet~;
#X obj 28 22 s /\$1/vuL_pre;
#X connect 0 0 2 0;
#X connect 0 1 3 0;
#X connect 1 0 0 0;
#X restore -21 132 pd vuL-pre~;
#N canvas 74 309 450 300 busL_post~ 0;
#X obj 19 16 inlet~;
#X obj 20 69 outlet~;
#X obj 33 41 s~ /\$1/busL_post;
#X connect 0 0 1 0;
#X connect 0 0 2 0;
#X restore -20 282 pd busL_post~;
#N canvas 79 262 450 300 vuR-post~ 0;
#X obj 13 -1 vu~;
#X obj 14 -38 inlet~;
#X obj 12 53 outlet~;
#X obj 28 22 s /\$1/vuR_post;
#X obj 125 -36 path /canales/lib;
#X connect 0 0 2 0;
#X connect 0 1 3 0;
#X connect 1 0 0 0;
#X restore 119 358 pd vuR-post~;
#X obj -21 394 rita~ \$3_L;
#X obj 118 394 rita~ \$3_R;
#X obj -19 15 import cachorita;
#X obj -20 75 cacho~ \$2_L;
#N canvas 613 77 235 308 solo-mute-signal~ 0;
#X obj 75 185 r mute_all;
#X floatatom 72 69 5 0 0 0 - - -;
#X obj -11 18 inlet~;
#X obj -13 271 outlet~;
#X text -10 285 audio;
#X obj -12 69 solo-signal~;
#X obj -13 148 mute-signal~;
#X obj -12 215 muteall-signal~;
#X obj 57 42 r /\$1/solo_signal;
#X obj 56 119 r /\$1/mute_signal;
#X obj 65 10 path /canales/lib;
#X connect 0 0 7 1;
#X connect 2 0 5 0;
#X connect 5 0 6 0;
#X connect 5 1 3 0;
#X connect 6 0 7 0;
#X connect 7 0 3 0;
#X connect 8 0 5 1;
#X connect 8 0 1 0;
#X connect 9 0 6 1;
#X restore 120 215 pd solo-mute-signal~;
#N canvas 486 153 450 300 fader~ 0;
#X obj -811 -155 gain~ 50;
#X obj -811 -202 inlet~;
#X obj -811 -123 outlet~;
#X obj -789 -180 r /\$1/gain_signal;
#X connect 0 0 2 0;
#X connect 1 0 0 0;
#X connect 3 0 0 1;
#X restore 121 246 pd fader~;
#N canvas 79 262 450 300 vuL-pre~ 0;
#X obj 13 -1 vu~;
#X obj 14 -38 inlet~;
#X obj 12 53 outlet~;
#X obj 28 22 s /\$1/vuR_pre;
#X obj 105 -37 path /canales/lib;
#X connect 0 0 2 0;
#X connect 0 1 3 0;
#X connect 1 0 0 0;
#X restore 119 132 pd vuL-pre~;
#X obj 120 75 cacho~ \$2_R;
#N canvas 573 133 307 220 busR-pre~ 0;
#X obj 12 10 inlet~;
#X obj 13 73 outlet~;
#X obj 77 43 s~ /\$1/busR_pre;
#X connect 0 0 1 0;
#X connect 0 0 2 0;
#X restore 119 187 pd busR-pre~;
#N canvas 74 309 450 300 busR_post~ 0;
#X obj 19 16 inlet~;
#X obj 20 69 outlet~;
#X obj 33 41 s~ /\$1/busR_post;
#X connect 0 0 1 0;
#X connect 0 0 2 0;
#X restore 120 282 pd busR_post~;
#N canvas 224 223 450 304 ctlmidi 0;
#X obj 110 -270 + 80;
#X obj 110 -312 loadbang;
#X obj 82 -349 ctlin;
#X obj 82 -188 spigot;
#X msg 95 -219 1;
#X msg 130 -218 0;
#X obj 95 -246 sel;
#X obj 215 -224 spigot;
#X obj 215 -164 ctlout;
#X msg 220 -257 0;
#X obj 177 -314 bng 15 250 50 0 empty empty empty 17 7 0 10 -262144
-1 -1;
#X msg 248 -257 1;
#X obj 248 -282 del 60;
#X obj 239 -193 nbx 5 14 -1e+037 1e+037 0 0 empty empty empty 0 -8
0 10 -262144 -1 -1 0 256;
#X obj 17 -317 nbx 5 14 -1e+037 1e+037 0 0 empty empty empty 0 -8 0
10 -262144 -1 -1 0 256;
#X obj 345 -255 line;
#X obj 345 -226 nbx 5 14 -1e+037 1e+037 0 0 empty empty empty 0 -8
0 10 -262144 -1 -1 0 256;
#X obj 82 -161 s fader_value_\$1;
#X obj 215 -348 r gain_signal_\$1;
#X msg 345 -282 \$1 100;
#X obj 110 -290 i \$3;
#X obj 345 -307 i \$3;
#X connect 0 0 6 1;
#X connect 0 0 8 1;
#X connect 1 0 20 0;
#X connect 2 0 3 0;
#X connect 2 0 10 0;
#X connect 2 0 14 0;
#X connect 2 1 6 0;
#X connect 3 0 17 0;
#X connect 4 0 3 1;
#X connect 5 0 3 1;
#X connect 6 0 4 0;
#X connect 6 1 5 0;
#X connect 7 0 8 0;
#X connect 7 0 13 0;
#X connect 9 0 7 1;
#X connect 10 0 9 0;
#X connect 10 0 12 0;
#X connect 11 0 7 1;
#X connect 12 0 11 0;
#X connect 15 0 16 0;
#X connect 18 0 7 0;
#X connect 18 0 21 0;
#X connect 19 0 15 0;
#X connect 20 0 0 0;
#X connect 21 0 19 0;
#X restore 290 82 pd ctlmidi;
#X text 356 79 no está funcionando;
#N canvas 667 174 450 300 vu_signal_S 0;
#X obj 13 119 multiplex 0 1;
#X obj 108 119 nbx 5 14 -1e+037 1e+037 0 0 empty empty empty 0 -8 0
10 -262144 -1 -1 0 256;
#X obj 205 117 multiplex 0 1;
#X obj 13 16 r /\$1/vuL_pre;
#X obj 50 37 r /\$1/vuL_post;
#X obj 242 37 r /\$1/vuR_post;
#X obj 13 156 s /\$1/vuL_control;
#X obj 205 155 s /\$1/vuR_control;
#X obj 205 16 r /\$1/vuR_pre;
#X obj 88 74 r vu_control;
#X connect 0 0 6 0;
#X connect 2 0 7 0;
#X connect 3 0 0 0;
#X connect 4 0 0 1;
#X connect 5 0 2 1;
#X connect 8 0 2 0;
#X connect 9 0 0 2;
#X connect 9 0 1 0;
#X connect 9 0 2 2;
#X restore 291 110 pd vu_signal_S;
#N canvas 711 103 601 272 send-prepost 0;
#X obj -3 67 nbx 5 14 -1e+037 1e+037 0 0 empty empty empty 0 -8 0 10
-262144 -1 -1 0 256;
#X obj 109 70 multiplex~ 0 1;
#X obj 110 28 r~ /\$1/busL_pre;
#X obj 212 29 r~ /\$1/busL_post;
#X obj 326 71 multiplex~ 0 1;
#X obj 328 30 r~ /\$1/busR_pre;
#X obj 429 30 r~ /\$1/busR_post;
#X obj 108 110 rita~ send_L;
#X obj 325 110 rita~ send_R;
#X obj -3 28 r bus_control;
#X connect 1 0 7 0;
#X connect 2 0 1 0;
#X connect 3 0 1 1;
#X connect 4 0 8 0;
#X connect 5 0 4 0;
#X connect 6 0 4 1;
#X connect 9 0 0 0;
#X connect 9 0 1 0;
#X connect 9 0 4 0;
#X restore 293 139 pd send-prepost LR;
#X obj -18 42 path canales/lib;
#X obj 87 42 path lib;
#X obj 293 198 cnv 15 200 80 empty empty Envio_1 20 12 0 14 -233017
-66577 0;
#X obj 305 256 rita~ \$4_L;
#X obj 394 256 rita~ \$4_R;
#N canvas 662 167 450 300 send_L 0;
#X obj 21 124 outlet~;
#X obj 22 84 *~ 0;
#X obj 108 53 / 127;
#X obj 108 84 nbx 5 14 -1e+037 1e+037 0 0 empty empty empty 0 -8 0
10 -262144 -1 -1 0 256;
#X obj 108 22 r /\$1/\$4/bus_control;
#X obj 21 22 r~ send_L;
#X connect 1 0 0 0;
#X connect 2 0 3 0;
#X connect 2 0 1 1;
#X connect 4 0 2 0;
#X connect 5 0 1 0;
#X restore 306 225 pd send_L;
#N canvas 662 167 450 300 send_R 0;
#X obj 21 124 outlet~;
#X obj 22 84 *~ 0;
#X obj 109 53 / 127;
#X obj 109 84 nbx 5 14 -1e+037 1e+037 0 0 empty empty empty 0 -8 0
10 -262144 -1 -1 0 256;
#X obj 109 22 r /\$1/\$4/bus_control;
#X obj 21 22 r~ send_R;
#X connect 1 0 0 0;
#X connect 2 0 3 0;
#X connect 2 0 1 1;
#X connect 4 0 2 0;
#X connect 5 0 1 0;
#X restore 395 225 pd send_R;
#X obj 503 198 cnv 15 200 80 empty empty Envio_2 20 12 0 14 -233017
-66577 0;
#N canvas 662 167 450 300 send_L 0;
#X obj 21 124 outlet~;
#X obj 22 84 *~ 0;
#X obj 108 53 / 127;
#X obj 108 84 nbx 5 14 -1e+037 1e+037 0 0 empty empty empty 0 -8 0
10 -262144 -1 -1 0 256;
#X obj 108 22 r /\$1/\$5/bus_control;
#X obj 21 22 r~ send_L;
#X connect 1 0 0 0;
#X connect 2 0 3 0;
#X connect 2 0 1 1;
#X connect 4 0 2 0;
#X connect 5 0 1 0;
#X restore 516 225 pd send_L;
#N canvas 662 167 450 300 send_R 0;
#X obj 21 124 outlet~;
#X obj 22 84 *~ 0;
#X obj 109 53 / 127;
#X obj 109 84 nbx 5 14 -1e+037 1e+037 0 0 empty empty empty 0 -8 0
10 -262144 -1 -1 0 256;
#X obj 109 22 r /\$1/\$5/bus_control;
#X obj 21 22 r~ send_R;
#X connect 1 0 0 0;
#X connect 2 0 3 0;
#X connect 2 0 1 1;
#X connect 4 0 2 0;
#X connect 5 0 1 0;
#X restore 605 225 pd send_R;
#X obj 293 288 cnv 15 200 80 empty empty Envio_3 20 12 0 14 -233017
-66577 0;
#N canvas 279 243 450 300 send_L 0;
#X obj 21 124 outlet~;
#X obj 22 84 *~ 0;
#X obj 108 53 / 127;
#X obj 108 84 nbx 5 14 -1e+037 1e+037 0 0 empty empty empty 0 -8 0
10 -262144 -1 -1 0 256;
#X obj 108 22 r /\$1/\$6/bus_control;
#X obj 21 22 r~ send_L;
#X connect 1 0 0 0;
#X connect 2 0 3 0;
#X connect 2 0 1 1;
#X connect 4 0 2 0;
#X connect 5 0 1 0;
#X restore 306 315 pd send_L;
#N canvas 743 242 450 300 send_R 0;
#X obj 21 124 outlet~;
#X obj 22 84 *~ 0;
#X obj 109 53 / 127;
#X obj 109 84 nbx 5 14 -1e+037 1e+037 0 0 empty empty empty 0 -8 0
10 -262144 -1 -1 0 256;
#X obj 109 22 r /\$1/\$6/bus_control;
#X obj 21 22 r~ send_R;
#X connect 1 0 0 0;
#X connect 2 0 3 0;
#X connect 2 0 1 1;
#X connect 4 0 2 0;
#X connect 5 0 1 0;
#X restore 395 315 pd send_R;
#X obj 503 288 cnv 15 200 80 empty empty Envio_3 20 12 0 14 -233017
-66577 0;
#N canvas 279 243 450 300 send_L 0;
#X obj 21 124 outlet~;
#X obj 22 84 *~ 0;
#X obj 108 53 / 127;
#X obj 108 84 nbx 5 14 -1e+037 1e+037 0 0 empty empty empty 0 -8 0
10 -262144 -1 -1 0 256;
#X obj 108 22 r /\$1/\$7/bus_control;
#X obj 21 22 r~ send_L;
#X connect 1 0 0 0;
#X connect 2 0 3 0;
#X connect 2 0 1 1;
#X connect 4 0 2 0;
#X connect 5 0 1 0;
#X restore 516 315 pd send_L;
#N canvas 743 242 450 300 send_R 0;
#X obj 21 124 outlet~;
#X obj 22 84 *~ 0;
#X obj 109 53 / 127;
#X obj 109 84 nbx 5 14 -1e+037 1e+037 0 0 empty empty empty 0 -8 0
10 -262144 -1 -1 0 256;
#X obj 109 22 r /\$1/\$7/bus_control;
#X obj 21 22 r~ send_R;
#X connect 1 0 0 0;
#X connect 2 0 3 0;
#X connect 2 0 1 1;
#X connect 4 0 2 0;
#X connect 5 0 1 0;
#X restore 605 315 pd send_R;
#X obj 515 256 rita~ \$5_L;
#X obj 604 256 rita~ \$5_R;
#X obj 305 346 rita~ \$6_L;
#X obj 394 346 rita~ \$6_R;
#X obj 515 346 rita~ \$7_L;
#X obj 604 346 rita~ \$7_R;
#N canvas 203 218 456 210 fase 0;
#X obj -5 13 inlet~;
#X obj -5 153 outlet~;
#X obj -5 111 *~;
#X obj 40 13 r /\$1/fase_signal;
#X msg 70 65 -1;
#X msg 40 65 1;
#X obj 40 40 sel 0 1;
#X obj 150 13 init 0;
#X connect 0 0 2 0;
#X connect 2 0 1 0;
#X connect 3 0 6 0;
#X connect 4 0 2 1;
#X connect 5 0 2 1;
#X connect 6 0 5 0;
#X connect 6 1 4 0;
#X connect 7 0 6 0;
#X restore -20 104 pd fase;
#N canvas 203 218 456 210 fase 0;
#X obj -5 13 inlet~;
#X obj -5 153 outlet~;
#X obj -5 111 *~;
#X obj 40 13 r /\$1/fase_signal;
#X msg 70 65 -1;
#X msg 40 65 1;
#X obj 40 40 sel 0 1;
#X obj 150 13 init 0;
#X connect 0 0 2 0;
#X connect 2 0 1 0;
#X connect 3 0 6 0;
#X connect 4 0 2 1;
#X connect 5 0 2 1;
#X connect 6 0 5 0;
#X connect 6 1 4 0;
#X connect 7 0 6 0;
#X restore 120 104 pd fase;
#N canvas 449 271 337 274 eq~ 1;
#X obj 10 8 inlet~;
#X obj 9 81 outlet~;
#X obj 54 8 r /\$1/eq_params;
#X obj 9 44 eq7.mmb~;
#X connect 0 0 3 0;
#X connect 2 0 3 1;
#X connect 3 0 1 0;
#X restore 118 161 pd eq~;
#X connect 2 0 3 0;
#X connect 3 0 5 0;
#X connect 4 0 6 0;
#X connect 4 1 9 0;
#X connect 5 0 8 0;
#X connect 6 0 10 0;
#X connect 7 0 1 0;
#X connect 8 0 4 0;
#X connect 9 0 11 0;
#X connect 13 0 46 0;
#X connect 14 0 15 0;
#X connect 15 0 19 0;
#X connect 16 0 48 0;
#X connect 17 0 47 0;
#X connect 18 0 14 0;
#X connect 19 0 4 1;
#X connect 29 0 27 0;
#X connect 30 0 28 0;
#X connect 32 0 40 0;
#X connect 33 0 41 0;
#X connect 35 0 42 0;
#X connect 36 0 43 0;
#X connect 38 0 44 0;
#X connect 39 0 45 0;
#X connect 46 0 7 0;
#X connect 47 0 16 0;
#X connect 48 0 18 0;
