#N canvas 463 262 536 467 10;
#X declare -lib cachorita;
#X declare -path lib;
#X text 108 13 \$1 nombre del canal \$2 in (etiqueta) \$3 out (etiqueta)
\$4 envio 1 (etiqueta) \$5;
#N canvas 361 395 614 196 eq~ 0;
#X obj 20 18 inlet~;
#X obj 19 91 outlet~;
#X obj 64 18 r /\$1/eq_params;
#X msg 270 74 logfreq 1 \, dbrange -60 0;
#N canvas 581 92 518 416 plot 0;
#X msg 141 273 plot \$1;
#X obj 141 314 outlet;
#X obj 114 245 t f f;
#X obj 44 283 sel 0;
#X msg 40 309 const 0;
#X obj 39 337 s /\$1/spectrum;
#X obj 141 153 r \$1-analyze.active;
#X obj 141 212 == 1;
#X connect 0 0 1 0;
#X connect 2 0 3 0;
#X connect 2 1 0 0;
#X connect 3 0 4 0;
#X connect 4 0 5 0;
#X connect 6 0 7 0;
#X connect 7 0 2 0;
#X restore 202 51 pd plot;
#X obj 94 62 s \$1-coeff.list;
#X obj 270 48 loadbang;
#X obj 19 54 eq7.mmb~;
#X obj 85 89 spectrum.mmb~ /\$1/spectrum;
#X obj 185 -7 loadbang;
#X obj 185 -30 bng 15 250 50 0 empty empty empty 17 7 0 10 -262144
-1 -1;
#X msg 185 17 coefflist 1;
#X connect 0 0 7 0;
#X connect 2 0 7 1;
#X connect 3 0 8 1;
#X connect 4 0 8 1;
#X connect 6 0 3 0;
#X connect 7 0 1 0;
#X connect 7 0 8 0;
#X connect 7 1 5 0;
#X connect 9 0 11 0;
#X connect 10 0 9 0;
#X connect 11 0 7 1;
#X restore -26 139 pd eq~;
#N canvas 677 110 293 311 solo-mute-signal~ 0;
#X obj 75 185 r mute_all;
#X floatatom 72 69 5 0 0 0 - - -;
#X obj -11 18 inlet~;
#X obj -13 271 outlet~;
#X text -9 285 audio;
#X obj -12 69 solo-signal~;
#X obj -12 148 mute-signal~;
#X obj -12 215 muteall-signal~;
#X obj 57 42 r /\$1/solo_signal;
#X obj 57 119 r /\$1/mute_signal;
#X connect 0 0 7 1;
#X connect 2 0 5 0;
#X connect 5 0 6 0;
#X connect 5 1 3 0;
#X connect 6 0 7 0;
#X connect 7 0 3 0;
#X connect 8 0 5 1;
#X connect 8 0 1 0;
#X connect 9 0 6 1;
#X restore -26 222 pd solo-mute-signal~;
#N canvas 646 256 450 300 pan-stereo~ 0;
#X obj -77 18 inlet~;
#X obj -76 227 outlet~;
#X obj 18 227 outlet~;
#X obj 116 48 nbx 5 14 -1e+37 1e+37 0 0 empty empty empty 0 -8 0 10
-262144 -1 -1 0 256;
#X obj 51 51 / 127;
#X obj 65 80 nbx 5 14 -1e+37 1e+37 0 0 empty empty empty 0 -8 0 10
-262144 -1 -1 0 256;
#X obj -43 155 nbx 5 14 -1e+37 1e+37 0 0 empty empty empty 0 -8 0 10
-262144 -1 -1 0 256;
#X obj 51 152 nbx 5 14 -1e+37 1e+37 0 0 empty empty empty 0 -8 0 10
-262144 -1 -1 0 256;
#X msg -43 110 1;
#X obj -43 133 -;
#X obj -43 90 bng 15 250 50 0 empty empty empty 17 7 0 10 -262144 -1
-1;
#X obj 17 18 inlet~;
#X obj -76 175 *~ 0.5;
#X obj 18 175 *~ 0.5;
#X obj 71 18 r /\$1/pan;
#X connect 0 0 12 0;
#X connect 4 0 5 0;
#X connect 4 0 9 1;
#X connect 4 0 10 0;
#X connect 4 0 7 0;
#X connect 6 0 12 1;
#X connect 7 0 13 1;
#X connect 8 0 9 0;
#X connect 9 0 6 0;
#X connect 10 0 8 0;
#X connect 11 0 13 0;
#X connect 12 0 1 0;
#X connect 13 0 2 0;
#X connect 14 0 4 0;
#X connect 14 0 3 0;
#X restore -27 329 pd pan-stereo~;
#N canvas 754 261 450 292 fader~ 0;
#X obj -811 -155 gain~ 50;
#X obj -811 -202 inlet~;
#X obj -811 -123 outlet~;
#X obj -766 -180 r /\$1/fader;
#X connect 0 0 2 0;
#X connect 1 0 0 0;
#X connect 3 0 0 1;
#X restore -25 253 pd fader~;
#N canvas 77 267 450 300 vuL-post~ 0;
#X obj 14 -38 inlet~;
#X obj 12 53 outlet~;
#X obj 28 22 s /\$1/vuL_post;
#X obj 13 -1 vu~;
#X connect 0 0 3 0;
#X connect 3 0 1 0;
#X connect 3 1 2 0;
#X restore -26 365 pd vuL-post~;
#N canvas 75 272 450 300 vuR-post~ 0;
#X obj 14 -38 inlet~;
#X obj 12 53 outlet~;
#X obj 28 22 s /\$1/vuR_post;
#X obj 13 -1 vu~;
#X connect 0 0 3 0;
#X connect 3 0 1 0;
#X connect 3 1 2 0;
#X restore 113 365 pd vuR-post~;
#X obj -27 431 rita~ \$3_L;
#X obj 112 431 rita~ \$3_R;
#X obj -25 15 import cachorita;
#N canvas 949 236 450 300 vu_signal 0;
#X obj 13 119 multiplex 0 1;
#X obj 108 119 nbx 5 14 -1e+37 1e+37 0 0 empty empty empty 0 -8 0 10
-262144 -1 -1 0 256;
#X obj 88 74 r vu_control;
#X obj 13 11 r /\$1/vu_pre;
#X obj 215 117 multiplex 0 1;
#X obj 252 37 r /\$1/vuR_post;
#X obj 215 155 s /\$1/vuR_control;
#X obj 13 155 s /\$1/vuL_control;
#X obj 215 8 r /\$1/vu_pre;
#X obj 50 36 r /\$1/vuL_post;
#X connect 0 0 7 0;
#X connect 2 0 0 2;
#X connect 2 0 1 0;
#X connect 2 0 4 2;
#X connect 3 0 0 0;
#X connect 4 0 6 0;
#X connect 5 0 4 1;
#X connect 8 0 4 0;
#X connect 9 0 0 1;
#X restore 285 120 pd vu_signal;
#X obj -26 86 cacho~ \$2;
#X obj -25 40 path lib;
#N canvas 698 133 412 272 send-prepost 0;
#X obj -3 67 nbx 5 14 -1e+37 1e+37 0 0 empty empty empty 0 -8 0 10
-262144 -1 -1 0 256;
#X obj 109 70 multiplex~ 0 1;
#X obj -3 28 r bus_control;
#X obj 108 153 cnv 15 160 80 empty empty Send_1 5 12 0 14 -233017 -66577
0;
#X obj 117 211 rita~ \$4_L;
#X obj 108 109 s~ \$0_send;
#N canvas 532 246 608 250 send 0;
#X obj 21 124 outlet~;
#X obj 22 84 *~ 0;
#X obj 148 53 / 127;
#X obj 148 84 nbx 5 14 -1e+37 1e+37 0 0 empty empty empty 0 -8 0 10
-262144 -1 -1 0 256;
#X obj 21 22 r~ \$0_send;
#X obj 148 22 r /\$1/send1;
#X connect 1 0 0 0;
#X connect 2 0 3 0;
#X connect 2 0 1 1;
#X connect 4 0 1 0;
#X connect 5 0 2 0;
#X restore 118 180 pd send;
#X obj 197 211 rita~ \$4_R;
#X obj 110 28 r~ /\$1/bus_pre;
#X obj 212 29 r~ /\$1/bus_post;
#X connect 1 0 5 0;
#X connect 2 0 0 0;
#X connect 2 0 1 0;
#X connect 6 0 4 0;
#X connect 6 0 7 0;
#X connect 8 0 1 0;
#X connect 9 0 1 1;
#X restore 285 146 pd send-prepost;
#N canvas 679 216 456 210 fase 0;
#X obj -5 13 inlet~;
#X obj -5 153 outlet~;
#X obj -5 111 *~;
#X obj 40 13 r /\$1/fase_signal;
#X obj 40 40 sel 0 1;
#X obj 72 75 -1;
#X obj 40 75 1;
#X obj 154 14 init 0;
#X connect 0 0 2 0;
#X connect 2 0 1 0;
#X connect 3 0 4 0;
#X connect 4 0 6 0;
#X connect 4 1 5 0;
#X connect 5 0 2 1;
#X connect 6 0 2 1;
#X connect 7 0 4 0;
#X restore -26 115 pd fase;
#N canvas 764 262 450 300 vu-pre~ 0;
#X obj 14 -38 inlet~;
#X obj 13 49 outlet~;
#X obj 13 -1 vu~;
#X obj 28 22 s /\$1/vu_pre;
#X connect 0 0 2 0;
#X connect 2 0 1 0;
#X connect 2 1 3 0;
#X restore -27 165 pd vu-pre~;
#N canvas 649 317 450 298 bus-pre~ 0;
#X obj 12 10 inlet~;
#X obj 13 73 outlet~;
#X obj 77 43 s~ /\$1/bus_pre;
#X connect 0 0 1 0;
#X connect 0 0 2 0;
#X restore -27 194 pd bus-pre~;
#N canvas 480 247 450 300 bus_post~ 0;
#X obj 19 16 inlet~;
#X obj 20 69 outlet~;
#X obj 33 41 s~ /\$1/bus_post;
#X connect 0 0 1 0;
#X connect 0 0 2 0;
#X restore -26 289 pd bus_post~;
#X connect 1 0 15 0;
#X connect 2 0 4 0;
#X connect 3 0 5 0;
#X connect 3 1 6 0;
#X connect 4 0 17 0;
#X connect 5 0 7 0;
#X connect 6 0 8 0;
#X connect 11 0 14 0;
#X connect 14 0 1 0;
#X connect 15 0 16 0;
#X connect 16 0 2 0;
#X connect 17 0 3 0;
#X connect 17 0 3 1;
