#N canvas 13 69 554 468 10;
#X declare -lib cachorita;
#X declare -path canales/lib;
#X text 108 13 \$1 nombre del canal \$2 in (etiqueta) \$3 out (etiqueta)
\$4 envio 1 (etiqueta) \$5;
#N canvas 155 159 450 300 eq~ 0;
#X obj 10 18 inlet~;
#X obj 9 91 outlet~;
#X obj 54 18 r /\$1/eq_params;
#X msg 260 74 logfreq 1 \, dbrange -60 0;
#N canvas 581 92 518 416 plot 0;
#X msg 141 273 plot \$1;
#X obj 141 314 outlet;
#X obj 114 245 t f f;
#X obj 44 283 sel 0;
#X msg 40 309 const 0;
#X obj 39 337 s /\$1/spectrum;
#X obj 141 153 r \$1-analyze.active;
#X obj 141 212 == 1;
#X connect 0 0 1 0;
#X connect 2 0 3 0;
#X connect 2 1 0 0;
#X connect 3 0 4 0;
#X connect 4 0 5 0;
#X connect 6 0 7 0;
#X connect 7 0 2 0;
#X restore 192 51 pd plot;
#X obj 84 62 s \$1-coeff.list;
#X obj 260 48 loadbang;
#X obj 9 54 eq7.mmb~;
#X obj 75 89 spectrum.mmb~ /\$1/spectrum;
#X connect 0 0 7 0;
#X connect 2 0 7 1;
#X connect 3 0 8 1;
#X connect 4 0 8 1;
#X connect 6 0 3 0;
#X connect 7 0 1 0;
#X connect 7 0 8 0;
#X connect 7 1 5 0;
#X restore -26 167 pd eq~;
#N canvas 358 126 293 252 solo-mute-signal~ 0;
#X obj 75 185 r mute_all;
#X floatatom 72 69 5 0 0 0 - - -;
#X obj -11 18 inlet~;
#X obj -13 271 outlet~;
#X text -10 285 audio;
#X obj -12 69 solo-signal~;
#X obj -12 148 mute-signal~;
#X obj -12 215 muteall-signal~;
#X obj 57 42 r /\$1/solo_signal;
#X obj 57 119 r /\$1/mute_signal;
#X connect 0 0 7 1;
#X connect 2 0 5 0;
#X connect 5 0 6 0;
#X connect 5 1 3 0;
#X connect 6 0 7 0;
#X connect 7 0 3 0;
#X connect 8 0 5 1;
#X connect 8 0 1 0;
#X connect 9 0 6 1;
#X restore -26 221 pd solo-mute-signal~;
#N canvas 650 246 450 300 pan-stereo~ 0;
#X obj -77 18 inlet~;
#X obj -76 227 outlet~;
#X obj 18 227 outlet~;
#X obj 116 48 nbx 5 14 -1e+037 1e+037 0 0 empty empty empty 0 -8 0
10 -262144 -1 -1 0 256;
#X obj 51 51 / 127;
#X obj 65 80 nbx 5 14 -1e+037 1e+037 0 0 empty empty empty 0 -8 0 10
-262144 -1 -1 0 256;
#X obj -43 155 nbx 5 14 -1e+037 1e+037 0 0 empty empty empty 0 -8 0
10 -262144 -1 -1 0 256;
#X obj 51 152 nbx 5 14 -1e+037 1e+037 0 0 empty empty empty 0 -8 0
10 -262144 -1 -1 0 256;
#X msg -43 110 1;
#X obj -43 133 -;
#X obj -43 90 bng 15 250 50 0 empty empty empty 17 7 0 10 -262144 -1
-1;
#X obj 17 18 inlet~;
#X obj -76 175 *~ 0.5;
#X obj 18 175 *~ 0.5;
#X obj 71 18 r /\$1/pan;
#X connect 0 0 12 0;
#X connect 4 0 5 0;
#X connect 4 0 9 1;
#X connect 4 0 10 0;
#X connect 4 0 7 0;
#X connect 6 0 12 1;
#X connect 7 0 13 1;
#X connect 8 0 9 0;
#X connect 9 0 6 0;
#X connect 10 0 8 0;
#X connect 11 0 13 0;
#X connect 12 0 1 0;
#X connect 13 0 2 0;
#X connect 14 0 4 0;
#X connect 14 0 3 0;
#X restore -27 328 pd pan-stereo~;
#N canvas 210 294 450 292 fader~ 0;
#X obj -811 -155 gain~ 50;
#X obj -811 -202 inlet~;
#X obj -811 -123 outlet~;
#X obj -766 -180 r /\$1/fader;
#X connect 0 0 2 0;
#X connect 1 0 0 0;
#X connect 3 0 0 1;
#X restore -25 252 pd fader~;
#N canvas 79 262 450 300 vuL-post~ 0;
#X obj 13 -1 vu~;
#X obj 14 -38 inlet~;
#X obj 13 53 outlet~;
#X obj 28 22 s /\$1/vuL_post;
#X connect 0 0 2 0;
#X connect 0 1 3 0;
#X connect 1 0 0 0;
#X restore -26 364 pd vuL-post~;
#N canvas 79 262 450 300 vuR-post~ 0;
#X obj 13 -1 vu~;
#X obj 14 -38 inlet~;
#X obj 13 53 outlet~;
#X obj 28 22 s /\$1/vuR_post;
#X connect 0 0 2 0;
#X connect 0 1 3 0;
#X connect 1 0 0 0;
#X restore 113 364 pd vuR-post~;
#X obj -27 400 rita~ \$3_L;
#X obj 112 400 rita~ \$3_R;
#X obj -19 15 import cachorita;
#N canvas 224 223 450 304 ctlmidi 0;
#X obj 110 -270 + 80;
#X obj 110 -312 loadbang;
#X obj 82 -349 ctlin;
#X obj 82 -188 spigot;
#X msg 95 -219 1;
#X msg 130 -218 0;
#X obj 95 -246 sel;
#X obj 215 -224 spigot;
#X obj 215 -164 ctlout;
#X msg 220 -257 0;
#X obj 177 -314 bng 15 250 50 0 empty empty empty 17 7 0 10 -262144
-1 -1;
#X msg 248 -257 1;
#X obj 248 -282 del 60;
#X obj 239 -193 nbx 5 14 -1e+037 1e+037 0 0 empty empty empty 0 -8
0 10 -262144 -1 -1 0 256;
#X obj 17 -317 nbx 5 14 -1e+037 1e+037 0 0 empty empty empty 0 -8 0
10 -262144 -1 -1 0 256;
#X obj 345 -255 line;
#X obj 345 -226 nbx 5 14 -1e+037 1e+037 0 0 empty empty empty 0 -8
0 10 -262144 -1 -1 0 256;
#X obj 82 -161 s fader_value_\$1;
#X obj 215 -348 r gain_signal_\$1;
#X msg 345 -282 \$1 100;
#X obj 110 -290 i \$3;
#X obj 345 -307 i \$3;
#X connect 0 0 6 1;
#X connect 0 0 8 1;
#X connect 1 0 20 0;
#X connect 2 0 3 0;
#X connect 2 0 10 0;
#X connect 2 0 14 0;
#X connect 2 1 6 0;
#X connect 3 0 17 0;
#X connect 4 0 3 1;
#X connect 5 0 3 1;
#X connect 6 0 4 0;
#X connect 6 1 5 0;
#X connect 7 0 8 0;
#X connect 7 0 13 0;
#X connect 9 0 7 1;
#X connect 10 0 9 0;
#X connect 10 0 12 0;
#X connect 11 0 7 1;
#X connect 12 0 11 0;
#X connect 15 0 16 0;
#X connect 18 0 7 0;
#X connect 18 0 21 0;
#X connect 19 0 15 0;
#X connect 20 0 0 0;
#X connect 21 0 19 0;
#X restore 284 92 pd ctlmidi;
#X text 350 89 no está funcionando;
#X obj -19 40 path canales/lib;
#N canvas 576 304 450 300 vu_signal 0;
#X obj 13 119 multiplex 0 1;
#X obj 108 119 nbx 5 14 -1e+037 1e+037 0 0 empty empty empty 0 -8 0
10 -262144 -1 -1 0 256;
#X obj 205 117 multiplex 0 1;
#X obj 50 37 r /\$1/vuL_post;
#X obj 242 37 r /\$1/vuR_post;
#X obj 13 156 s /\$1/vuL_control;
#X obj 205 155 s /\$1/vuR_control;
#X obj 88 74 r vu_control;
#X obj 13 16 r /\$1/vu_pre;
#X obj 205 16 r /\$1/vu_pre;
#X connect 0 0 5 0;
#X connect 2 0 6 0;
#X connect 3 0 0 1;
#X connect 4 0 2 1;
#X connect 7 0 0 2;
#X connect 7 0 1 0;
#X connect 7 0 2 2;
#X connect 8 0 0 0;
#X connect 9 0 2 0;
#X restore 285 120 pd vu_signal;
#X obj -26 86 cacho~ \$2;
#N canvas 108 146 601 439 send-prepost 0;
#X obj -3 67 nbx 5 14 -1e+037 1e+037 0 0 empty empty empty 0 -8 0 10
-262144 -1 -1 0 256;
#X obj 109 70 multiplex~ 0 1;
#X obj -3 28 r bus_control;
#X obj 94 153 cnv 15 160 80 empty empty Send_1 5 12 0 14 -233017 -66577
0;
#X obj 103 211 rita~ \$4_L;
#N canvas 111 266 608 250 send 0;
#X obj 21 124 outlet~;
#X obj 22 84 *~ 0;
#X obj 148 53 / 127;
#X obj 148 84 nbx 5 14 -1e+037 1e+037 0 0 empty empty empty 0 -8 0
10 -262144 -1 -1 0 256;
#X obj 21 22 r~ \$0_send;
#X obj 148 21 r /\$1/send1;
#X connect 1 0 0 0;
#X connect 2 0 3 0;
#X connect 2 0 1 1;
#X connect 4 0 1 0;
#X connect 5 0 2 0;
#X restore 104 180 pd send;
#X obj 183 211 rita~ \$4_R;
#X obj 264 153 cnv 15 160 80 empty empty Send_2 5 12 0 14 -233017 -66577
0;
#N canvas 536 236 608 250 send 0;
#X obj 21 124 outlet~;
#X obj 22 84 *~ 0;
#X obj 148 53 / 127;
#X obj 148 84 nbx 5 14 -1e+037 1e+037 0 0 empty empty empty 0 -8 0
10 -262144 -1 -1 0 256;
#X obj 21 22 r~ \$0_send;
#X obj 148 22 r /\$1/send2;
#X connect 1 0 0 0;
#X connect 2 0 3 0;
#X connect 2 0 1 1;
#X connect 4 0 1 0;
#X connect 5 0 2 0;
#X restore 274 180 pd send;
#X obj 94 243 cnv 15 160 80 empty empty Send_3 5 12 0 14 -233017 -66577
0;
#N canvas 536 236 608 250 send 0;
#X obj 21 124 outlet~;
#X obj 22 84 *~ 0;
#X obj 148 53 / 127;
#X obj 148 84 nbx 5 14 -1e+037 1e+037 0 0 empty empty empty 0 -8 0
10 -262144 -1 -1 0 256;
#X obj 21 22 r~ \$0_send;
#X obj 148 22 r /\$1/send3;
#X connect 1 0 0 0;
#X connect 2 0 3 0;
#X connect 2 0 1 1;
#X connect 4 0 1 0;
#X connect 5 0 2 0;
#X restore 104 270 pd send;
#X obj 264 243 cnv 15 160 80 empty empty Send_4 5 12 0 14 -233017 -66577
0;
#N canvas 536 236 608 250 send 0;
#X obj 21 124 outlet~;
#X obj 22 84 *~ 0;
#X obj 148 53 / 127;
#X obj 148 84 nbx 5 14 -1e+037 1e+037 0 0 empty empty empty 0 -8 0
10 -262144 -1 -1 0 256;
#X obj 21 22 r~ \$0_send;
#X obj 148 22 r /\$1/send4;
#X connect 1 0 0 0;
#X connect 2 0 3 0;
#X connect 2 0 1 1;
#X connect 4 0 1 0;
#X connect 5 0 2 0;
#X restore 274 270 pd send;
#X obj 108 109 s~ \$0_send;
#X obj 273 211 rita~ \$5_L;
#X obj 353 211 rita~ \$5_R;
#X obj 103 301 rita~ \$6_L;
#X obj 183 301 rita~ \$6_R;
#X obj 273 301 rita~ \$7_L;
#X obj 353 301 rita~ \$7_R;
#X obj 110 28 r~ /\$1/bus_pre;
#X obj 212 29 r~ /\$1/bus_post;
#X connect 1 0 13 0;
#X connect 2 0 0 0;
#X connect 2 0 1 0;
#X connect 5 0 4 0;
#X connect 5 0 6 0;
#X connect 8 0 14 0;
#X connect 8 0 15 0;
#X connect 10 0 16 0;
#X connect 10 0 17 0;
#X connect 12 0 18 0;
#X connect 12 0 19 0;
#X connect 20 0 1 0;
#X connect 21 0 1 1;
#X restore 286 149 pd send-prepost Mto4;
#N canvas 203 218 456 210 fase 0;
#X obj 5 23 inlet~;
#X obj 5 163 outlet~;
#X obj 5 121 *~;
#X obj 50 23 r /\$1/fase_signal;
#X obj 50 50 sel 0 1;
#X obj 82 85 -1;
#X obj 50 85 1;
#X obj 164 24 init 0;
#X connect 0 0 2 0;
#X connect 2 0 1 0;
#X connect 3 0 4 0;
#X connect 4 0 6 0;
#X connect 4 1 5 0;
#X connect 5 0 2 1;
#X connect 6 0 2 1;
#X connect 7 0 4 0;
#X restore -26 112 pd fase;
#N canvas 299 272 450 298 bus-pre~ 0;
#X obj 12 10 inlet~;
#X obj 13 73 outlet~;
#X obj 77 43 s~ /\$1/bus_pre;
#X connect 0 0 1 0;
#X connect 0 0 2 0;
#X restore -27 192 pd bus-pre~;
#N canvas 318 334 450 300 bus_post~ 0;
#X obj 19 16 inlet~;
#X obj 20 69 outlet~;
#X obj 33 41 s~ /\$1/bus_post;
#X connect 0 0 1 0;
#X connect 0 0 2 0;
#X restore -26 288 pd bus_post~;
#N canvas 484 387 450 300 vu-pre~ 0;
#X obj 13 -1 vu~;
#X obj 14 -38 inlet~;
#X obj 13 53 outlet~;
#X obj 28 22 s /\$1/vu_pre;
#X connect 0 0 2 0;
#X connect 0 1 3 0;
#X connect 1 0 0 0;
#X restore -26 138 pd vu-pre~;
#X connect 1 0 17 0;
#X connect 2 0 4 0;
#X connect 3 0 5 0;
#X connect 3 1 6 0;
#X connect 4 0 18 0;
#X connect 5 0 7 0;
#X connect 6 0 8 0;
#X connect 14 0 16 0;
#X connect 16 0 19 0;
#X connect 17 0 2 0;
#X connect 18 0 3 0;
#X connect 18 0 3 1;
#X connect 19 0 1 0;
