#N canvas 770 321 536 467 10;
#X declare -lib cachorita;
#X declare -path lib;
#X text 108 13 \$1 nombre del canal \$2 in (etiqueta) \$3 out (etiqueta)
\$4 envio 1 (etiqueta) \$5;
#N canvas 677 110 293 195 solo-mute-signal~ 0;
#X obj 75 185 r mute_all;
#X floatatom 72 69 5 0 0 0 - - -;
#X obj -11 18 inlet~;
#X obj -13 271 outlet~;
#X text -9 285 audio;
#X obj -12 69 solo-signal~;
#X obj -12 148 mute-signal~;
#X obj -12 215 muteall-signal~;
#X obj 57 42 r /\$1/solo_signal;
#X obj 57 119 r /\$1/mute_signal;
#X connect 0 0 7 1;
#X connect 2 0 5 0;
#X connect 5 0 6 0;
#X connect 5 1 3 0;
#X connect 6 0 7 0;
#X connect 7 0 3 0;
#X connect 8 0 5 1;
#X connect 8 0 1 0;
#X connect 9 0 6 1;
#X restore -26 222 pd solo-mute-signal~;
#X obj -25 15 import cachorita;
#N canvas 1033 283 450 300 vu_signal 0;
#X obj 13 119 multiplex 0 1;
#X obj 108 119 nbx 5 14 -1e+37 1e+37 0 0 empty empty empty 0 -8 0 10
-262144 -1 -1 0 256;
#X obj 88 74 r vu_control;
#X obj 13 11 r /\$1/vu_pre;
#X obj 50 37 r /\$1/vu_post;
#X obj 215 117 multiplex 0 1;
#X obj 252 37 r /\$1/vuR_post;
#X obj 215 155 s /\$1/vuR_control;
#X obj 13 155 s /\$1/vuL_control;
#X obj 215 8 r /\$1/vu_pre;
#X connect 0 0 8 0;
#X connect 2 0 0 2;
#X connect 2 0 1 0;
#X connect 2 0 5 2;
#X connect 3 0 0 0;
#X connect 4 0 0 1;
#X connect 5 0 7 0;
#X connect 6 0 5 1;
#X connect 9 0 5 0;
#X restore 285 120 pd vu_signal;
#X obj -25 40 path lib;
#N canvas 701 128 412 272 send-prepost 0;
#X obj -3 67 nbx 5 14 -1e+37 1e+37 0 0 empty empty empty 0 -8 0 10
-262144 -1 -1 0 256;
#X obj 109 70 multiplex~ 0 1;
#X obj -3 28 r bus_control;
#X obj 108 153 cnv 15 160 80 empty empty Send_1 5 12 0 14 -233017 -66577
0;
#X obj 117 211 rita~ \$4_L;
#X obj 108 109 s~ \$0_send;
#N canvas 532 246 608 250 send 0;
#X obj 21 124 outlet~;
#X obj 22 84 *~ 0;
#X obj 148 53 / 127;
#X obj 148 84 nbx 5 14 -1e+37 1e+37 0 0 empty empty empty 0 -8 0 10
-262144 -1 -1 0 256;
#X obj 21 22 r~ \$0_send;
#X obj 148 22 r /\$1/send1;
#X connect 1 0 0 0;
#X connect 2 0 3 0;
#X connect 2 0 1 1;
#X connect 4 0 1 0;
#X connect 5 0 2 0;
#X restore 118 180 pd send;
#X obj 197 211 rita~ \$4_R;
#X obj 110 28 r~ /\$1/bus_pre;
#X obj 212 29 r~ /\$1/bus_post;
#X connect 1 0 5 0;
#X connect 2 0 0 0;
#X connect 2 0 1 0;
#X connect 6 0 4 0;
#X connect 6 0 7 0;
#X connect 8 0 1 0;
#X connect 9 0 1 1;
#X restore 285 146 pd send-prepost;
#N canvas 203 218 456 210 fase 0;
#X obj -5 13 inlet~;
#X obj -5 153 outlet~;
#X obj -5 111 *~;
#X obj 40 13 r /\$1/fase_signal;
#X obj 40 40 sel 0 1;
#X obj 72 75 -1;
#X obj 40 75 1;
#X obj 154 14 init 0;
#X connect 0 0 2 0;
#X connect 2 0 1 0;
#X connect 3 0 4 0;
#X connect 4 0 6 0;
#X connect 4 1 5 0;
#X connect 5 0 2 1;
#X connect 6 0 2 1;
#X connect 7 0 4 0;
#X restore -26 115 pd fase;
#N canvas 649 317 450 298 bus-pre~ 0;
#X obj 12 10 inlet~;
#X obj 13 73 outlet~;
#X obj 77 43 s~ /\$1/bus_pre;
#X connect 0 0 1 0;
#X connect 0 0 2 0;
#X restore -27 194 pd bus-pre~;
#X connect 7 0 1 0;
