#N canvas 52 82 1060 661 10;
#X declare -lib pdcontainer;
#X declare -lib pdcontainer;
#X declare -lib pdcontainer;
#X declare -lib pdcontainer;
#X declare -lib pdcontainer;
#X text 129 13 CONTROL;
#X obj 672 3 cnv 15 170 120 empty empty Canvas 20 12 0 14 -233017 -66577
0;
#X obj 675 52 symbol \$1;
#X obj 675 31 initbang;
#X msg 675 79 label \$1;
#X obj 498 128 cnv 15 500 250 empty empty State 20 12 0 14 -233017
-66577 0;
#X obj 498 3 cnv 15 160 120 empty empty Ventana_Emergente 20 12 0 14
-233017 -66577 0;
#X obj 504 181 nbx 5 14 -1e+37 1e+37 0 0 empty empty empty 0 -8 0 10
-262144 -1 -1 2 256;
#X obj 504 230 iem_receive;
#X obj 504 260 symbol;
#X obj 675 101 s canvas_set_\$0;
#X obj 737 52 r canvas_name_\$0;
#X obj 504 292 s canvas_name_\$0;
#X obj 141 275 vu 15 120 empty empty -1 -8 0 10 -66577 -1 0 0;
#X obj 158 275 vu 15 120 empty empty -1 -8 0 10 -66577 -1 0 0;
#X obj 152 421 tgl 17 0 empty empty pre 20 9 0 12 -262144 -1 -4160
0 1;
#X obj 207 285 r /\$1/vuL_control;
#X obj 207 306 r /\$1/vuR_control;
#X obj 211 442 s \$0_editor;
#X obj -17 275 r canvas_name_\$0;
#X obj 152 440 ui_editor;
#X obj 102 272 ui_fader \$1;
#X obj 102 402 ui_pan \$1;
#X obj 152 401 ui_fase \$1;
#X obj 151 479 ui_solo \$1;
#N canvas 1 82 450 300 (subpatch) 0;
#X array /\$1/eq_plot 556 float 0;
#X coords 0 1 554 -1 100 70 1 0 0;
#X restore 101 121 graph;
#N canvas 1 82 450 300 (subpatch) 0;
#X array /\$1/spectrum 256 float 0;
#X coords 0 1 256 0 100 70 1 0 0;
#X restore 101 121 graph;
#X obj 101 101 cnv 15 100 20 empty canvas_set_\$0 SEND1 10 10 0 14
-233017 -66577 0;
#X msg 516 54 vis \$1;
#X obj 516 75 s pd-editor\$1;
#X obj 516 32 r \$0_editor;
#N canvas 799 440 937 319 editor\$1 0;
#X obj 9 223 s /\$1/eq_params;
#X obj 9 -38 metrum 50 1;
#X obj 9 15 gui.eq7.mmb \$1;
#X obj 9 -9 tabdump /\$1/spectrum;
#X connect 1 0 3 0;
#X connect 2 0 0 0;
#X connect 3 0 2 0;
#X restore 516 98 pd editor\$1;
#X obj 504 159 sfruit/instance channel_2;
#X msg 504 203 set channel_1_2_\$1;
#X obj 152 460 ui_mute \$1;
#X connect 2 0 4 0;
#X connect 3 0 2 0;
#X connect 4 0 10 0;
#X connect 7 0 33 0;
#X connect 8 0 9 0;
#X connect 9 0 12 0;
#X connect 11 0 4 0;
#X connect 16 0 13 0;
#X connect 17 0 14 0;
#X connect 19 0 21 0;
#X connect 19 0 22 0;
#X connect 19 0 23 0;
#X connect 19 0 24 0;
#X connect 19 0 34 0;
#X connect 20 0 18 0;
#X connect 28 0 29 0;
#X connect 30 0 28 0;
#X connect 32 0 7 0;
#X connect 33 0 8 0;
#X coords 0 -1 1 1 102 400 2 100 100;
