#N canvas 232 541 515 471 10;
#X obj 74 355 iem_send;
#X msg 267 319 set pd-\$1;
#X obj 267 255 loadbang;
#X obj 74 -10 inlet;
#X obj 123 112 f \$1;
#X obj 123 136 - 1;
#X obj 123 87 initbang;
#X obj 74 163 for++ 0 1;
#X obj 324 128 loadbang;
#X msg 28 116 clear;
#X obj 160 45 nbx 5 14 -1e+37 1e+37 0 0 empty empty empty 0 -8 0 10
-262144 -1 -1 0 256;
#X obj 227 45 unpack;
#X obj 74 235 expr $f1*$f2 \; $f1*$f3;
#X obj 401 130 loadbang;
#X obj 401 162 f 0;
#X obj 433 162 f 25;
#X obj 74 17 route bang clear float step list;
#X obj 220 173 list;
#X obj 220 138 t b f;
#X obj 217 211 list-idx 2;
#X obj 74 205 t f f f;
#X obj 324 161 symbol \$2;
#X obj 267 288 symbol \$3;
#X obj 74 293 pack f f s s;
#X msg 74 321 obj \$1 \$2 \$3 \$4;
#X obj 264 96 list length;
#X connect 1 0 0 1;
#X connect 2 0 22 0;
#X connect 3 0 16 0;
#X connect 4 0 5 0;
#X connect 5 0 7 1;
#X connect 6 0 4 0;
#X connect 7 0 20 0;
#X connect 8 0 21 0;
#X connect 9 0 0 0;
#X connect 10 0 5 0;
#X connect 11 0 12 1;
#X connect 11 1 12 2;
#X connect 12 0 23 0;
#X connect 12 1 23 1;
#X connect 13 0 14 0;
#X connect 13 0 15 0;
#X connect 14 0 12 1;
#X connect 15 0 12 2;
#X connect 16 0 7 0;
#X connect 16 1 9 0;
#X connect 16 2 10 0;
#X connect 16 3 11 0;
#X connect 16 4 17 1;
#X connect 16 4 25 0;
#X connect 17 0 19 0;
#X connect 18 0 17 0;
#X connect 18 1 19 1;
#X connect 19 0 23 3;
#X connect 20 0 12 0;
#X connect 20 2 18 0;
#X connect 21 0 23 2;
#X connect 22 0 1 0;
#X connect 23 0 24 0;
#X connect 24 0 0 0;
#X connect 25 0 5 0;
