#N canvas 872 353 423 226 10;
#X msg 65 44 get \$1;
#X obj 65 22 symbol \$1;
#X obj 65 67 h_map automatrix_out;
#X obj 65 115 unpack s f;
#X obj 65 91 s2l _;
#X obj 16 180 outlet;
#X obj 16 156 f;
#X obj 16 62 inlet;
#X obj 16 102 b;
#X obj 65 1 initbang;
#X connect 0 0 2 0;
#X connect 1 0 0 0;
#X connect 2 0 4 0;
#X connect 3 1 6 0;
#X connect 4 0 3 0;
#X connect 6 0 5 0;
#X connect 7 0 8 0;
#X connect 8 0 6 0;
#X connect 9 0 1 0;
