#N canvas 110 509 812 425 10;
#X obj 57 62 initbang;
#X obj 57 89 t b b;
#X msg 91 115 top;
#X msg 57 115 pop;
#X obj 371 209 closebang;
#X obj 371 238 f;
#X msg 371 297 push \$1;
#X obj 193 53 r \$0-num;
#X obj 57 170 s \$0-num;
#X obj 57 206 r \$0-num;
#X obj 410 238 r \$0-num;
#X obj 57 266 pack f s;
#X obj 116 267 symbol \$1;
#X obj 57 236 t f b;
#X obj 532 41 r \$0-num;
#X obj 532 118 outlet~;
#X obj 532 87 r~;
#X msg 532 63 set automatrix_out_\$1;
#X obj 57 146 h_stack automatrix_out;
#X obj 371 321 h_stack automatrix_out;
#X obj 193 76 t b f;
#X msg 495 298 remove \$1;
#X obj 495 274 symbol \$1;
#X obj 371 264 t f b;
#X obj 193 100 symbol \$1;
#X msg 193 123 add \$1;
#X msg 262 116 out_\$1;
#X msg 637 267 output \$1 is free;
#X obj 637 291 print MATRIX OUTPUT:;
#X msg 57 290 output \$1 is in use by \$2;
#X obj 57 315 print MATRIX OUTPUT;
#X obj 659 84 catch~ \$1;
#X obj 343 91 s automatrix_update;
#X obj 343 65 loadbang;
#X obj 403 66 closebang;
#X obj 193 146 h_map automatrix_out;
#X obj 495 321 h_map automatrix_out;
#X connect 0 0 1 0;
#X connect 1 0 3 0;
#X connect 1 1 2 0;
#X connect 2 0 18 0;
#X connect 3 0 18 0;
#X connect 4 0 5 0;
#X connect 5 0 27 0;
#X connect 5 0 23 0;
#X connect 6 0 19 0;
#X connect 7 0 20 0;
#X connect 9 0 13 0;
#X connect 10 0 5 1;
#X connect 11 0 29 0;
#X connect 12 0 11 1;
#X connect 13 0 11 0;
#X connect 13 1 12 0;
#X connect 14 0 17 0;
#X connect 16 0 15 0;
#X connect 17 0 16 0;
#X connect 18 0 8 0;
#X connect 20 0 24 0;
#X connect 20 1 26 0;
#X connect 21 0 36 0;
#X connect 22 0 21 0;
#X connect 23 0 6 0;
#X connect 23 1 22 0;
#X connect 24 0 25 0;
#X connect 25 0 35 0;
#X connect 26 0 35 1;
#X connect 27 0 28 0;
#X connect 29 0 30 0;
#X connect 31 0 15 0;
#X connect 33 0 32 0;
#X connect 34 0 32 0;
