#N canvas 720 486 304 226 10;
#X msg 50 53 get \$1;
#X obj 50 31 symbol \$1;
#X obj 4 182 outlet;
#X obj 50 124 unpack s f;
#X obj 50 100 s2l _;
#X obj 50 76 h_map automatrix_in;
#X obj 4 158 f;
#X obj 4 64 inlet;
#X obj 4 104 b;
#X obj 50 10 initbang;
#X connect 0 0 5 0;
#X connect 1 0 0 0;
#X connect 3 1 6 0;
#X connect 4 0 3 0;
#X connect 5 0 4 0;
#X connect 6 0 2 0;
#X connect 7 0 8 0;
#X connect 8 0 6 0;
#X connect 9 0 1 0;
