#N canvas 757 376 645 300 10;
#X obj 57 145 h_stack automatrix;
#X obj 57 62 initbang;
#X obj 57 89 t b b;
#X msg 91 115 top;
#X msg 57 115 pop;
#X obj 184 137 closebang;
#X obj 184 172 f;
#X msg 184 195 push \$1;
#X obj 184 219 h_stack automatrix;
#X obj 253 196 print MATRIX: input \$1 is free;
#X obj 58 255 print MATRIX: input \$1 is in use;
#X connect 0 0 6 1;
#X connect 0 0 10 0;
#X connect 1 0 2 0;
#X connect 2 0 4 0;
#X connect 2 1 3 0;
#X connect 3 0 0 0;
#X connect 4 0 0 0;
#X connect 5 0 6 0;
#X connect 6 0 7 0;
#X connect 6 0 9 0;
#X connect 7 0 8 0;
