#N canvas 731 448 1113 325 10;
#X declare -path ../state_manager;
#X declare -lib pdcontainer;
#X declare -lib pdcontainer;
#X declare -lib pdcontainer;
#X declare -lib pdcontainer;
#X declare -lib pdcontainer;
#X declare -lib pdcontainer;
#X declare -lib pdcontainer;
#X declare -lib pdcontainer;
#X obj -173 -35 osclearn;
#X obj -174 -57 path ../state_manager;
#X obj 59 11 maxlib/scale 0 1 0 127;
#X obj -175 72 osclearn;
#X obj -175 121 maxlib/scale 0 1 0 127;
#X obj 59 120 maxlib/scale 0 1 0 127;
#X obj -175 96 unpack f f;
#X obj -173 -12 unpack f f;
#X obj 59 38 state_io_set /automatrix/1/2;
#X obj -175 148 state_io_set /automatrix/2/1;
#X obj 59 146 state_io_set /automatrix/2/2;
#X obj -173 39 state_io_set /automatrix/1/1;
#X obj -173 12 maxlib/scale 0 1 0 127;
#X obj 599 -87 osclearn;
#X obj 599 -59 maxlib/scale 0 1 0 127;
#X obj 600 0 osclearn;
#X obj 600 28 maxlib/scale 0 1 0 127;
#X obj 599 -35 state_io_set /mul/2;
#X obj 600 53 state_io_set /add/2;
#X obj 339 -29 state_io_set /mul/1;
#X obj 340 57 state_io_set /add/1;
#X obj 339 -82 osclearn;
#X obj 339 -54 maxlib/scale 0 1 0 127;
#X obj 340 5 osclearn;
#X obj 60 -75 osclearn;
#X obj 59 -45 osclearn;
#X obj 60 66 osclearn;
#X obj 59 90 osclearn;
#X obj 340 33 maxlib/scale 0 1 0 5000;
#X connect 0 0 7 0;
#X connect 2 0 8 0;
#X connect 3 0 6 0;
#X connect 4 0 9 0;
#X connect 5 0 10 0;
#X connect 6 0 4 0;
#X connect 6 1 5 0;
#X connect 7 0 12 0;
#X connect 7 1 2 0;
#X connect 12 0 11 0;
#X connect 13 0 14 0;
#X connect 14 0 17 0;
#X connect 15 0 16 0;
#X connect 16 0 18 0;
#X connect 21 0 22 0;
#X connect 22 0 19 0;
#X connect 23 0 28 0;
#X connect 24 0 12 0;
#X connect 25 0 2 0;
#X connect 26 0 4 0;
#X connect 27 0 5 0;
#X connect 28 0 20 0;
