#N canvas 6 417 796 409 10;
#X declare -lib pdcontainer;
#X declare -lib pdcontainer;
#X declare -path ../state_manager;
#X obj 32 179 osc~ 220;
#X obj 32 204 automatrix_input osc1_out;
#X obj 206 46 automatrix_output osc1_in;
#X obj 205 204 automatrix_input osc2_out;
#X obj 31 46 automatrix_output osc2_in;
#X obj 205 177 osc~ 2;
#X obj 31 145 +~ 100;
#X obj 31 97 *~ 100;
#X obj 206 135 +~ 100;
#X obj 205 91 *~ 100;
#X obj 42 -18 path ../state_manager;
#X obj 66 120 r_line /add/1 50;
#X obj 64 69 r_line /mul/1 50;
#X obj 240 112 r_line /add/2 50;
#X obj 239 67 r_line /mul/2 50;
#X connect 0 0 1 0;
#X connect 2 0 9 0;
#X connect 4 0 7 0;
#X connect 5 0 3 0;
#X connect 6 0 0 0;
#X connect 7 0 6 0;
#X connect 8 0 5 0;
#X connect 9 0 8 0;
#X connect 11 0 6 1;
#X connect 12 0 7 1;
#X connect 13 0 8 1;
#X connect 14 0 9 1;
