#N canvas 9 111 1351 570 10;
#X msg 4 -113 start 1 \, step 42 42 \, bang;
#X obj 6 -293 loadbang;
#X obj -340 -98 t b b;
#X obj -376 7 * 42;
#X obj -254 5 * 42;
#X obj -423 -267 r automatrix_update;
#X obj -376 150 pack f f;
#X obj -376 79 expr if($f1>0 && $f2>0 \, $f1 \, 1) \; if($f1>0 && $f2>0
\, $f2 \, 1);
#X msg -376 173 donecanvasdialog 0 0 1 0 0 0 0 \$2 \$1 0 -26;
#X obj -376 32 + 24;
#X obj -22 -294 bng 15 250 50 0 empty empty empty 17 7 0 10 -262144
-1 -1;
#X obj 4 -62 namecanvas pd-\$0parent;
#N canvas 578 310 450 300 \$0child 1;
#X coords 0 0 1 1 134 66 2 -52 -26;
#X restore 0 -26 pd \$0child;
#X obj -347 250 s pd-\$0child;
#X obj -376 199 s pd-\$0parent;
#X obj 85 -287 inlet;
#X msg 65 -150 clear;
#X obj 179 -132 pack f f;
#X obj 276 -105 print;
#X msg 179 -107 size \$1 \$2;
#X obj -254 28 + 50;
#X obj 356 -102 bng 15 250 50 0 empty empty empty 17 7 0 10 -262144
-1 -1;
#X obj 4 -264 t b b b b b b b;
#X msg -347 224 donecanvasdialog 0 0 -1 0 0 0 0 \$2 \$1 -52 -26;
#X msg 401 -94 step 0 42 \, offset -52 0;
#X obj 165 -238 automatrix_get_size_channels_out;
#X obj 300 -198 automatrix_get_size_channels_in;
#X obj -376 -60 automatrix_get_size_channels_out;
#X obj -254 -25 automatrix_get_size_channels_in;
#X obj 4 -85 autoconstructor_mtx_ij_channels 1 1 knob_ij \$0child;
#X obj 324 -48 autoconstructor_channels_out 10 channel_name \$0child
;
#X connect 0 0 29 0;
#X connect 1 0 22 0;
#X connect 2 0 27 0;
#X connect 2 1 28 0;
#X connect 3 0 9 0;
#X connect 4 0 20 0;
#X connect 6 0 8 0;
#X connect 6 0 23 0;
#X connect 7 0 6 0;
#X connect 7 1 6 1;
#X connect 8 0 14 0;
#X connect 9 0 7 0;
#X connect 10 0 22 0;
#X connect 15 0 22 0;
#X connect 16 0 29 0;
#X connect 17 0 19 0;
#X connect 17 0 18 0;
#X connect 19 0 29 0;
#X connect 20 0 7 1;
#X connect 21 0 30 0;
#X connect 22 0 0 0;
#X connect 22 1 2 0;
#X connect 22 2 30 0;
#X connect 22 3 24 0;
#X connect 22 4 25 0;
#X connect 22 5 26 0;
#X connect 22 6 16 0;
#X connect 23 0 13 0;
#X connect 24 0 30 0;
#X connect 25 0 17 0;
#X connect 25 0 30 0;
#X connect 26 0 17 1;
#X connect 27 0 3 0;
#X connect 28 0 4 0;
#X coords 0 0 1 1 134 66 1 0 -26;
