#N canvas 73 624 450 300 10;
#X declare -lib pdcontainer;
#X declare -lib pdcontainer;
#X obj 32 149 osc~ 220;
#X obj 32 174 automatrix_input osc1_out;
#X obj 206 96 automatrix_output osc1_in;
#X obj 204 174 automatrix_input osc2_out;
#X obj 31 96 automatrix_output osc2_in;
#X obj 204 144 osc~ 2;
#X obj 205 119 *~ 100;
#X obj 31 122 +~ 400;
#X connect 0 0 1 0;
#X connect 2 0 6 0;
#X connect 4 0 7 0;
#X connect 5 0 3 0;
#X connect 6 0 5 0;
#X connect 7 0 0 0;
