#N canvas 555 239 726 546 10;
#X obj -11 -224 loadbang;
#X obj -343 -213 r automatrix_update;
#X obj 66 -225 bng 15 250 50 0 empty empty empty 17 7 0 10 -262144
-1 -1;
#X obj -320 -46 * 42;
#X obj -320 -23 - 2;
#X obj -12 -62 namecanvas \$0parent;
#N canvas 1250 366 450 300 \$0child 0;
#X coords 0 -1 1 1 40 240 2 0 0;
#X restore 0 0 pd \$0child;
#X obj -291 69 s pd-\$0child;
#X msg 138 -118 clear;
#X msg 37 -119 step 42 0;
#X obj -9 -196 t b b b b b b;
#X obj 97 -224 inlet;
#X obj -320 12 t f f;
#X obj -320 -71 moses 0;
#X obj -347 -46 0;
#X obj -321 119 s \$0parent;
#X obj 55 -151 automatrix_get_size_channels_in;
#X obj -321 -101 automatrix_get_size_channels_in;
#X obj -11 -86 autoconstructor_channels_in 10 channel \$0child;
#X msg -321 94 donecanvasdialog 1 -1 -1 0 -1 1 1 \$1 240 0 0;
#X msg -291 45 donecanvasdialog 1 -1 -1 0 -1 1 1 \$1 240 0 0;
#X connect 0 0 10 0;
#X connect 2 0 10 0;
#X connect 3 0 4 0;
#X connect 4 0 12 0;
#X connect 8 0 18 0;
#X connect 9 0 18 0;
#X connect 9 0 18 0;
#X connect 10 0 17 0;
#X connect 10 2 18 0;
#X connect 10 3 9 0;
#X connect 10 4 16 0;
#X connect 10 5 8 0;
#X connect 11 0 2 0;
#X connect 12 0 20 0;
#X connect 12 1 19 0;
#X connect 13 0 14 0;
#X connect 13 1 3 0;
#X connect 14 0 12 0;
#X connect 16 0 18 0;
#X connect 17 0 13 0;
#X connect 19 0 15 0;
#X connect 20 0 7 0;
#X coords 0 -1 1 1 40 240 2 0 0;
