#N canvas 646 664 397 300 10;
#X obj 71 21 h_map automatrix;
#X msg 71 -4 get \$1;
#X obj 71 -29 symbol \$1;
#X obj 7 48 inlet~;
#X msg 71 67 set automatrix_\$1;
#X obj 7 96 throw~;
#X obj 71 -54 initbang;
#X obj 165 46 unsymbol;
#X obj 165 67 print MATRIXSEND;
#X connect 0 0 4 0;
#X connect 0 0 7 0;
#X connect 1 0 0 0;
#X connect 2 0 1 0;
#X connect 3 0 5 0;
#X connect 4 0 5 0;
#X connect 6 0 2 0;
#X connect 7 0 8 0;
