#N canvas 204 485 641 438 10;
#X obj 64 345 iem_send;
#X msg 257 309 set pd-\$1;
#X obj 257 245 loadbang;
#X obj 272 82 loadbang;
#X obj 64 195 t f f;
#X obj 64 -50 inlet;
#X obj 113 52 f \$1;
#X obj 113 96 - 1;
#X obj 113 10 initbang;
#X obj 64 123 for++ 0 1;
#X obj 354 81 loadbang;
#X msg 18 76 clear;
#X obj 217 5 unpack;
#X obj 64 283 pack f f f s s;
#X msg 64 311 obj \$1 \$2 \$4 \$3 \$5;
#X obj 434 83 loadbang;
#X obj 64 225 expr $f1%$f4*$f2 \; int($f1/$f4)*$f3;
#X obj 272 115 symbol \$3;
#X obj 257 278 symbol \$4;
#X obj 354 114 symbol \$5;
#X obj 145 52 f \$2;
#X obj 113 75 *;
#X obj 64 -23 route bang clear step;
#X obj 184 346 print;
#X obj 113 31 t b b;
#X obj 434 115 f 50;
#X obj 466 115 f 50;
#X connect 1 0 0 1;
#X connect 2 0 18 0;
#X connect 3 0 17 0;
#X connect 4 0 16 0;
#X connect 4 1 13 2;
#X connect 5 0 22 0;
#X connect 6 0 21 0;
#X connect 6 0 16 3;
#X connect 7 0 9 1;
#X connect 8 0 24 0;
#X connect 9 0 4 0;
#X connect 10 0 19 0;
#X connect 11 0 0 0;
#X connect 12 0 16 1;
#X connect 12 1 16 2;
#X connect 13 0 14 0;
#X connect 14 0 0 0;
#X connect 14 0 23 0;
#X connect 15 0 25 0;
#X connect 15 0 26 0;
#X connect 16 0 13 0;
#X connect 16 1 13 1;
#X connect 17 0 13 3;
#X connect 18 0 1 0;
#X connect 19 0 13 4;
#X connect 20 0 21 1;
#X connect 21 0 7 0;
#X connect 22 0 9 0;
#X connect 22 1 11 0;
#X connect 22 2 12 0;
#X connect 24 0 6 0;
#X connect 24 1 20 0;
#X connect 25 0 16 1;
#X connect 26 0 16 2;
