#N canvas 812 514 450 300 10;
#X msg 157 80 getsize;
#X obj 97 146 list-undrip;
#X msg 97 80 keys;
#X obj 97 171 list-rev;
#X obj 190 172 f \$1;
#X obj 97 52 t b b b;
#X obj 97 200 list-idx;
#X obj 97 -26 inlet;
#X obj 97 230 outlet;
#X obj 97 4 route bang float;
#X obj 113 29 t b f;
#X obj 97 113 h_map automatrix_out;
#X connect 0 0 11 0;
#X connect 1 0 3 0;
#X connect 2 0 11 0;
#X connect 3 0 6 0;
#X connect 4 0 6 1;
#X connect 5 0 2 0;
#X connect 5 1 0 0;
#X connect 5 2 4 0;
#X connect 6 0 8 0;
#X connect 7 0 9 0;
#X connect 9 0 5 0;
#X connect 9 1 10 0;
#X connect 10 0 5 0;
#X connect 10 1 4 1;
#X connect 11 0 1 0;
#X connect 11 1 1 1;
