#N canvas 762 296 646 415 10;
#X obj 54 335 iem_send;
#X msg 247 299 set pd-\$1;
#X obj 247 235 loadbang;
#X obj 169 103 loadbang;
#X obj 54 -30 inlet;
#X obj 169 136 symbol \$2;
#X obj 247 268 symbol \$3;
#X obj 103 92 f \$1;
#X obj 103 116 - 1;
#X obj 103 67 initbang;
#X obj 54 143 for++ 0 1;
#X obj 251 102 loadbang;
#X obj 251 135 symbol \$4;
#X msg 8 96 clear;
#X obj 135 29 nbx 5 14 -1e+37 1e+37 0 0 empty empty empty 0 -8 0 10
-262144 -1 -1 0 256;
#X obj 203 30 unpack;
#X obj 54 273 pack f f f s s;
#X msg 54 301 obj \$1 \$2 \$4 \$3 \$5;
#X obj 331 104 loadbang;
#X obj 331 136 f 0;
#X obj 363 136 f 25;
#X obj 25 156 bng 15 250 50 0 empty empty empty 17 7 0 10 -262144 -1
-1;
#X obj 54 52 spigot;
#X obj 54 185 t f f f;
#X obj 325 233 print;
#X obj 54 -3 route bang clear float step offset;
#X obj 256 29 unpack;
#X obj 54 215 expr $f1*$f2+$f4 \; $f1*$f3+$f5;
#X obj 203 201 automatrix_get_channel_out_name;
#X connect 1 0 0 1;
#X connect 2 0 6 0;
#X connect 3 0 5 0;
#X connect 4 0 25 0;
#X connect 5 0 16 3;
#X connect 6 0 1 0;
#X connect 7 0 8 0;
#X connect 8 0 10 1;
#X connect 9 0 7 0;
#X connect 10 0 21 0;
#X connect 10 0 23 0;
#X connect 11 0 12 0;
#X connect 13 0 0 0;
#X connect 14 0 8 0;
#X connect 14 0 22 1;
#X connect 15 0 27 1;
#X connect 15 1 27 2;
#X connect 16 0 17 0;
#X connect 17 0 0 0;
#X connect 18 0 19 0;
#X connect 18 0 20 0;
#X connect 19 0 27 1;
#X connect 22 0 10 0;
#X connect 23 0 27 0;
#X connect 23 1 16 2;
#X connect 23 2 28 0;
#X connect 25 0 22 0;
#X connect 25 1 13 0;
#X connect 25 2 14 0;
#X connect 25 3 15 0;
#X connect 25 4 26 0;
#X connect 26 0 27 3;
#X connect 26 1 27 4;
#X connect 27 0 16 0;
#X connect 27 1 16 1;
#X connect 28 0 16 4;
#X connect 28 0 24 0;
