#N canvas 382 735 690 288 10;
#X declare -lib pdcontainer;
#X declare -lib pdcontainer;
#X declare -path ../state_manager;
#X obj 32 198 osc~ 220;
#X obj 32 224 automatrix_input osc1_out;
#X obj 205 222 automatrix_input osc2_out;
#X obj 205 196 osc~ 2;
#X obj 31 158 +~ 100;
#X obj 31 85 *~ 100;
#X obj 206 166 +~ 100;
#X obj 205 92 *~ 100;
#X obj 42 -18 path ../state_manager;
#X obj 31 16 automatrix_output osc1_in;
#X obj 206 16 automatrix_output osc2_in;
#X obj 75 85 r_line /mul/1 50;
#X obj 76 158 r_line /add/1 50;
#X obj 79 123 hsl 80 30 0.1 1000 1 0 empty empty empty -2 -8 0 10 -262144
-1 -1 0 1;
#X obj 256 128 hsl 80 30 0.1 1000 1 0 empty empty empty -2 -8 0 10
-262144 -1 -1 0 1;
#X obj 253 164 r_line /add/2 50;
#X obj 255 55 hsl 80 30 0 50 0 0 empty empty empty -2 -8 0 10 -262144
-1 -1 0 1;
#X obj 252 91 r_line /mul/2 50;
#X obj 78 49 hsl 80 30 0 50 0 0 empty empty empty -2 -8 0 10 -262144
-1 -1 0 1;
#X connect 0 0 1 0;
#X connect 3 0 2 0;
#X connect 4 0 0 0;
#X connect 5 0 4 0;
#X connect 6 0 3 0;
#X connect 7 0 6 0;
#X connect 9 0 5 0;
#X connect 10 0 7 0;
#X connect 11 0 5 1;
#X connect 12 0 4 1;
#X connect 13 0 12 0;
#X connect 14 0 15 0;
#X connect 15 0 6 1;
#X connect 16 0 17 0;
#X connect 17 0 7 1;
#X connect 18 0 11 0;
