#N canvas 384 179 1107 492 10;
#X declare -path ../state_manager;
#X declare -lib sfruit;
#X declare -lib pdcontainer;
#X declare -lib sfruit;
#X declare -lib pdcontainer;
#X declare -lib sfruit;
#X declare -lib pdcontainer;
#X declare -lib sfruit;
#X declare -lib pdcontainer;
#X declare -lib pdcontainer;
#X declare -lib pdcontainer;
#X declare -lib pdcontainer;
#X declare -lib pdcontainer;
#X declare -lib pdcontainer;
#X declare -lib pdcontainer;
#X declare -lib pdcontainer;
#X declare -lib pdcontainer;
#X obj -47 20 automatrix_containers 20;
#X obj -47 -63 path ../state_manager;
#X msg -129 -23 print;
#X msg -129 3 clear;
#X obj 617 91 catch~ master_L;
#X obj 737 91 catch~ master_R;
#X obj 617 123 dac~ 1;
#X obj 737 125 dac~ 2;
#X obj -129 83 bng 15 250 50 0 empty empty empty 17 7 0 10 -262144
-1 -1;
#X obj -129 161 s reset;
#X obj -129 107 loadbang;
#X text 112 -23 fixed 20 x 20 audio matrix \, could be more \, just
make a bigger patch;
#X text 112 19 number of channels;
#X text 616 41 this channels are for monitoring \, they send audio
to master_L and master_R;
#X text 615 295 this knobs control de mtx_mul~ object;
#X text -62 86 this is a workaround \, because if everything is loaded
at the same time it makes some conflicts and the stack is not updated
properly;
#X obj 325 298 automatrix_knobs;
#X obj 325 272 r reset;
#X obj -47 -18 automatrix20x20;
#X obj 377 43 automatrix_faders;
#X obj 377 21 r reset;
#X msg -61 212 \; pd open automatrix-help-aux.pd \$1;
#X obj -61 192 getdir;
#X obj -61 166 b;
#X obj -61 137 del 100;
#X obj -129 136 del 200;
#X connect 2 0 0 0;
#X connect 3 0 0 0;
#X connect 4 0 6 0;
#X connect 5 0 7 0;
#X connect 8 0 10 0;
#X connect 10 0 24 0;
#X connect 10 0 25 0;
#X connect 17 0 16 0;
#X connect 20 0 19 0;
#X connect 22 0 21 0;
#X connect 23 0 22 0;
#X connect 24 0 23 0;
#X connect 25 0 9 0;
