#N canvas 924 511 567 381 10;
#X msg 29 206 push \$1;
#X obj 58 -23 bng 15 250 50 0 empty empty empty 17 7 0 10 -262144 -1
-1;
#X msg 106 156 clear;
#X msg -147 119 print;
#X msg -196 119 clear;
#X obj 29 229 h_stack automatrix_in;
#X msg 178 202 push \$1;
#X obj 179 226 h_stack automatrix_out;
#X msg 202 139 clear;
#X obj 178 179 for++ \$1 0;
#X obj 29 183 for++ \$1 0;
#X obj 58 -2 t b b b b b b;
#X obj 127 68 f \$1;
#X obj 117 99 - 1;
#X obj 160 97 v automatrix_size;
#X obj -197 167 h_map automatrix_in;
#X obj -95 167 h_map automatrix_out;
#X msg -92 119 print;
#X obj -90 -92 inlet;
#X obj -90 -64 route print clear;
#X obj 58 -44 initbang;
#X connect 0 0 5 0;
#X connect 1 0 11 0;
#X connect 2 0 5 0;
#X connect 3 0 15 0;
#X connect 4 0 15 0;
#X connect 4 0 16 0;
#X connect 6 0 7 0;
#X connect 8 0 7 0;
#X connect 9 0 6 0;
#X connect 10 0 0 0;
#X connect 11 0 10 0;
#X connect 11 1 2 0;
#X connect 11 2 9 0;
#X connect 11 3 8 0;
#X connect 11 4 4 0;
#X connect 11 5 12 0;
#X connect 12 0 13 0;
#X connect 12 0 14 0;
#X connect 13 0 10 0;
#X connect 13 0 9 0;
#X connect 17 0 16 0;
#X connect 18 0 19 0;
#X connect 19 0 3 0;
#X connect 19 0 17 0;
#X connect 19 1 1 0;
#X connect 20 0 1 0;
