#N canvas 337 235 1351 455 10;
#X obj 108 212 catch~ automatrix_in_0;
#X obj 238 212 catch~ automatrix_in_1;
#X obj 368 212 catch~ automatrix_in_2;
#X obj 498 212 catch~ automatrix_in_3;
#X obj 628 212 catch~ automatrix_in_4;
#X obj 758 212 catch~ automatrix_in_5;
#X obj 888 212 catch~ automatrix_in_6;
#X obj 1018 212 catch~ automatrix_in_7;
#X obj 1148 212 catch~ automatrix_in_8;
#X obj 1278 212 catch~ automatrix_in_9;
#X obj 1408 212 catch~ automatrix_in_10;
#X obj 1538 212 catch~ automatrix_in_11;
#X obj 1668 212 catch~ automatrix_in_12;
#X obj 1798 212 catch~ automatrix_in_13;
#X obj 1928 212 catch~ automatrix_in_14;
#X obj 2058 212 catch~ automatrix_in_15;
#X obj 2188 212 catch~ automatrix_in_16;
#X obj 2318 212 catch~ automatrix_in_17;
#X obj 2448 212 catch~ automatrix_in_18;
#X obj 2578 212 catch~ automatrix_in_19;
#X obj 108 362 s~ automatrix_out_0;
#X obj 238 362 s~ automatrix_out_1;
#X obj 368 362 s~ automatrix_out_2;
#X obj 498 362 s~ automatrix_out_3;
#X obj 628 362 s~ automatrix_out_4;
#X obj 758 362 s~ automatrix_out_5;
#X obj 888 362 s~ automatrix_out_6;
#X obj 1018 362 s~ automatrix_out_7;
#X obj 1148 362 s~ automatrix_out_8;
#X obj 1278 362 s~ automatrix_out_9;
#X obj 1408 362 s~ automatrix_out_10;
#X obj 1538 362 s~ automatrix_out_11;
#X obj 1668 362 s~ automatrix_out_12;
#X obj 1798 362 s~ automatrix_out_13;
#X obj 1928 362 s~ automatrix_out_14;
#X obj 2058 362 s~ automatrix_out_15;
#X obj 2188 362 s~ automatrix_out_16;
#X obj 2318 362 s~ automatrix_out_17;
#X obj 2448 362 s~ automatrix_out_18;
#X obj 2578 362 s~ automatrix_out_19;
#X obj 108 287 mtx_mul~ 20 20 100;
#X obj 12 72 bng 15 250 50 0 empty empty empty 17 7 0 10 -262144 -1
-1;
#X obj 12 178 mtx_element 20 20;
#X obj 12 96 mtx_zeros 20 20;
#X obj 12 46 initbang;
#X obj 11 222 print;
#X text 105 400 created and extracted with signal_hub2 20 20 automatrix
mtx_mul~ 20 20 100;
#X obj 111 138 r automatrix_ij;
#X obj 24 124 r automatrix_v;
#X connect 0 0 40 1;
#X connect 1 0 40 2;
#X connect 2 0 40 3;
#X connect 3 0 40 4;
#X connect 4 0 40 5;
#X connect 5 0 40 6;
#X connect 6 0 40 7;
#X connect 7 0 40 8;
#X connect 8 0 40 9;
#X connect 9 0 40 10;
#X connect 10 0 40 11;
#X connect 11 0 40 12;
#X connect 12 0 40 13;
#X connect 13 0 40 14;
#X connect 14 0 40 15;
#X connect 15 0 40 16;
#X connect 16 0 40 17;
#X connect 17 0 40 18;
#X connect 18 0 40 19;
#X connect 19 0 40 20;
#X connect 40 0 20 0;
#X connect 40 1 21 0;
#X connect 40 2 22 0;
#X connect 40 3 23 0;
#X connect 40 4 24 0;
#X connect 40 5 25 0;
#X connect 40 6 26 0;
#X connect 40 7 27 0;
#X connect 40 8 28 0;
#X connect 40 9 29 0;
#X connect 40 10 30 0;
#X connect 40 11 31 0;
#X connect 40 12 32 0;
#X connect 40 13 33 0;
#X connect 40 14 34 0;
#X connect 40 15 35 0;
#X connect 40 16 36 0;
#X connect 40 17 37 0;
#X connect 40 18 38 0;
#X connect 40 19 39 0;
#X connect 41 0 43 0;
#X connect 42 0 40 0;
#X connect 43 0 42 0;
#X connect 44 0 41 0;
#X connect 47 0 42 1;
#X connect 48 0 42 0;
