#N canvas 1031 355 641 475 10;
#X obj 272 142 loadbang;
#X obj 64 10 inlet;
#X obj 113 102 f \$1;
#X obj 113 60 initbang;
#X obj 64 183 for++ 0 1;
#X obj 354 141 loadbang;
#X msg 3 139 clear;
#X obj 218 74 unpack;
#X obj 434 143 loadbang;
#X obj 272 175 symbol \$3;
#X obj 354 174 symbol \$5;
#X obj 145 102 f \$2;
#X obj 113 125 *;
#X obj 113 81 t b b;
#X obj 434 175 f 50;
#X obj 466 175 f 50;
#X obj 32 166 bng 15 250 50 0 empty empty empty 17 7 0 10 -262144 -1
-1;
#X obj 64 394 pack f f s f f s;
#X obj 64 285 t f f;
#X obj 120 284 t f f;
#X obj 156 189 print;
#X obj 64 215 expr $f1%$f2 \; int($f1/$f2);
#X obj 113 148 - 1;
#X obj 171 369 +;
#X obj 136 369 +;
#X obj 260 372 loadbang;
#X obj 260 399 symbol \$4;
#X msg 260 429 set pd-\$1;
#X obj 64 455 iem_send;
#X obj 64 37 route bang clear step start size;
#X obj 273 90 unpack;
#X msg 64 421 obj \$1 \$2 \$3 \$4 \$5 \$6;
#X obj 64 325 expr $f1*$f3+5 \; $f2*$f4+10;
#X connect 0 0 9 0;
#X connect 1 0 29 0;
#X connect 2 0 12 0;
#X connect 3 0 13 0;
#X connect 4 0 21 0;
#X connect 5 0 10 0;
#X connect 6 0 28 0;
#X connect 7 0 32 2;
#X connect 7 1 32 3;
#X connect 8 0 14 0;
#X connect 8 0 15 0;
#X connect 9 0 17 2;
#X connect 10 0 17 5;
#X connect 11 0 12 1;
#X connect 11 0 21 1;
#X connect 12 0 22 0;
#X connect 13 0 2 0;
#X connect 13 1 11 0;
#X connect 14 0 32 2;
#X connect 15 0 32 3;
#X connect 16 0 4 0;
#X connect 17 0 31 0;
#X connect 18 0 32 0;
#X connect 18 1 23 0;
#X connect 19 0 24 0;
#X connect 19 0 32 1;
#X connect 21 0 18 0;
#X connect 21 1 19 0;
#X connect 22 0 4 1;
#X connect 23 0 17 4;
#X connect 24 0 17 3;
#X connect 25 0 26 0;
#X connect 26 0 27 0;
#X connect 27 0 28 1;
#X connect 29 0 4 0;
#X connect 29 1 6 0;
#X connect 29 2 7 0;
#X connect 29 3 23 1;
#X connect 29 3 24 1;
#X connect 29 4 30 0;
#X connect 30 0 2 0;
#X connect 30 1 11 0;
#X connect 31 0 28 0;
#X connect 32 0 17 0;
#X connect 32 1 17 1;
