#N canvas 1109 257 715 454 10;
#X obj 200 153 vsl 40 75 0 127 0 0 empty empty LVL 0 -6 0 8 -262144
-1 -1 0 1;
#N canvas 567 264 420 225 gain 0;
#X obj 72 63 inlet~;
#X obj 73 135 outlet~;
#X obj 73 93 *~;
#X obj 128 71 dbtorms;
#X msg 128 93 \$1 100;
#X obj 128 115 line~;
#X obj 128 48 state_r_line /channel/\$2/level;
#X connect 0 0 2 0;
#X connect 2 0 1 0;
#X connect 3 0 4 0;
#X connect 4 0 5 0;
#X connect 5 0 2 1;
#X connect 6 0 3 0;
#X restore 293 141 pd gain;
#N canvas 1055 580 308 196 lp 0;
#X obj 52 55 inlet~;
#X obj 53 125 outlet~;
#X obj 104 62 mtof;
#X obj 53 93 lp2~ 18000 0.7 50;
#X obj 104 41 state_r_line /channel/\$2/lp;
#X connect 0 0 3 0;
#X connect 2 0 3 1;
#X connect 3 0 1 0;
#X connect 4 0 2 0;
#X restore 293 89 pd lp;
#N canvas 788 234 308 196 hp 0;
#X obj 72 55 inlet~;
#X obj 73 135 outlet~;
#X obj 129 45 mtof;
#X obj 172 95 nbx 5 14 -1e+37 1e+37 0 0 empty empty empty 0 -8 0 10
-262144 -1 -1 0 256;
#X obj 73 93 hip~ 10;
#X obj 129 87 line;
#X msg 129 66 \$1 100;
#X obj 129 23 state_r_line /channel/\$2/hp;
#X connect 0 0 4 0;
#X connect 2 0 6 0;
#X connect 4 0 1 0;
#X connect 5 0 4 1;
#X connect 5 0 3 0;
#X connect 6 0 5 0;
#X connect 7 0 2 0;
#X restore 293 115 pd hp;
#X obj 201 21 cnv 15 38 20 empty \$0-label \$2 0 12 0 8 -233017 -66577
0;
#X obj 207 112 knob 25 25 0 140 0 1 empty empty HP 0 -8 0 8 -262144
-1 -1 17 1;
#X obj 207 70 knob 25 25 0 127 0 1 empty empty LP 0 -8 0 8 -262144
-1 -1 19 1;
#X obj 203 245 hsl 35 15 0 1 0 1 empty empty PAN -2 -6 0 8 -262144
-1 -1 1500 1;
#N canvas 955 527 408 221 pan 0;
#X obj 101 29 inlet~;
#X obj 102 103 outlet~;
#X obj 172 103 outlet~;
#X obj 188 35 line;
#X obj 210 60 expr 1-$f1;
#X msg 188 13 \$1 200;
#X obj 101 72 *~ 1;
#X obj 135 72 *~ 1;
#X obj 188 -10 state_r_line /channel/\$2/pan;
#X connect 0 0 6 0;
#X connect 0 0 7 0;
#X connect 3 0 4 0;
#X connect 3 0 6 1;
#X connect 4 0 7 1;
#X connect 5 0 3 0;
#X connect 6 0 1 0;
#X connect 7 0 2 0;
#X connect 8 0 5 0;
#X restore 294 174 pd pan;
#X obj 202 43 nbx 4 12 -1e+37 1e+37 0 0 empty empty empty 0 -8 0 8
-262144 -1 -1 0 256;
#X obj 473 76 r idiot_bang;
#X msg 473 104 reset;
#X obj 340 91 peakenv~ 1000;
#X obj 341 114 snapshot~;
#X obj 403 114 metro 100;
#X obj 294 42 r~ \$2;
#X obj -14 59 state_io_set /channel/\$2/lp;
#X obj -23 113 state_io_set /channel/\$2/hp;
#X obj -21 162 state_io_set /channel/\$2/level;
#X obj -22 217 state_io_set /channel/\$2/pan;
#X obj 294 218 throw~ master_L;
#X obj 414 218 throw~ master_R;
#X connect 0 0 18 0;
#X connect 1 0 8 0;
#X connect 2 0 3 0;
#X connect 3 0 1 0;
#X connect 5 0 17 0;
#X connect 6 0 16 0;
#X connect 7 0 19 0;
#X connect 8 0 20 0;
#X connect 8 1 21 0;
#X connect 10 0 11 0;
#X connect 10 0 14 0;
#X connect 11 0 12 0;
#X connect 12 0 13 0;
#X connect 13 0 9 0;
#X connect 14 0 13 0;
#X connect 15 0 2 0;
#X connect 15 0 12 0;
#X connect 16 0 6 0;
#X connect 17 0 5 0;
#X connect 18 0 0 0;
#X connect 19 0 7 0;
#X coords 0 -1 1 1 40 240 2 200 20;
