#N canvas 94 220 864 470 10;
#X declare -lib sfruit;
#X declare -lib pdcontainer;
#X obj 71 369 unpack f f f;
#X obj 95 397 pack f f;
#X obj 103 103 knob 34 34 0 127 0 0 empty \$0-knob empty 0 -8 0 8 -262144
-1133 -262144 0 1;
#X obj 448 233 s \$0-knob;
#X obj 82 27 import sfruit;
#X obj 448 162 color.hsl2rgb;
#X obj 448 184 color.rgb2pd24;
#X msg 448 209 color 0 \$1 0;
#X obj 71 191 dbtorms;
#X obj 448 74 nbx 5 14 -1e+37 1e+37 0 0 empty empty empty 0 -8 0 10
-262144 -1 -1 0 256;
#X obj 448 96 moses 1;
#X msg 501 141 1 1 \$1;
#X msg 448 140 0.6 1 \$1;
#X obj 609 120 maxlib/scale 1 22.38 0.3 0.5;
#X obj 448 120 maxlib/scale 0 1 0.35 0.5;
#X obj 71 213 s \$0-db;
#X obj 448 50 r \$0-db;
#X obj 71 344 pack f f f;
#X obj 90 293 automatrix_get_channel_out_id \$3;
#X obj 275 293 automatrix_get_channel_in_id \$4;
#X obj 71 241 r \$0-db;
#X obj 71 264 t f b b;
#X obj 90 317 + 1;
#X obj 130 317 + 1;
#X obj 103 74 r /automatrix/\$1/\$2;
#X obj 71 166 state_r_line /automatrix/\$3/\$4;
#X obj 170 106 state_io_set /automatrix/\$3/\$4;
#X obj 16 421 s automatrix_v;
#X obj 95 420 s automatrix_ij;
#X connect 0 0 27 0;
#X connect 0 1 1 0;
#X connect 0 2 1 1;
#X connect 1 0 28 0;
#X connect 2 0 26 0;
#X connect 5 0 6 0;
#X connect 6 0 7 0;
#X connect 7 0 3 0;
#X connect 8 0 15 0;
#X connect 9 0 10 0;
#X connect 10 0 14 0;
#X connect 10 1 13 0;
#X connect 11 0 5 0;
#X connect 12 0 5 0;
#X connect 13 0 11 0;
#X connect 14 0 12 0;
#X connect 16 0 9 0;
#X connect 17 0 0 0;
#X connect 18 0 22 0;
#X connect 19 0 23 0;
#X connect 20 0 21 0;
#X connect 21 0 17 0;
#X connect 21 1 18 0;
#X connect 21 2 19 0;
#X connect 22 0 17 1;
#X connect 23 0 17 2;
#X connect 24 0 2 0;
#X connect 25 0 8 0;
#X connect 26 0 2 0;
#X coords 0 -1 1 1 40 40 2 100 100;
