#N canvas 112 610 450 300 10;
#X obj 102 64 inlet;
#X obj 273 78 inlet;
#X obj 197 272 outlet;
#X obj 218 191 list;
#X obj 197 241 list;
#X obj 244 161 list split 3;
#X obj 102 151 cup;
#X obj 102 178 sel;
#X obj 101 214 b;
#X obj 74 124 bng 15 250 50 0 empty empty empty 17 7 0 10 -262144 -1
-1;
#X obj 224 119 - 1;
#X obj 102 92 t b a;
#X msg 60 214 -1;
#X connect 0 0 11 0;
#X connect 1 0 5 1;
#X connect 1 0 10 0;
#X connect 3 0 4 1;
#X connect 3 0 5 0;
#X connect 4 0 2 0;
#X connect 5 0 3 1;
#X connect 5 2 3 1;
#X connect 6 0 7 0;
#X connect 7 0 4 0;
#X connect 7 0 12 0;
#X connect 7 0 8 0;
#X connect 8 0 3 1;
#X connect 9 0 6 0;
#X connect 10 0 7 1;
#X connect 11 0 6 0;
#X connect 11 1 3 0;
#X connect 12 0 6 0;
