#N canvas 576 267 450 300 10;
#X obj 136 108 r \$1;
#X obj 136 158 line;
#X obj 136 132 pack f \$2;
#X obj 136 186 outlet;
#X obj 167 108 inlet;
#X connect 0 0 2 0;
#X connect 1 0 3 0;
#X connect 2 0 1 0;
#X connect 4 0 2 0;
