#N canvas 900 505 702 297 10;
#X obj 3 242 namecanvas \$0_signal_hub;
#N canvas 148 464 975 359 builder 0;
#X obj 61 102 s \$0_signal_hub;
#X obj 403 -49 dollarg;
#X obj 61 -140 initbang;
#X obj 61 -30 for++ 0 \$1;
#X msg 61 75 obj \$1 0 catch~ \$2_in_\$3;
#X obj 61 -5 t f b f;
#X obj 100 20 symbol \$3;
#X obj 61 45 pack f s f;
#X obj 61 20 * 130;
#X obj 234 100 s \$0_signal_hub;
#X obj 234 -5 t f b f;
#X obj 273 20 symbol \$3;
#X obj 234 45 pack f s f;
#X obj 234 20 * 130;
#X obj 234 -30 for++ 0 \$2;
#X msg 234 74 obj \$1 150 s~ \$2_out_\$3;
#X obj 403 -22 list split 3;
#X obj 401 14 list prepend obj 0 75;
#X obj 401 70 s \$0_signal_hub;
#X obj 401 40 list trim;
#X obj 89 -76 f \$1;
#X obj 563 -29 for++ 0 \$1;
#X obj 607 -78 f \$1;
#X obj 563 -78 t b b;
#X msg 563 62 connect \$1 0 \$2 \$3;
#X obj 563 38 pack f f f;
#X obj 683 -104 f \$1;
#X obj 278 -77 f \$2;
#X obj 683 -131 initbang;
#X obj 683 -80 + \$2;
#X obj 563 -8 t f f;
#X obj 563 88 s \$0_signal_hub;
#X obj 726 -103 bng 15 250 50 0 empty empty empty 17 7 0 10 -262144
-1 -1;
#X obj 563 15 + 2;
#X obj 89 -53 - 1;
#X obj 278 -54 - 1;
#X obj 234 -103 t b b;
#X obj 61 -103 t b b;
#X obj 402 -76 t b b;
#X obj 683 -55 + 2;
#X obj 752 -46 for++ 0 \$1;
#X obj 752 -95 t b b;
#X obj 752 41 pack f f f;
#X obj 752 -25 t f f;
#X obj 752 91 s \$0_signal_hub;
#X obj 752 -2 + 2;
#X obj 752 19 + \$1;
#X msg 752 65 connect \$2 \$3 \$1 0;
#X obj 796 -95 f \$2;
#X obj 796 -72 - 1;
#X obj 607 -55 - 1;
#X obj 634 39 + 1;
#X connect 1 0 16 0;
#X connect 2 0 37 0;
#X connect 3 0 5 0;
#X connect 3 1 36 0;
#X connect 4 0 0 0;
#X connect 5 0 8 0;
#X connect 5 1 6 0;
#X connect 5 2 7 2;
#X connect 6 0 7 1;
#X connect 7 0 4 0;
#X connect 8 0 7 0;
#X connect 10 0 13 0;
#X connect 10 1 11 0;
#X connect 10 2 12 2;
#X connect 11 0 12 1;
#X connect 12 0 15 0;
#X connect 13 0 12 0;
#X connect 14 0 10 0;
#X connect 14 1 38 0;
#X connect 15 0 9 0;
#X connect 16 1 17 0;
#X connect 17 0 19 0;
#X connect 19 0 18 0;
#X connect 20 0 34 0;
#X connect 21 0 30 0;
#X connect 21 1 41 0;
#X connect 22 0 50 0;
#X connect 23 0 21 0;
#X connect 23 1 22 0;
#X connect 24 0 31 0;
#X connect 25 0 24 0;
#X connect 26 0 29 0;
#X connect 27 0 35 0;
#X connect 28 0 26 0;
#X connect 29 0 39 0;
#X connect 30 0 33 0;
#X connect 30 1 51 0;
#X connect 32 0 26 0;
#X connect 33 0 25 0;
#X connect 34 0 3 1;
#X connect 35 0 14 1;
#X connect 36 0 14 0;
#X connect 36 1 27 0;
#X connect 37 0 3 0;
#X connect 37 1 20 0;
#X connect 38 0 23 0;
#X connect 38 1 1 0;
#X connect 39 0 25 1;
#X connect 39 0 42 1;
#X connect 40 0 43 0;
#X connect 41 0 40 0;
#X connect 41 1 48 0;
#X connect 42 0 47 0;
#X connect 43 0 45 0;
#X connect 43 1 42 2;
#X connect 45 0 46 0;
#X connect 46 0 42 0;
#X connect 47 0 44 0;
#X connect 48 0 49 0;
#X connect 49 0 40 1;
#X connect 50 0 21 1;
#X connect 51 0 25 2;
#X restore 4 269 pd builder;
