#N canvas 261 485 686 335 10;
#X declare -lib cachorita;
#X declare -path lib/canales;
#X declare -path lib;
#X declare -lib cachorita;
#X declare -path lib;
#X declare -lib cachorita;
#X declare -path libreria;
#X declare -lib cachorita;
#X declare -path libreria;
#X declare -path extra/mmb;
#X declare -path extra/;
#X declare -lib cachorita;
#X declare -path lib;
#X declare -lib cachorita;
#X declare -path lib;
#X declare -lib cachorita;
#X declare -path lib;
#X declare -lib cachorita;
#X declare -path lib;
#X declare -lib cachorita;
#X declare -path lib;
#X declare -lib cachorita;
#X declare -path lib;
#X declare -lib cachorita;
#X declare -path lib;
#X obj 120 -426 cnv 15 100 60 empty empty In/Out 3 10 0 14 -233017
-66577 0;
#X obj -279 -430 import cachorita;
#N canvas 482 175 728 278 io 0;
#X obj 13 205 dac~ 1;
#X obj 13 41 adc~ 1;
#X obj 93 42 adc~ 2;
#X obj 97 206 dac~ 2;
#X obj 96 174 cacho~ DAC_R;
#X obj 12 174 cacho~ DAC_L;
#X text 11 153 OUT;
#X text 11 8 IN;
#X obj -56 69 rita~ ADC1;
#X obj -55 40 pink~;
#X obj 212 174 cacho~ ADC1_L;
#X obj 298 174 cacho~ ADC1_R;
#X obj 93 69 rita~ ADC2;
#X obj 163 69 rita~ ADC3;
#X obj 233 69 rita~ ADC4;
#X obj 303 69 rita~ ADC5;
#X obj 373 69 rita~ ADC6;
#X obj 163 42 adc~ 3;
#X obj 233 42 adc~ 4;
#X obj 303 42 adc~ 5;
#X obj 373 42 adc~ 6;
#X obj 443 42 adc~ 7;
#X obj 513 42 adc~ 8;
#X obj 443 69 rita~ ADC7;
#X obj 512 69 rita~ ADC8;
#X connect 4 0 3 0;
#X connect 5 0 0 0;
#X connect 9 0 8 0;
#X connect 17 0 13 0;
#X connect 18 0 14 0;
#X connect 19 0 15 0;
#X connect 20 0 16 0;
#X connect 21 0 23 0;
#X connect 22 0 24 0;
#X restore 124 -402 pd io;
#X obj -135 -431 solo-counter2;
#X obj -279 -338 path lib/canales;
#X obj -279 -358 path lib;
#X obj -282 -270 channel_1_send_1~ CH1 ADC1 MASTER SEND1;
#X text -282 -298 Channels;
#X obj 121 -270 channel_2~ SEND1 SEND1 MASTER;
#X obj 121 -180 channel_2~ MASTER MASTER DAC;
#X text 118 -208 Master;
#X text 118 -298 Sends;
#X obj -279 -378 path extra/mmb;
#X obj -279 -398 path extra/;
#X obj -282 -250 channel_1_send_1~ CH2 ADC2 MASTER SEND1;
#X obj -282 -230 channel_1_send_1~ CH3 ADC3 MASTER SEND1;
#X obj -282 -210 channel_1_send_1~ CH4 ADC4 MASTER SEND1;
#X obj -282 -190 channel_1_send_1~ CH5 ADC5 MASTER SEND1;
#X obj -282 -170 channel_1_send_1~ CH6 ADC6 MASTER SEND1;
#X obj -282 -150 channel_1_send_1~ CH7 ADC7 MASTER SEND1;
#X obj -282 -130 channel_1_send_1~ CH8 ADC8 MASTER SEND1;
