#N canvas 117 110 1090 635 10;
#X declare -lib pdcontainer -lib tof;
#X declare -lib pdcontainer;
#X declare -lib pdcontainer;
#X declare -lib pdcontainer;
#X declare -lib pdcontainer;
#X declare -path extra;
#X declare -lib pdcontainer;
#X declare -lib pdcontainer;
#X declare -lib pdcontainer;
#X declare -path lib/canales;
#X declare -path lib;
#X declare -path extra/mmb;
#X declare -path extra/state;
#X declare -lib pdcontainer;
#X declare -lib pdcontainer;
#X declare -lib pdcontainer;
#X declare -lib pdcontainer;
#X declare -lib pdcontainer;
#X declare -lib pdcontainer;
#X declare -lib pdcontainer;
#X declare -lib pdcontainer;
#X declare -lib pdcontainer;
#X obj 13 413 state_manager;
#X msg -33 492 states;
#X obj 474 3 channel_2 SEND1 SEND1 MASTER;
#X obj 602 3 channel_2 MASTER MASTER DAC;
#X obj 735 60 path extra;
#X obj 149 414 setup-control;
#X obj 13 3 channel_1_send_1 CH1;
#X obj 735 38 path lib/canales;
#X obj 735 16 path lib;
#X obj 735 102 path extra/mmb;
#X obj 735 125 pages;
#X obj 735 81 path extra/state;
#X obj 370 441 hradio 25 1 0 2 page_number empty Páginas 0 -13 0 16
-262144 -1 -1 1;
#X obj 124 3 channel_1_send_1 CH2;
#X obj 233 3 channel_1_send_1 CH3;
#X obj 344 3 channel_1_send_1 CH4;
#X msg 887 31 CH1;
#X msg 921 31 CH5;
#X obj 887 66 s channel_1_send_1_1;
#X obj 887 117 s /CH1/fader;
#X obj 887 95 bng 15 250 50 0 empty empty empty 17 7 0 10 -262144 -1
-1;
#X connect 0 0 1 0;
#X connect 1 0 0 0;
#X connect 16 0 18 0;
#X connect 17 0 18 0;
#X connect 20 0 19 0;
#X coords 0 -1 1 1 700 530 1 10 0;
