#N canvas 475 116 686 281 10;
#X declare -path extra;
#X declare -lib cachorita;
#X declare -path lib/canales;
#X declare -path lib;
#X declare -lib cachorita;
#X declare -path lib;
#X declare -lib cachorita;
#X declare -path lib;
#X declare -path /canales/lib;
#X declare -path /canales/lib;
#X declare -path /canales/lib;
#X declare -path /canales/lib;
#X declare -lib cachorita;
#X declare -path canales/lib;
#X declare -lib cachorita;
#X declare -path libreria;
#X declare -lib cachorita;
#X declare -path libreria;
#X declare -lib cachorita;
#X declare -path libreria;
#X declare -lib cachorita;
#X declare -path libreria;
#X declare -lib cachorita;
#X declare -path libreria;
#X declare -lib cachorita;
#X declare -path lib;
#X text -282 -328 channels;
#X obj 120 -426 cnv 15 100 60 empty empty In/Out 3 10 0 14 -233017
-66577 0;
#X obj -279 -398 path extra;
#X obj -279 -430 import cachorita;
#N canvas 763 182 586 278 io 0;
#X obj 13 205 dac~ 1;
#X obj 13 41 adc~ 1;
#X obj 92 42 adc~ 2;
#X obj 97 206 dac~ 2;
#X obj 96 174 cacho~ DAC_R;
#X obj 12 174 cacho~ DAC_L;
#X text 11 153 OUT;
#X text 11 8 IN;
#X obj 91 68 rita~ ADC1_R;
#X obj 12 69 rita~ ADC1_L;
#X obj -56 69 rita~ ADC1;
#X obj -55 40 pink~;
#X obj 173 41 adc~ 1;
#X obj 172 69 rita~ ADC2;
#X obj 212 174 cacho~ ADC1_L;
#X obj 298 174 cacho~ ADC1_R;
#X connect 1 0 9 0;
#X connect 1 0 10 0;
#X connect 2 0 8 0;
#X connect 4 0 3 0;
#X connect 5 0 0 0;
#X connect 11 0 10 0;
#X connect 11 0 13 0;
#X connect 12 0 13 0;
#X restore 124 -402 pd io;
#X obj -135 -431 solo-counter2;
#X obj -279 -358 path lib/canales;
#X obj -279 -378 path lib;
#X obj -282 -300 channel_1_send_1~ CH1 ADC1 MASTER SEND1;
#X obj -282 -280 channel_1_send_1~ CH2 ADC1 MASTER SEND1;
#X obj -282 -239 channel_1_send_4~ CH2 ADC2 MASTER SEND1 SEND2 SEND3
SEND4;
#X obj 121 -320 channel_2~ SEND1 SEND1 MASTER;
#X obj 121 -300 channel_2~ SEND2 SEND2 MASTER;
#X obj 121 -280 channel_2~ SEND3 SEND3 MASTER;
#X obj 121 -260 channel_2~ SEND4 SEND4 MASTER;
#X obj 121 -220 channel_2~ MASTER MASTER DAC;

