#N canvas 168 292 520 219 24;
#X obj 44 -104 bng 15 250 50 0 empty empty empty 17 7 0 10 -262144
-1 -1;
#X msg 79 -105 clear;
#N canvas 539 247 482 472 pool 1;
#X obj 0 0 f 0 ;
#X obj 0 30 f 1 ;
#X obj 0 60 f 2 ;
#X obj 0 90 f 3 ;
#X obj 0 120 f 4 ;
#X obj 0 150 f 5 ;
#X obj 0 180 f 6 ;
#X obj 0 210 f 7 ;
#X obj 0 240 f 8 ;
#X obj 0 270 f 9 ;
#X obj 0 300 f 10 ;
#X obj 0 330 f 11 ;
#X obj 0 360 f 12 ;
#X obj 0 390 f 13 ;
#X obj 0 420 f 14 ;
#X obj 0 450 f 15 ;
#X obj 0 480 f 16 ;
#X obj 0 510 f 17 ;
#X obj 0 540 f 18 ;
#X obj 0 570 f 19 ;
#X restore 43 59 pd pool;
#X obj -16 -103 nbx 5 14 -1e+37 1e+37 0 0 empty empty empty 0 -8 0
10 -262144 -1 -1 20 256;
#X msg 158 -105 step 0 30;
#X obj 44 7 autoconstructor 14 f pool 20;
#X connect 0 0 5 0;
#X connect 1 0 5 0;
#X connect 3 0 5 0;
#X connect 4 0 5 0;
