#N canvas 287 206 643 441 10;
#X obj 247 295 loadbang;
#X obj 229 146 loadbang;
#X obj 54 230 t f f;
#X obj 54 10 inlet;
#X obj 229 179 symbol \$2;
#X obj 247 328 symbol \$3;
#X obj 103 132 f \$1;
#X obj 103 156 - 1;
#X obj 311 145 loadbang;
#X obj 311 178 symbol \$4;
#X msg 8 136 clear;
#X obj 184 74 unpack;
#X obj 54 333 pack f f f s s;
#X msg 54 361 obj \$1 \$2 \$4 \$3 \$5;
#X obj 391 147 loadbang;
#X obj 391 179 f 0;
#X obj 423 179 f 25;
#X obj 73 209 bng 15 250 50 0 empty empty empty 17 7 0 10 -262144 -1
-1;
#X obj 54 92 spigot;
#X obj 88 73 tgl 15 1 empty empty empty 17 7 0 10 -262144 -1 -1 10
10;
#X obj 119 70 sel 0;
#X obj 54 37 route bang clear float step start;
#X obj 110 305 +;
#X obj 54 182 purepd/for++ 0 1;
#X obj 103 107 loadbang;
#X obj 54 395 send;
#X msg 247 357 symbol pd-\$1;
#X obj 54 255 expr $f1*$f2+5 \; $f1*$f3+10;
#X connect 0 0 5 0;
#X connect 1 0 4 0;
#X connect 2 0 27 0;
#X connect 2 1 22 0;
#X connect 3 0 21 0;
#X connect 4 0 12 3;
#X connect 5 0 26 0;
#X connect 6 0 7 0;
#X connect 7 0 23 1;
#X connect 8 0 9 0;
#X connect 9 0 12 4;
#X connect 10 0 25 0;
#X connect 11 0 27 1;
#X connect 11 1 27 2;
#X connect 12 0 13 0;
#X connect 13 0 25 0;
#X connect 14 0 15 0;
#X connect 14 0 16 0;
#X connect 15 0 27 1;
#X connect 16 0 27 2;
#X connect 18 0 23 0;
#X connect 19 0 18 1;
#X connect 20 0 19 0;
#X connect 20 1 7 0;
#X connect 20 1 19 0;
#X connect 21 0 18 0;
#X connect 21 1 10 0;
#X connect 21 2 20 0;
#X connect 21 3 11 0;
#X connect 21 4 22 1;
#X connect 22 0 12 2;
#X connect 23 0 2 0;
#X connect 23 0 17 0;
#X connect 24 0 6 0;
#X connect 26 0 25 1;
#X connect 27 0 12 0;
#X connect 27 1 12 1;
