#N canvas 497 271 618 435 10;
#X declare -lib cachorita;
#X obj -51 336 sig~;
#X obj -51 313 nbx 5 14 -1e+37 1e+37 0 0 empty empty empty 0 -8 0 10
-262144 -1 -1 32 256;
#X obj 146 75 import cachorita;
#X obj 7 207 rita~ ca;
#X obj 94 182 cacho~ ca;
#X obj -105 91 bng 15 250 50 0 empty empty empty 17 7 0 10 -262144
-1 -1;
#X obj 172 181 cacho~ ca;
#X obj -53 170 dirac~;
#X obj -53 207 print~ A;
#X obj 173 207 print~ C;
#X obj 95 207 print~ B;
#X obj -105 118 t b b b b;
#X obj 182 321 cacho~ co;
#X obj 33 321 cacho~ co;
#X obj 34 363 snaps~;
#X obj 182 362 snaps~;
#X obj -50 364 rita~ co;
#X obj -123 337 sig~;
#X obj -123 314 nbx 5 14 -1e+37 1e+37 0 0 empty empty empty 0 -8 0
10 -262144 -1 -1 21 256;
#X obj -122 365 rita~ co;
#X connect 0 0 16 0;
#X connect 1 0 0 0;
#X connect 4 0 10 0;
#X connect 5 0 11 0;
#X connect 6 0 9 0;
#X connect 7 0 3 0;
#X connect 7 0 8 0;
#X connect 11 0 10 0;
#X connect 11 1 9 0;
#X connect 11 2 8 0;
#X connect 11 3 7 0;
#X connect 12 0 15 0;
#X connect 13 0 14 0;
#X connect 17 0 19 0;
#X connect 18 0 17 0;
