#N canvas 197 215 947 522 10;
#X declare -lib multicatch;
#X obj 146 75 import multicatch;
#X obj 7 207 mthrow~ ca;
#X obj 94 182 mcatch~ ca;
#X obj -105 91 bng 15 250 50 0 empty empty empty 17 7 0 10 -262144
-1 -1;
#X obj 172 181 mcatch~ ca;
#X obj -53 170 dirac~;
#X obj -53 207 print~ A;
#X obj 173 207 print~ C;
#X obj 95 207 print~ B;
#X obj -105 118 t b b b b;
#X obj -33 21 loadbang;
#X msg -31 48 \; pd dsp 1;
#X obj 46 311 mcatch~ co;
#X obj 45 336 snaps~;
#X obj 187 309 mcatch~ co;
#X obj 186 334 snaps~;
#X obj 310 279 mthrow~ ci;
#X obj 381 279 mthrow~ ci;
#X obj 382 226 noise~;
#X obj 381 250 abs~;
#X obj 310 251 sig~ 10;
#X obj 468 248 snaps~;
#X obj 469 225 mcatch~ ci;
#X obj 601 247 snaps~;
#X obj 602 224 mcatch~ ci;
#X obj -46 283 noise~;
#X obj -47 307 abs~;
#X obj -118 308 sig~ 10;
#X obj -118 336 mthrow~ co;
#X obj -47 336 mthrow~ co;
#X connect 2 0 8 0;
#X connect 3 0 9 0;
#X connect 4 0 7 0;
#X connect 5 0 1 0;
#X connect 5 0 6 0;
#X connect 9 0 8 0;
#X connect 9 1 7 0;
#X connect 9 2 6 0;
#X connect 9 3 5 0;
#X connect 10 0 11 0;
#X connect 12 0 13 0;
#X connect 14 0 15 0;
#X connect 18 0 19 0;
#X connect 19 0 17 0;
#X connect 20 0 16 0;
#X connect 22 0 21 0;
#X connect 24 0 23 0;
#X connect 25 0 26 0;
#X connect 26 0 29 0;
#X connect 27 0 28 0;
